SplineFontDB: 3.2
FontName: EvergrowSans-Light
FullName: Evergrow Sans Light
FamilyName: Evergrow Sans
Weight: Light
Copyright: Copyright 2020 The Plus Jakarta Sans Project Authors (https://github.com/tokotype/PlusJakartaSans)\n\nModification Stijn de Vries (https://github.com/stijndevries/Eudoxus-Sans?tab=OFL-1.1-1-ov-file)\n\nModification TenWeb Inc. 2024\n\nThis Font Software is licensed under the SIL Open Font License, Version 1.1. (https://openfontlicense.org/open-font-license-official-text/)
Version: 1.000
ItalicAngle: 0
UnderlinePosition: -175
UnderlineWidth: 40
Ascent: 800
Descent: 200
InvalidEm: 0
sfntRevision: 0x00020147
LayerCount: 2
Layer: 0 1 "Back" 1
Layer: 1 1 "Fore" 0
XUID: [1021 212 447365028 7437152]
StyleMap: 0x0040
FSType: 0
OS2Version: 4
OS2_WeightWidthSlopeOnly: 0
OS2_UseTypoMetrics: 1
CreationTime: 1610050419
ModificationTime: 1723619901
PfmFamily: 81
TTFWeight: 300
TTFWidth: 5
LineGap: 0
VLineGap: 0
Panose: 0 0 0 0 0 0 0 0 0 0
OS2TypoAscent: 1038
OS2TypoAOffset: 0
OS2TypoDescent: -222
OS2TypoDOffset: 0
OS2TypoLinegap: 0
OS2WinAscent: 1214
OS2WinAOffset: 0
OS2WinDescent: 395
OS2WinDOffset: 0
HheadAscent: 1038
HheadAOffset: 0
HheadDescent: -222
HheadDOffset: 0
OS2SubXSize: 650
OS2SubYSize: 600
OS2SubXOff: 0
OS2SubYOff: 75
OS2SupXSize: 650
OS2SupYSize: 600
OS2SupXOff: 0
OS2SupYOff: 350
OS2StrikeYSize: 50
OS2StrikeYPos: 265
OS2CapHeight: 745
OS2XHeight: 531
OS2Vendor: 'UKWN'
OS2CodePages: 20000193.00000000
OS2UnicodeRanges: a10000ff.4000607b.00000000.00000000
Lookup: 1 0 0 "'aalt' Access All Alternates in Latin lookup 0" { "'aalt' Access All Alternates in Latin lookup 0 subtable"  } ['aalt' ('DFLT' <'dflt' > 'latn' <'AZE ' 'CAT ' 'CRT ' 'KAZ ' 'MOL ' 'ROM ' 'TAT ' 'TRK ' 'dflt' > ) ]
Lookup: 3 0 0 "'aalt' Access All Alternates in Latin lookup 1" { "'aalt' Access All Alternates in Latin lookup 1 subtable"  } ['aalt' ('DFLT' <'dflt' > 'latn' <'AZE ' 'CAT ' 'CRT ' 'KAZ ' 'MOL ' 'ROM ' 'TAT ' 'TRK ' 'dflt' > ) ]

StartChar: .notdef
Encoding: 65536 -1 0
Width: 600
GlyphClass: 1
Flags: W
LayerCount: 2
Fore
SplineSet
492 -240 m 1,0,-1
 112 -240 l 1,1,-1
 112 960 l 1,2,-1
 492 960 l 1,3,-1
 492 -240 l 1,0,-1
400 -157 m 1,4,-1
 400 -118 l 1,5,-1
 277 -118 l 1,6,-1
 361 -61 l 1,7,-1
 400 -61 l 1,8,-1
 400 -22 l 1,9,-1
 200 -22 l 1,10,-1
 200 -61 l 1,11,-1
 284 -61 l 1,12,-1
 200 -118 l 1,13,-1
 200 -157 l 1,14,-1
 400 -157 l 1,4,-1
400 6 m 1,15,-1
 400 142 l 1,16,-1
 200 142 l 1,17,-1
 200 6 l 1,18,-1
 400 6 l 1,15,-1
400 214 m 1,19,-1
 400 349 l 1,20,-1
 280 349 l 1,21,-1
 280 282 l 1,22,-1
 320 282 l 1,23,-1
 320 310 l 1,24,-1
 360 310 l 1,25,-1
 360 253 l 1,26,-1
 240 253 l 1,27,-1
 240 349 l 1,28,-1
 200 349 l 1,29,-1
 200 214 l 1,30,-1
 400 214 l 1,19,-1
400 376 m 1,31,-1
 400 496 l 1,32,-1
 360 496 l 1,33,-1
 360 416 l 1,34,-1
 200 416 l 1,35,-1
 200 376 l 1,36,-1
 400 376 l 1,31,-1
320 444 m 1,37,-1
 320 528 l 1,38,-1
 400 528 l 1,39,-1
 400 568 l 1,40,-1
 200 568 l 1,41,-1
 200 528 l 1,42,-1
 280 528 l 1,43,-1
 280 484 l 1,44,-1
 200 484 l 1,45,-1
 200 444 l 1,46,-1
 320 444 l 1,37,-1
400 600 m 1,47,-1
 400 641 l 1,48,-1
 320 641 l 1,49,-1
 320 725 l 1,50,-1
 200 725 l 1,51,-1
 200 600 l 1,52,-1
 400 600 l 1,47,-1
400 756 m 1,53,-1
 400 796 l 1,54,-1
 320 796 l 1,55,-1
 320 840 l 1,56,-1
 400 840 l 1,57,-1
 400 880 l 1,58,-1
 202 880 l 1,59,-1
 202 840 l 1,60,-1
 280 840 l 1,61,-1
 280 796 l 1,62,-1
 200 796 l 1,63,-1
 200 756 l 1,64,-1
 400 756 l 1,53,-1
240 102 m 1,65,-1
 360 102 l 1,66,-1
 360 46 l 1,67,-1
 240 46 l 1,68,-1
 240 102 l 1,65,-1
240 684 m 1,69,-1
 280 684 l 1,70,-1
 280 641 l 1,71,-1
 240 641 l 1,72,-1
 240 684 l 1,69,-1
EndSplineSet
Validated: 1
EndChar

StartChar: A
Encoding: 65 65 3
Width: 648
GlyphClass: 2
Flags: W
AnchorPoint: "Anchor-6" 324 745 basechar 0
AnchorPoint: "Anchor-5" 597 30 basechar 0
AnchorPoint: "Anchor-4" 324 0 basechar 0
LayerCount: 2
Fore
SplineSet
291 745 m 1,0,-1
 358 745 l 1,1,-1
 632 0 l 1,2,-1
 562 0 l 1,3,-1
 494 190 l 1,4,-1
 155 190 l 1,5,-1
 86 0 l 1,6,-1
 17 0 l 1,7,-1
 291 745 l 1,0,-1
472 250 m 1,8,-1
 324 662 l 1,9,-1
 176 250 l 1,10,-1
 472 250 l 1,8,-1
EndSplineSet
Validated: 1048577
Substitution2: "Single Substitution lookup 28 subtable" ordfeminine
Substitution2: "'aalt' Access All Alternates in Latin lookup 0 subtable" ordfeminine
Position2: "'cpsp' Capital Spacing in Latin lookup 0 subtable" dx=5 dy=0 dh=10 dv=0
EndChar

StartChar: Aogonek
Encoding: 260 260 24
Width: 648
GlyphClass: 2
Flags: W
AnchorPoint: "Anchor-6" 324 745 basechar 0
AnchorPoint: "Anchor-5" 597 30 basechar 0
AnchorPoint: "Anchor-4" 324 0 basechar 0
LayerCount: 2
Fore
SplineSet
291 745 m 1,0,-1
 358 745 l 1,1,-1
 632 0 l 1,2,-1
 581 0 l 1,3,4
 529 -34 529 -34 529 -77 c 0,5,6
 529 -99 529 -99 543 -111.5 c 128,-1,7
 557 -124 557 -124 580 -124 c 0,8,9
 610 -124 610 -124 647 -98 c 1,10,-1
 669 -132 l 1,11,12
 628 -167 628 -167 576 -167 c 0,13,14
 535 -167 535 -167 508.5 -145 c 128,-1,15
 482 -123 482 -123 482 -87 c 0,16,17
 482 -57 482 -57 501 -29.5 c 128,-1,18
 520 -2 520 -2 556 18 c 1,19,-1
 494 190 l 1,20,-1
 155 190 l 1,21,-1
 86 0 l 1,22,-1
 17 0 l 1,23,-1
 291 745 l 1,0,-1
472 250 m 1,24,-1
 324 662 l 1,25,-1
 176 250 l 1,26,-1
 472 250 l 1,24,-1
EndSplineSet
Validated: 1048577
Position2: "'cpsp' Capital Spacing in Latin lookup 0 subtable" dx=5 dy=0 dh=10 dv=0
EndChar

StartChar: AE
Encoding: 198 198 28
Width: 986
GlyphClass: 2
Flags: W
AnchorPoint: "Anchor-6" 494 745 basechar 0
AnchorPoint: "Anchor-4" 494 0 basechar 0
LayerCount: 2
Fore
SplineSet
291 745 m 1,0,-1
 937 745 l 1,1,-1
 937 685 l 1,2,-1
 532 685 l 1,3,-1
 532 404 l 1,4,-1
 917 404 l 1,5,-1
 917 344 l 1,6,-1
 532 344 l 1,7,-1
 532 60 l 1,8,-1
 937 60 l 1,9,-1
 937 0 l 1,10,-1
 467 0 l 1,11,-1
 467 190 l 1,12,-1
 155 190 l 1,13,-1
 86 0 l 1,14,-1
 17 0 l 1,15,-1
 291 745 l 1,0,-1
467 250 m 1,16,-1
 467 685 l 1,17,-1
 333 685 l 1,18,-1
 176 250 l 1,19,-1
 467 250 l 1,16,-1
EndSplineSet
Validated: 1048577
Position2: "'cpsp' Capital Spacing in Latin lookup 0 subtable" dx=5 dy=0 dh=10 dv=0
EndChar

StartChar: B
Encoding: 66 66 30
Width: 694
GlyphClass: 2
Flags: W
AnchorPoint: "Anchor-6" 348 745 basechar 0
AnchorPoint: "Anchor-4" 348 0 basechar 0
LayerCount: 2
Fore
SplineSet
94 745 m 1,0,-1
 401 745 l 2,1,2
 461 745 461 745 507 721.5 c 128,-1,3
 553 698 553 698 578.5 655.5 c 128,-1,4
 604 613 604 613 604 558 c 0,5,6
 604 506 604 506 579.5 464 c 128,-1,7
 555 422 555 422 511 399 c 1,8,9
 568 375 568 375 601 325 c 128,-1,10
 634 275 634 275 634 213 c 0,11,12
 634 115 634 115 572 57.5 c 128,-1,13
 510 0 510 0 401 0 c 2,14,-1
 94 0 l 1,15,-1
 94 745 l 1,0,-1
397 60 m 2,16,17
 476 60 476 60 522.5 101 c 128,-1,18
 569 142 569 142 569 212 c 0,19,20
 569 281 569 281 523.5 322.5 c 128,-1,21
 478 364 478 364 402 364 c 2,22,-1
 159 364 l 1,23,-1
 159 60 l 1,24,-1
 397 60 l 2,16,17
395 423 m 2,25,26
 460 423 460 423 499.5 460 c 128,-1,27
 539 497 539 497 539 557 c 256,28,29
 539 617 539 617 500.5 651 c 128,-1,30
 462 685 462 685 395 685 c 2,31,-1
 159 685 l 1,32,-1
 159 423 l 1,33,-1
 395 423 l 2,25,26
EndSplineSet
Validated: 1048577
Position2: "'cpsp' Capital Spacing in Latin lookup 0 subtable" dx=5 dy=0 dh=10 dv=0
EndChar

StartChar: C
Encoding: 67 67 31
Width: 785
GlyphClass: 2
Flags: W
AnchorPoint: "Anchor-6" 393 745 basechar 0
AnchorPoint: "Anchor-4" 393 0 basechar 0
LayerCount: 2
Fore
SplineSet
245.5 37.5 m 128,-1,1
 164 87 164 87 118 175 c 128,-1,2
 72 263 72 263 72 373 c 256,3,4
 72 483 72 483 118 570.5 c 128,-1,5
 164 658 164 658 245.5 707.5 c 128,-1,6
 327 757 327 757 429 757 c 0,7,8
 500 757 500 757 560.5 730.5 c 128,-1,9
 621 704 621 704 663 662 c 128,-1,10
 705 620 705 620 724 574 c 1,11,-1
 663 547 l 1,12,13
 632 616 632 616 571 656 c 128,-1,14
 510 696 510 696 429 696 c 0,15,16
 344 696 344 696 277.5 655.5 c 128,-1,17
 211 615 211 615 174 541.5 c 128,-1,18
 137 468 137 468 137 373 c 256,19,20
 137 278 137 278 174 204.5 c 128,-1,21
 211 131 211 131 277.5 90.5 c 128,-1,22
 344 50 344 50 429 50 c 0,23,24
 510 50 510 50 571 89.5 c 128,-1,25
 632 129 632 129 663 198 c 1,26,-1
 724 171 l 1,27,28
 705 125 705 125 663 83 c 128,-1,29
 621 41 621 41 560.5 14.5 c 128,-1,30
 500 -12 500 -12 429 -12 c 0,31,0
 327 -12 327 -12 245.5 37.5 c 128,-1,1
EndSplineSet
Validated: 1048577
Position2: "'cpsp' Capital Spacing in Latin lookup 0 subtable" dx=5 dy=0 dh=10 dv=0
EndChar

StartChar: Ccedilla
Encoding: 199 199 34
Width: 785
GlyphClass: 2
Flags: W
AnchorPoint: "Anchor-4" 393 0 basechar 0
LayerCount: 2
Fore
SplineSet
413 -12 m 1,0,-1
 408 -65 l 1,1,2
 424 -61 424 -61 434 -61 c 0,3,4
 467 -61 467 -61 488 -81 c 128,-1,5
 509 -101 509 -101 509 -132 c 0,6,7
 509 -168 509 -168 482.5 -191.5 c 128,-1,8
 456 -215 456 -215 413 -215 c 0,9,10
 394 -215 394 -215 373.5 -210.5 c 128,-1,11
 353 -206 353 -206 339 -199 c 1,12,-1
 352 -163 l 1,13,14
 382 -175 382 -175 411 -175 c 0,15,16
 435 -175 435 -175 448 -164 c 128,-1,17
 461 -153 461 -153 461 -134 c 0,18,19
 461 -118 461 -118 451 -108.5 c 128,-1,20
 441 -99 441 -99 423 -99 c 0,21,22
 403 -99 403 -99 381 -111 c 1,23,-1
 361 -103 l 1,24,-1
 371 -8 l 1,25,26
 284 6 284 6 216 58 c 128,-1,27
 148 110 148 110 110 191.5 c 128,-1,28
 72 273 72 273 72 373 c 0,29,30
 72 483 72 483 118 570.5 c 128,-1,31
 164 658 164 658 245.5 707.5 c 128,-1,32
 327 757 327 757 429 757 c 0,33,34
 500 757 500 757 560.5 730.5 c 128,-1,35
 621 704 621 704 663 662 c 128,-1,36
 705 620 705 620 724 574 c 1,37,-1
 663 547 l 1,38,39
 632 616 632 616 571 656 c 128,-1,40
 510 696 510 696 429 696 c 0,41,42
 344 696 344 696 277.5 655.5 c 128,-1,43
 211 615 211 615 174 541.5 c 128,-1,44
 137 468 137 468 137 373 c 256,45,46
 137 278 137 278 174 204.5 c 128,-1,47
 211 131 211 131 277.5 90.5 c 128,-1,48
 344 50 344 50 429 50 c 0,49,50
 510 50 510 50 571 89.5 c 128,-1,51
 632 129 632 129 663 198 c 1,52,-1
 724 171 l 1,53,54
 705 125 705 125 663 83 c 128,-1,55
 621 41 621 41 560.5 14.5 c 128,-1,56
 500 -12 500 -12 429 -12 c 2,57,-1
 413 -12 l 1,0,-1
EndSplineSet
Validated: 1048577
Position2: "'cpsp' Capital Spacing in Latin lookup 0 subtable" dx=5 dy=0 dh=10 dv=0
EndChar

StartChar: uni1E08
Encoding: 7688 7688 35
Width: 785
GlyphClass: 2
Flags: W
AnchorPoint: "Anchor-4" 393 0 basechar 0
LayerCount: 2
Fore
SplineSet
413 -12 m 1,0,-1
 408 -65 l 1,1,2
 424 -61 424 -61 434 -61 c 0,3,4
 467 -61 467 -61 488 -81 c 128,-1,5
 509 -101 509 -101 509 -132 c 0,6,7
 509 -168 509 -168 482.5 -191.5 c 128,-1,8
 456 -215 456 -215 413 -215 c 0,9,10
 394 -215 394 -215 373.5 -210.5 c 128,-1,11
 353 -206 353 -206 339 -199 c 1,12,-1
 352 -163 l 1,13,14
 382 -175 382 -175 411 -175 c 0,15,16
 435 -175 435 -175 448 -164 c 128,-1,17
 461 -153 461 -153 461 -134 c 0,18,19
 461 -118 461 -118 451 -108.5 c 128,-1,20
 441 -99 441 -99 423 -99 c 0,21,22
 403 -99 403 -99 381 -111 c 1,23,-1
 361 -103 l 1,24,-1
 371 -8 l 1,25,26
 284 6 284 6 216 58 c 128,-1,27
 148 110 148 110 110 191.5 c 128,-1,28
 72 273 72 273 72 373 c 0,29,30
 72 483 72 483 118 570.5 c 128,-1,31
 164 658 164 658 245.5 707.5 c 128,-1,32
 327 757 327 757 429 757 c 0,33,34
 500 757 500 757 560.5 730.5 c 128,-1,35
 621 704 621 704 663 662 c 128,-1,36
 705 620 705 620 724 574 c 1,37,-1
 663 547 l 1,38,39
 632 616 632 616 571 656 c 128,-1,40
 510 696 510 696 429 696 c 0,41,42
 344 696 344 696 277.5 655.5 c 128,-1,43
 211 615 211 615 174 541.5 c 128,-1,44
 137 468 137 468 137 373 c 256,45,46
 137 278 137 278 174 204.5 c 128,-1,47
 211 131 211 131 277.5 90.5 c 128,-1,48
 344 50 344 50 429 50 c 0,49,50
 510 50 510 50 571 89.5 c 128,-1,51
 632 129 632 129 663 198 c 1,52,-1
 724 171 l 1,53,54
 705 125 705 125 663 83 c 128,-1,55
 621 41 621 41 560.5 14.5 c 128,-1,56
 500 -12 500 -12 429 -12 c 2,57,-1
 413 -12 l 1,0,-1
445 998 m 1,58,-1
 509 998 l 1,59,-1
 418 854 l 1,60,-1
 367 854 l 1,61,-1
 445 998 l 1,58,-1
EndSplineSet
Validated: 1048577
Position2: "'cpsp' Capital Spacing in Latin lookup 0 subtable" dx=5 dy=0 dh=10 dv=0
EndChar

StartChar: D
Encoding: 68 68 38
Width: 743
GlyphClass: 2
Flags: W
AnchorPoint: "Anchor-6" 383 745 basechar 0
AnchorPoint: "Anchor-4" 383 0 basechar 0
LayerCount: 2
Fore
SplineSet
94 745 m 1,0,-1
 335 745 l 2,1,2
 443 745 443 745 524.5 699.5 c 128,-1,3
 606 654 606 654 650 570 c 128,-1,4
 694 486 694 486 694 373 c 0,5,6
 694 261 694 261 649.5 176.5 c 128,-1,7
 605 92 605 92 524 46 c 128,-1,8
 443 0 443 0 335 0 c 2,9,-1
 94 0 l 1,10,-1
 94 745 l 1,0,-1
334 60 m 2,11,12
 422 60 422 60 488 99 c 128,-1,13
 554 138 554 138 590.5 208.5 c 128,-1,14
 627 279 627 279 627 373 c 0,15,16
 627 466 627 466 590.5 537 c 128,-1,17
 554 608 554 608 487.5 646.5 c 128,-1,18
 421 685 421 685 334 685 c 2,19,-1
 159 685 l 1,20,-1
 159 60 l 1,21,-1
 334 60 l 2,11,12
EndSplineSet
Validated: 1048577
Position2: "'cpsp' Capital Spacing in Latin lookup 0 subtable" dx=5 dy=0 dh=10 dv=0
EndChar

StartChar: uni01C4
Encoding: 452 452 39
Width: 1338
GlyphClass: 1
Flags: W
LayerCount: 2
Fore
SplineSet
94 745 m 1,0,-1
 335 745 l 2,1,2
 443 745 443 745 524.5 699.5 c 128,-1,3
 606 654 606 654 650 570 c 128,-1,4
 694 486 694 486 694 373 c 0,5,6
 694 261 694 261 649.5 176.5 c 128,-1,7
 605 92 605 92 524 46 c 128,-1,8
 443 0 443 0 335 0 c 2,9,-1
 94 0 l 1,10,-1
 94 745 l 1,0,-1
334 60 m 2,11,12
 422 60 422 60 488 99 c 128,-1,13
 554 138 554 138 590.5 208.5 c 128,-1,14
 627 279 627 279 627 373 c 0,15,16
 627 466 627 466 590.5 537 c 128,-1,17
 554 608 554 608 487.5 646.5 c 128,-1,18
 421 685 421 685 334 685 c 2,19,-1
 159 685 l 1,20,-1
 159 60 l 1,21,-1
 334 60 l 2,11,12
771 42 m 1,22,-1
 1215 685 l 1,23,-1
 797 685 l 1,24,-1
 797 745 l 1,25,-1
 1301 745 l 1,26,-1
 1301 703 l 1,27,-1
 858 60 l 1,28,-1
 1311 60 l 1,29,-1
 1311 0 l 1,30,-1
 771 0 l 1,31,-1
 771 42 l 1,22,-1
950 998 m 1,32,-1
 1040 892 l 1,33,-1
 1131 998 l 1,34,-1
 1188 998 l 1,35,-1
 1068 854 l 1,36,-1
 1011 854 l 1,37,-1
 893 998 l 1,38,-1
 950 998 l 1,32,-1
EndSplineSet
Validated: 1
Position2: "'cpsp' Capital Spacing in Latin lookup 0 subtable" dx=5 dy=0 dh=10 dv=0
EndChar

StartChar: Eth
Encoding: 208 208 40
Width: 743
GlyphClass: 2
Flags: W
AnchorPoint: "Anchor-6" 383 745 basechar 0
AnchorPoint: "Anchor-4" 383 0 basechar 0
LayerCount: 2
Fore
SplineSet
94 345 m 1,0,-1
 8 345 l 1,1,-1
 8 400 l 1,2,-1
 94 400 l 1,3,-1
 94 745 l 1,4,-1
 335 745 l 2,5,6
 443 745 443 745 524.5 699.5 c 128,-1,7
 606 654 606 654 650 570 c 128,-1,8
 694 486 694 486 694 373 c 0,9,10
 694 261 694 261 649.5 176.5 c 128,-1,11
 605 92 605 92 524 46 c 128,-1,12
 443 0 443 0 335 0 c 2,13,-1
 94 0 l 1,14,-1
 94 345 l 1,0,-1
334 60 m 2,15,16
 422 60 422 60 488 99 c 128,-1,17
 554 138 554 138 590.5 208.5 c 128,-1,18
 627 279 627 279 627 373 c 0,19,20
 627 466 627 466 590.5 537 c 128,-1,21
 554 608 554 608 487.5 646.5 c 128,-1,22
 421 685 421 685 334 685 c 2,23,-1
 159 685 l 1,24,-1
 159 400 l 1,25,-1
 343 400 l 1,26,-1
 343 345 l 1,27,-1
 159 345 l 1,28,-1
 159 60 l 1,29,-1
 334 60 l 2,15,16
EndSplineSet
Validated: 1048577
Position2: "'cpsp' Capital Spacing in Latin lookup 0 subtable" dx=5 dy=0 dh=10 dv=0
EndChar

StartChar: uni01C5
Encoding: 453 453 45
Width: 1185
GlyphClass: 1
Flags: W
LayerCount: 2
Fore
SplineSet
94 745 m 1,0,-1
 335 745 l 2,1,2
 443 745 443 745 524.5 699.5 c 128,-1,3
 606 654 606 654 650 570 c 128,-1,4
 694 486 694 486 694 373 c 0,5,6
 694 261 694 261 649.5 176.5 c 128,-1,7
 605 92 605 92 524 46 c 128,-1,8
 443 0 443 0 335 0 c 2,9,-1
 94 0 l 1,10,-1
 94 745 l 1,0,-1
334 60 m 2,11,12
 422 60 422 60 488 99 c 128,-1,13
 554 138 554 138 590.5 208.5 c 128,-1,14
 627 279 627 279 627 373 c 0,15,16
 627 466 627 466 590.5 537 c 128,-1,17
 554 608 554 608 487.5 646.5 c 128,-1,18
 421 685 421 685 334 685 c 2,19,-1
 159 685 l 1,20,-1
 159 60 l 1,21,-1
 334 60 l 2,11,12
771 48 m 1,22,-1
 1080 474 l 1,23,-1
 789 474 l 1,24,-1
 789 531 l 1,25,-1
 1161 531 l 1,26,-1
 1161 484 l 1,27,-1
 853 58 l 1,28,-1
 1163 58 l 1,29,-1
 1163 0 l 1,30,-1
 771 0 l 1,31,-1
 771 48 l 1,22,-1
871 784 m 1,32,-1
 961 678 l 1,33,-1
 1052 784 l 1,34,-1
 1109 784 l 1,35,-1
 989 640 l 1,36,-1
 932 640 l 1,37,-1
 814 784 l 1,38,-1
 871 784 l 1,32,-1
EndSplineSet
Validated: 1
Position2: "'cpsp' Capital Spacing in Latin lookup 0 subtable" dx=5 dy=0 dh=10 dv=0
EndChar

StartChar: E
Encoding: 69 69 46
Width: 613
GlyphClass: 2
Flags: W
AnchorPoint: "Anchor-6" 329 745 basechar 0
AnchorPoint: "Anchor-5" 529 30 basechar 0
AnchorPoint: "Anchor-4" 329 0 basechar 0
LayerCount: 2
Fore
SplineSet
94 745 m 1,0,-1
 564 745 l 1,1,-1
 564 685 l 1,2,-1
 159 685 l 1,3,-1
 159 404 l 1,4,-1
 544 404 l 1,5,-1
 544 344 l 1,6,-1
 159 344 l 1,7,-1
 159 60 l 1,8,-1
 564 60 l 1,9,-1
 564 0 l 1,10,-1
 94 0 l 1,11,-1
 94 745 l 1,0,-1
EndSplineSet
Validated: 1048577
Position2: "'cpsp' Capital Spacing in Latin lookup 0 subtable" dx=5 dy=0 dh=10 dv=0
EndChar

StartChar: Eogonek
Encoding: 280 280 67
Width: 613
GlyphClass: 2
Flags: W
AnchorPoint: "Anchor-6" 329 745 basechar 0
AnchorPoint: "Anchor-5" 529 30 basechar 0
AnchorPoint: "Anchor-4" 329 0 basechar 0
LayerCount: 2
Fore
SplineSet
94 745 m 1,0,-1
 564 745 l 1,1,-1
 564 685 l 1,2,-1
 159 685 l 1,3,-1
 159 404 l 1,4,-1
 544 404 l 1,5,-1
 544 344 l 1,6,-1
 159 344 l 1,7,-1
 159 60 l 1,8,-1
 564 60 l 1,9,-1
 564 0 l 1,10,-1
 512 0 l 1,11,12
 460 -34 460 -34 460 -77 c 0,13,14
 460 -99 460 -99 474 -111.5 c 128,-1,15
 488 -124 488 -124 511 -124 c 0,16,17
 541 -124 541 -124 578 -98 c 1,18,-1
 600 -132 l 1,19,20
 559 -167 559 -167 507 -167 c 0,21,22
 466 -167 466 -167 439.5 -145 c 128,-1,23
 413 -123 413 -123 413 -87 c 0,24,25
 413 -63 413 -63 425 -40.5 c 128,-1,26
 437 -18 437 -18 460 0 c 1,27,-1
 94 0 l 1,28,-1
 94 745 l 1,0,-1
EndSplineSet
Validated: 1048577
Position2: "'cpsp' Capital Spacing in Latin lookup 0 subtable" dx=5 dy=0 dh=10 dv=0
EndChar

StartChar: F
Encoding: 70 70 69
Width: 587
GlyphClass: 2
Flags: W
AnchorPoint: "Anchor-6" 294 745 basechar 0
AnchorPoint: "Anchor-4" 294 0 basechar 0
LayerCount: 2
Fore
SplineSet
94 745 m 1,0,-1
 549 745 l 1,1,-1
 549 685 l 1,2,-1
 159 685 l 1,3,-1
 159 404 l 1,4,-1
 514 404 l 1,5,-1
 514 344 l 1,6,-1
 159 344 l 1,7,-1
 159 0 l 1,8,-1
 94 0 l 1,9,-1
 94 745 l 1,0,-1
EndSplineSet
Validated: 1048577
Position2: "'cpsp' Capital Spacing in Latin lookup 0 subtable" dx=5 dy=0 dh=10 dv=0
EndChar

StartChar: G
Encoding: 71 71 70
Width: 828
GlyphClass: 2
Flags: W
AnchorPoint: "Anchor-6" 414 745 basechar 0
AnchorPoint: "Anchor-4" 414 0 basechar 0
LayerCount: 2
Fore
SplineSet
246 37.5 m 128,-1,1
 164 87 164 87 118 174.5 c 128,-1,2
 72 262 72 262 72 372 c 256,3,4
 72 482 72 482 118.5 570 c 128,-1,5
 165 658 165 658 246.5 707.5 c 128,-1,6
 328 757 328 757 431 757 c 0,7,8
 504 757 504 757 565 731 c 128,-1,9
 626 705 626 705 668.5 663 c 128,-1,10
 711 621 711 621 730 574 c 1,11,-1
 670 546 l 1,12,13
 639 616 639 616 577.5 656 c 128,-1,14
 516 696 516 696 431 696 c 256,15,16
 346 696 346 696 279 655 c 128,-1,17
 212 614 212 614 174.5 540.5 c 128,-1,18
 137 467 137 467 137 372 c 256,19,20
 137 277 137 277 174.5 204 c 128,-1,21
 212 131 212 131 279 90.5 c 128,-1,22
 346 50 346 50 431 50 c 0,23,24
 508 50 508 50 569.5 84.5 c 128,-1,25
 631 119 631 119 666.5 179.5 c 128,-1,26
 702 240 702 240 702 315 c 2,27,-1
 702 319 l 1,28,-1
 431 319 l 1,29,-1
 431 377 l 1,30,-1
 767 377 l 1,31,-1
 767 321 l 2,32,33
 767 229 767 229 723 152.5 c 128,-1,34
 679 76 679 76 602.5 32 c 128,-1,35
 526 -12 526 -12 431 -12 c 0,36,0
 328 -12 328 -12 246 37.5 c 128,-1,1
EndSplineSet
Validated: 1048577
Substitution2: "'ss03' Style Set 3 in Latin lookup 22 subtable" G.ss03
Substitution2: "'ss01' Style Set 1 in Latin lookup 20 subtable" G.ss01
Substitution2: "'salt' Stylistic Alternatives in Latin lookup 19 subtable" G.ss01
AlternateSubs2: "'aalt' Access All Alternates in Latin lookup 1 subtable" G.ss01 G.ss03
Position2: "'cpsp' Capital Spacing in Latin lookup 0 subtable" dx=5 dy=0 dh=10 dv=0
EndChar

StartChar: G.ss01
Encoding: 65537 -1 71
Width: 796
GlyphClass: 2
Flags: W
AnchorPoint: "Anchor-6" 418 745 basechar 0
AnchorPoint: "Anchor-4" 398 0 basechar 0
LayerCount: 2
Fore
SplineSet
233 37.5 m 128,-1,1
 151 87 151 87 105 174.5 c 128,-1,2
 59 262 59 262 59 372 c 256,3,4
 59 482 59 482 105.5 570 c 128,-1,5
 152 658 152 658 233.5 707.5 c 128,-1,6
 315 757 315 757 418 757 c 0,7,8
 491 757 491 757 552 731 c 128,-1,9
 613 705 613 705 655.5 663 c 128,-1,10
 698 621 698 621 717 574 c 1,11,-1
 657 546 l 1,12,13
 626 616 626 616 564.5 656 c 128,-1,14
 503 696 503 696 418 696 c 256,15,16
 333 696 333 696 266 655 c 128,-1,17
 199 614 199 614 161.5 540.5 c 128,-1,18
 124 467 124 467 124 372 c 256,19,20
 124 277 124 277 161.5 204 c 128,-1,21
 199 131 199 131 266 90.5 c 128,-1,22
 333 50 333 50 418 50 c 0,23,24
 493 50 493 50 554 84.5 c 128,-1,25
 615 119 615 119 649.5 179.5 c 128,-1,26
 684 240 684 240 684 315 c 2,27,-1
 684 319 l 1,28,-1
 418 319 l 1,29,-1
 418 377 l 1,30,-1
 744 377 l 1,31,-1
 744 0 l 1,32,-1
 684 0 l 1,33,-1
 684 133 l 1,34,35
 643 66 643 66 573 27 c 128,-1,36
 503 -12 503 -12 418 -12 c 0,37,0
 315 -12 315 -12 233 37.5 c 128,-1,1
EndSplineSet
Validated: 1048577
Position2: "'cpsp' Capital Spacing in Latin lookup 0 subtable" dx=5 dy=0 dh=10 dv=0
EndChar

StartChar: G.ss03
Encoding: 65538 -1 72
Width: 793
GlyphClass: 2
Flags: W
AnchorPoint: "Anchor-6" 430 745 basechar 0
AnchorPoint: "Anchor-4" 397 0 basechar 0
LayerCount: 2
Fore
SplineSet
250.5 37 m 128,-1,1
 167 86 167 86 119.5 173.5 c 128,-1,2
 72 261 72 261 72 373 c 0,3,4
 72 484 72 484 118.5 571.5 c 128,-1,5
 165 659 165 659 247 708 c 128,-1,6
 329 757 329 757 430 757 c 0,7,8
 503 757 503 757 564.5 731 c 128,-1,9
 626 705 626 705 668.5 663 c 128,-1,10
 711 621 711 621 730 574 c 1,11,-1
 670 546 l 1,12,13
 639 616 639 616 577.5 656 c 128,-1,14
 516 696 516 696 431 696 c 256,15,16
 346 696 346 696 279 655 c 128,-1,17
 212 614 212 614 174.5 540.5 c 128,-1,18
 137 467 137 467 137 372 c 0,19,20
 137 276 137 276 176.5 202.5 c 128,-1,21
 216 129 216 129 284.5 89.5 c 128,-1,22
 353 50 353 50 439 50 c 0,23,24
 524 50 524 50 592 88 c 128,-1,25
 660 126 660 126 695 191 c 1,26,-1
 695 319 l 1,27,-1
 431 319 l 1,28,-1
 431 377 l 1,29,-1
 757 377 l 1,30,-1
 757 171 l 1,31,32
 715 87 715 87 630 37.5 c 128,-1,33
 545 -12 545 -12 439 -12 c 0,34,0
 334 -12 334 -12 250.5 37 c 128,-1,1
EndSplineSet
Validated: 1048577
Position2: "'cpsp' Capital Spacing in Latin lookup 0 subtable" dx=5 dy=0 dh=10 dv=0
EndChar

StartChar: H
Encoding: 72 72 91
Width: 737
GlyphClass: 2
Flags: W
AnchorPoint: "Anchor-6" 369 745 basechar 0
AnchorPoint: "Anchor-4" 369 0 basechar 0
LayerCount: 2
Fore
SplineSet
94 745 m 1,0,-1
 159 745 l 1,1,-1
 159 406 l 1,2,-1
 579 406 l 1,3,-1
 579 745 l 1,4,-1
 644 745 l 1,5,-1
 644 0 l 1,6,-1
 579 0 l 1,7,-1
 579 346 l 1,8,-1
 159 346 l 1,9,-1
 159 0 l 1,10,-1
 94 0 l 1,11,-1
 94 745 l 1,0,-1
EndSplineSet
Validated: 1048577
Position2: "'cpsp' Capital Spacing in Latin lookup 0 subtable" dx=5 dy=0 dh=10 dv=0
EndChar

StartChar: Hbar
Encoding: 294 294 92
Width: 737
GlyphClass: 2
Flags: W
AnchorPoint: "Anchor-6" 369 745 basechar 0
AnchorPoint: "Anchor-4" 369 0 basechar 0
LayerCount: 2
Fore
SplineSet
94 568 m 1,0,-1
 21 568 l 1,1,-1
 21 623 l 1,2,-1
 94 623 l 1,3,-1
 94 745 l 1,4,-1
 159 745 l 1,5,-1
 159 623 l 1,6,-1
 579 623 l 1,7,-1
 579 745 l 1,8,-1
 644 745 l 1,9,-1
 644 623 l 1,10,-1
 716 623 l 1,11,-1
 716 568 l 1,12,-1
 644 568 l 1,13,-1
 644 0 l 1,14,-1
 579 0 l 1,15,-1
 579 346 l 1,16,-1
 159 346 l 1,17,-1
 159 0 l 1,18,-1
 94 0 l 1,19,-1
 94 568 l 1,0,-1
579 406 m 1,20,-1
 579 568 l 1,21,-1
 159 568 l 1,22,-1
 159 406 l 1,23,-1
 579 406 l 1,20,-1
EndSplineSet
Validated: 1048577
Position2: "'cpsp' Capital Spacing in Latin lookup 0 subtable" dx=5 dy=0 dh=10 dv=0
EndChar

StartChar: I
Encoding: 73 73 96
Width: 252
GlyphClass: 2
Flags: W
AnchorPoint: "Anchor-6" 126 745 basechar 0
AnchorPoint: "Anchor-5" 126 30 basechar 0
AnchorPoint: "Anchor-4" 126 0 basechar 0
LayerCount: 2
Fore
SplineSet
94 745 m 1,0,-1
 159 745 l 1,1,-1
 159 0 l 1,2,-1
 94 0 l 1,3,-1
 94 745 l 1,0,-1
EndSplineSet
Validated: 1048577
Substitution2: "'ss01' Style Set 1 in Latin lookup 20 subtable" I.ss01
Substitution2: "'salt' Stylistic Alternatives in Latin lookup 19 subtable" I.ss01
Substitution2: "'aalt' Access All Alternates in Latin lookup 0 subtable" I.ss01
Position2: "'cpsp' Capital Spacing in Latin lookup 0 subtable" dx=5 dy=0 dh=10 dv=0
EndChar

StartChar: I.ss01
Encoding: 65551 -1 97
Width: 364
GlyphClass: 2
Flags: W
AnchorPoint: "Anchor-6" 182 745 basechar 0
AnchorPoint: "Anchor-5" 182 30 basechar 0
AnchorPoint: "Anchor-4" 182 0 basechar 0
LayerCount: 2
Fore
SplineSet
50 58 m 1,0,-1
 150 58 l 1,1,-1
 150 688 l 1,2,-1
 50 688 l 1,3,-1
 50 745 l 1,4,-1
 315 745 l 1,5,-1
 315 688 l 1,6,-1
 215 688 l 1,7,-1
 215 58 l 1,8,-1
 315 58 l 1,9,-1
 315 0 l 1,10,-1
 50 0 l 1,11,-1
 50 58 l 1,0,-1
EndSplineSet
Validated: 1048577
Position2: "'cpsp' Capital Spacing in Latin lookup 0 subtable" dx=5 dy=0 dh=10 dv=0
EndChar

StartChar: Iogonek
Encoding: 302 302 122
Width: 252
GlyphClass: 2
Flags: W
AnchorPoint: "Anchor-6" 126 745 basechar 0
AnchorPoint: "Anchor-5" 126 30 basechar 0
AnchorPoint: "Anchor-4" 126 0 basechar 0
LayerCount: 2
Fore
SplineSet
36.5 -145 m 128,-1,1
 10 -123 10 -123 10 -87 c 0,2,3
 10 -54 10 -54 31.5 -25.5 c 128,-1,4
 53 3 53 3 94 23 c 1,5,-1
 94 745 l 1,6,-1
 159 745 l 1,7,-1
 159 0 l 1,8,-1
 109 0 l 1,9,10
 57 -34 57 -34 57 -77 c 0,11,12
 57 -99 57 -99 71 -111.5 c 128,-1,13
 85 -124 85 -124 108 -124 c 0,14,15
 138 -124 138 -124 175 -98 c 1,16,-1
 197 -132 l 1,17,18
 156 -167 156 -167 104 -167 c 0,19,0
 63 -167 63 -167 36.5 -145 c 128,-1,1
EndSplineSet
Validated: 1048577
Substitution2: "'ss01' Style Set 1 in Latin lookup 20 subtable" Iogonek.ss01
Substitution2: "'salt' Stylistic Alternatives in Latin lookup 19 subtable" Iogonek.ss01
Substitution2: "'aalt' Access All Alternates in Latin lookup 0 subtable" Iogonek.ss01
Position2: "'cpsp' Capital Spacing in Latin lookup 0 subtable" dx=5 dy=0 dh=10 dv=0
EndChar

StartChar: Iogonek.ss01
Encoding: 65564 -1 123
Width: 364
GlyphClass: 2
Flags: W
AnchorPoint: "Anchor-6" 182 745 basechar 0
AnchorPoint: "Anchor-5" 182 30 basechar 0
AnchorPoint: "Anchor-4" 182 0 basechar 0
LayerCount: 2
Fore
SplineSet
50 58 m 1,0,-1
 150 58 l 1,1,-1
 150 688 l 1,2,-1
 50 688 l 1,3,-1
 50 745 l 1,4,-1
 315 745 l 1,5,-1
 315 688 l 1,6,-1
 215 688 l 1,7,-1
 215 58 l 1,8,-1
 315 58 l 1,9,-1
 315 0 l 1,10,-1
 165 0 l 1,11,12
 113 -34 113 -34 113 -77 c 0,13,14
 113 -99 113 -99 127 -111.5 c 128,-1,15
 141 -124 141 -124 164 -124 c 0,16,17
 194 -124 194 -124 231 -98 c 1,18,-1
 253 -132 l 1,19,20
 212 -167 212 -167 160 -167 c 0,21,22
 119 -167 119 -167 92.5 -145 c 128,-1,23
 66 -123 66 -123 66 -87 c 0,24,25
 66 -63 66 -63 78 -40.5 c 128,-1,26
 90 -18 90 -18 113 0 c 1,27,-1
 50 0 l 1,28,-1
 50 58 l 1,0,-1
EndSplineSet
Validated: 1048577
Position2: "'cpsp' Capital Spacing in Latin lookup 0 subtable" dx=5 dy=0 dh=10 dv=0
EndChar

StartChar: J
Encoding: 74 74 126
Width: 382
GlyphClass: 2
Flags: W
AnchorPoint: "Anchor-6" 256 745 basechar 0
AnchorPoint: "Anchor-4" 203 0 basechar 0
LayerCount: 2
Fore
SplineSet
61 65 m 1,0,-1
 100 65 l 2,1,2
 158 65 158 65 191 100.5 c 128,-1,3
 224 136 224 136 224 200 c 2,4,-1
 224 745 l 1,5,-1
 289 745 l 1,6,-1
 289 198 l 2,7,8
 289 107 289 107 238 53.5 c 128,-1,9
 187 0 187 0 100 0 c 2,10,-1
 61 0 l 1,11,-1
 61 65 l 1,0,-1
EndSplineSet
Validated: 1048577
Substitution2: "'ss03' Style Set 3 in Latin lookup 22 subtable" J.ss03
Substitution2: "'aalt' Access All Alternates in Latin lookup 0 subtable" J.ss03
Position2: "'cpsp' Capital Spacing in Latin lookup 0 subtable" dx=5 dy=0 dh=10 dv=0
EndChar

StartChar: J.ss03
Encoding: 65566 -1 127
Width: 566
GlyphClass: 2
Flags: W
AnchorPoint: "Anchor-6" 440 745 basechar 0
AnchorPoint: "Anchor-4" 285 0 basechar 0
LayerCount: 2
Fore
SplineSet
125 34 m 128,-1,1
 66 80 66 80 45 157 c 1,2,-1
 105 176 l 1,3,4
 123 117 123 117 165.5 82.5 c 128,-1,5
 208 48 208 48 267 48 c 0,6,7
 329 48 329 48 368.5 87.5 c 128,-1,8
 408 127 408 127 408 190 c 2,9,-1
 408 745 l 1,10,-1
 473 745 l 1,11,-1
 473 190 l 2,12,13
 473 131 473 131 447 85 c 128,-1,14
 421 39 421 39 374 13.5 c 128,-1,15
 327 -12 327 -12 267 -12 c 0,16,0
 184 -12 184 -12 125 34 c 128,-1,1
EndSplineSet
Validated: 1048577
Position2: "'cpsp' Capital Spacing in Latin lookup 0 subtable" dx=5 dy=0 dh=10 dv=0
EndChar

StartChar: K
Encoding: 75 75 130
Width: 653
GlyphClass: 2
Flags: W
AnchorPoint: "Anchor-6" 327 745 basechar 0
AnchorPoint: "Anchor-4" 327 0 basechar 0
LayerCount: 2
Fore
SplineSet
94 745 m 1,0,-1
 159 745 l 1,1,-1
 159 328 l 1,2,-1
 532 745 l 1,3,-1
 616 745 l 1,4,-1
 334 428 l 1,5,-1
 636 0 l 1,6,-1
 557 0 l 1,7,-1
 288 379 l 1,8,-1
 159 233 l 1,9,-1
 159 0 l 1,10,-1
 94 0 l 1,11,-1
 94 745 l 1,0,-1
EndSplineSet
Validated: 1048577
Substitution2: "'ss03' Style Set 3 in Latin lookup 22 subtable" K.ss03
Substitution2: "'ss01' Style Set 1 in Latin lookup 20 subtable" K.ss01
Substitution2: "'salt' Stylistic Alternatives in Latin lookup 19 subtable" K.ss01
AlternateSubs2: "'aalt' Access All Alternates in Latin lookup 1 subtable" K.ss01 K.ss03
Position2: "'cpsp' Capital Spacing in Latin lookup 0 subtable" dx=5 dy=0 dh=10 dv=0
EndChar

StartChar: K.ss01
Encoding: 65568 -1 131
Width: 651
GlyphClass: 2
Flags: W
AnchorPoint: "Anchor-6" 326 745 basechar 0
AnchorPoint: "Anchor-4" 326 0 basechar 0
LayerCount: 2
Fore
SplineSet
295 343 m 1,0,-1
 151 343 l 1,1,-1
 151 0 l 1,2,-1
 86 0 l 1,3,-1
 86 745 l 1,4,-1
 151 745 l 1,5,-1
 151 403 l 1,6,-1
 297 403 l 1,7,-1
 516 745 l 1,8,-1
 594 745 l 1,9,-1
 355 374 l 1,10,-1
 631 0 l 1,11,-1
 553 0 l 1,12,-1
 295 343 l 1,0,-1
EndSplineSet
Validated: 1048577
Position2: "'cpsp' Capital Spacing in Latin lookup 0 subtable" dx=5 dy=0 dh=10 dv=0
EndChar

StartChar: K.ss03
Encoding: 65569 -1 132
Width: 685
GlyphClass: 2
Flags: W
AnchorPoint: "Anchor-6" 343 745 basechar 0
AnchorPoint: "Anchor-4" 343 0 basechar 0
LayerCount: 2
Fore
SplineSet
588 3.5 m 128,-1,1
 562 13 562 13 534.5 41.5 c 128,-1,2
 507 70 507 70 464 131 c 2,3,-1
 289 379 l 1,4,-1
 159 233 l 1,5,-1
 159 0 l 1,6,-1
 94 0 l 1,7,-1
 94 745 l 1,8,-1
 159 745 l 1,9,-1
 159 328 l 1,10,-1
 532 745 l 1,11,-1
 616 745 l 1,12,-1
 334 428 l 1,13,-1
 542 134 l 2,14,15
 566 100 566 100 580 84 c 128,-1,16
 594 68 594 68 611.5 60 c 128,-1,17
 629 52 629 52 655 52 c 2,18,-1
 669 52 l 1,19,-1
 669 -6 l 1,20,-1
 655 -6 l 2,21,0
 614 -6 614 -6 588 3.5 c 128,-1,1
EndSplineSet
Validated: 1048577
Position2: "'cpsp' Capital Spacing in Latin lookup 0 subtable" dx=5 dy=0 dh=10 dv=0
EndChar

StartChar: L
Encoding: 76 76 136
Width: 532
GlyphClass: 2
Flags: W
AnchorPoint: "Anchor-7" 376 492 basechar 0
AnchorPoint: "Anchor-6" 126 745 basechar 0
AnchorPoint: "Anchor-4" 294 0 basechar 0
LayerCount: 2
Fore
SplineSet
94 745 m 1,0,-1
 159 745 l 1,1,-1
 159 60 l 1,2,-1
 494 60 l 1,3,-1
 494 0 l 1,4,-1
 94 0 l 1,5,-1
 94 745 l 1,0,-1
EndSplineSet
Validated: 1048577
Position2: "'cpsp' Capital Spacing in Latin lookup 0 subtable" dx=5 dy=0 dh=10 dv=0
EndChar

StartChar: Ldot
Encoding: 319 319 141
Width: 532
GlyphClass: 2
Flags: W
AnchorPoint: "Anchor-7" 376 492 basechar 0
AnchorPoint: "Anchor-6" 126 745 basechar 0
AnchorPoint: "Anchor-4" 294 0 basechar 0
LayerCount: 2
Fore
SplineSet
94 745 m 1,0,-1
 159 745 l 1,1,-1
 159 60 l 1,2,-1
 494 60 l 1,3,-1
 494 0 l 1,4,-1
 94 0 l 1,5,-1
 94 745 l 1,0,-1
292.5 408 m 128,-1,7
 307 422 307 422 327 422 c 256,8,9
 347 422 347 422 361 408 c 128,-1,10
 375 394 375 394 375 373 c 256,11,12
 375 352 375 352 361 338 c 128,-1,13
 347 324 347 324 327 324 c 256,14,15
 307 324 307 324 292.5 338 c 128,-1,16
 278 352 278 352 278 373 c 256,17,6
 278 394 278 394 292.5 408 c 128,-1,7
EndSplineSet
Validated: 1048577
Position2: "'cpsp' Capital Spacing in Latin lookup 0 subtable" dx=5 dy=0 dh=10 dv=0
EndChar

StartChar: Lslash
Encoding: 321 321 145
Width: 532
GlyphClass: 2
Flags: W
AnchorPoint: "Anchor-7" 376 492 basechar 0
AnchorPoint: "Anchor-6" 126 745 basechar 0
AnchorPoint: "Anchor-4" 294 0 basechar 0
LayerCount: 2
Fore
SplineSet
94 333 m 1,0,-1
 -17 294 l 1,1,-1
 -17 353 l 1,2,-1
 94 392 l 1,3,-1
 94 745 l 1,4,-1
 159 745 l 1,5,-1
 159 415 l 1,6,-1
 268 453 l 1,7,-1
 268 394 l 1,8,-1
 159 356 l 1,9,-1
 159 60 l 1,10,-1
 494 60 l 1,11,-1
 494 0 l 1,12,-1
 94 0 l 1,13,-1
 94 333 l 1,0,-1
EndSplineSet
Validated: 1048577
Position2: "'cpsp' Capital Spacing in Latin lookup 0 subtable" dx=5 dy=0 dh=10 dv=0
EndChar

StartChar: M
Encoding: 77 77 146
Width: 827
GlyphClass: 2
Flags: W
AnchorPoint: "Anchor-6" 414 745 basechar 0
AnchorPoint: "Anchor-4" 414 0 basechar 0
LayerCount: 2
Fore
SplineSet
94 745 m 1,0,-1
 149 745 l 1,1,-1
 414 351 l 1,2,-1
 679 745 l 1,3,-1
 734 745 l 1,4,-1
 734 0 l 1,5,-1
 669 0 l 1,6,-1
 669 617 l 1,7,-1
 415 238 l 1,8,-1
 412 238 l 1,9,-1
 159 616 l 1,10,-1
 159 0 l 1,11,-1
 94 0 l 1,12,-1
 94 745 l 1,0,-1
EndSplineSet
Validated: 1048577
Position2: "'cpsp' Capital Spacing in Latin lookup 0 subtable" dx=5 dy=0 dh=10 dv=0
EndChar

StartChar: N
Encoding: 78 78 148
Width: 737
GlyphClass: 2
Flags: W
AnchorPoint: "Anchor-6" 369 745 basechar 0
AnchorPoint: "Anchor-4" 369 0 basechar 0
LayerCount: 2
Fore
SplineSet
94 745 m 1,0,-1
 149 745 l 1,1,-1
 579 128 l 1,2,-1
 579 745 l 1,3,-1
 644 745 l 1,4,-1
 644 0 l 1,5,-1
 589 0 l 1,6,-1
 159 618 l 1,7,-1
 159 0 l 1,8,-1
 94 0 l 1,9,-1
 94 745 l 1,0,-1
EndSplineSet
Validated: 1048577
Position2: "'cpsp' Capital Spacing in Latin lookup 0 subtable" dx=5 dy=0 dh=10 dv=0
EndChar

StartChar: Eng
Encoding: 330 330 158
Width: 737
GlyphClass: 1
Flags: W
LayerCount: 2
Fore
SplineSet
439 -216 m 1,1,-1
 439 -157 l 1,2,3
 457 -160 457 -160 478 -160 c 0,4,5
 525 -160 525 -160 552 -134 c 128,-1,6
 579 -108 579 -108 579 -56 c 2,7,-1
 579 12 l 1,8,-1
 159 618 l 1,9,-1
 159 0 l 1,10,-1
 94 0 l 1,11,-1
 94 745 l 1,12,-1
 149 745 l 1,13,-1
 579 129 l 1,14,-1
 579 745 l 1,15,-1
 644 745 l 1,16,-1
 644 -56 l 2,17,18
 644 -134 644 -134 597.5 -177 c 128,-1,19
 551 -220 551 -220 478 -220 c 0,20,0
 452 -220 452 -220 439 -216 c 1,1,-1
EndSplineSet
Validated: 1
Position2: "'cpsp' Capital Spacing in Latin lookup 0 subtable" dx=5 dy=0 dh=10 dv=0
EndChar

StartChar: O
Encoding: 79 79 159
Width: 881
GlyphClass: 2
Flags: W
AnchorPoint: "Anchor-7" 861 745 basechar 0
AnchorPoint: "Anchor-6" 441 745 basechar 0
AnchorPoint: "Anchor-5" 491 30 basechar 0
AnchorPoint: "Anchor-4" 441 0 basechar 0
LayerCount: 2
Fore
SplineSet
255.5 37.5 m 128,-1,1
 171 87 171 87 121.5 175 c 128,-1,2
 72 263 72 263 72 373 c 256,3,4
 72 483 72 483 121.5 570.5 c 128,-1,5
 171 658 171 658 255.5 707.5 c 128,-1,6
 340 757 340 757 441 757 c 256,7,8
 542 757 542 757 626.5 707.5 c 128,-1,9
 711 658 711 658 760.5 570.5 c 128,-1,10
 810 483 810 483 810 373 c 256,11,12
 810 263 810 263 760.5 175 c 128,-1,13
 711 87 711 87 626.5 37.5 c 128,-1,14
 542 -12 542 -12 441 -12 c 256,15,0
 340 -12 340 -12 255.5 37.5 c 128,-1,1
175.5 211 m 128,-1,17
 214 137 214 137 283.5 93.5 c 128,-1,18
 353 50 353 50 441 50 c 0,19,20
 528 50 528 50 597.5 93.5 c 128,-1,21
 667 137 667 137 706 211 c 128,-1,22
 745 285 745 285 745 373 c 0,23,24
 745 460 745 460 706.5 534 c 128,-1,25
 668 608 668 608 598.5 652 c 128,-1,26
 529 696 529 696 441 696 c 256,27,28
 353 696 353 696 283.5 652 c 128,-1,29
 214 608 214 608 175.5 534 c 128,-1,30
 137 460 137 460 137 373 c 0,31,16
 137 285 137 285 175.5 211 c 128,-1,17
EndSplineSet
Validated: 1
Substitution2: "Single Substitution lookup 28 subtable" ordmasculine
Substitution2: "'aalt' Access All Alternates in Latin lookup 0 subtable" ordmasculine
Position2: "'cpsp' Capital Spacing in Latin lookup 0 subtable" dx=5 dy=0 dh=10 dv=0
EndChar

StartChar: Ohorn
Encoding: 416 416 175
Width: 881
GlyphClass: 2
Flags: W
AnchorPoint: "Anchor-6" 441 745 basechar 0
AnchorPoint: "Anchor-4" 441 0 basechar 0
LayerCount: 2
Fore
SplineSet
255.5 37.5 m 128,-1,1
 171 87 171 87 121.5 175 c 128,-1,2
 72 263 72 263 72 373 c 256,3,4
 72 483 72 483 121.5 570.5 c 128,-1,5
 171 658 171 658 255.5 707.5 c 128,-1,6
 340 757 340 757 441 757 c 2,7,-1
 654 757 l 2,8,9
 705 757 705 757 705 811 c 0,10,11
 705 830 705 830 700 847.5 c 128,-1,12
 695 865 695 865 684 891 c 1,13,-1
 752 891 l 1,14,15
 775 843 775 843 775 804 c 0,16,17
 775 752 775 752 745 726 c 128,-1,18
 715 700 715 700 662 700 c 2,19,-1
 639 700 l 1,20,21
 718 649 718 649 764 564 c 128,-1,22
 810 479 810 479 810 373 c 0,23,24
 810 263 810 263 760.5 175 c 128,-1,25
 711 87 711 87 626.5 37.5 c 128,-1,26
 542 -12 542 -12 441 -12 c 256,27,0
 340 -12 340 -12 255.5 37.5 c 128,-1,1
175.5 211 m 128,-1,29
 214 137 214 137 283.5 93.5 c 128,-1,30
 353 50 353 50 441 50 c 0,31,32
 528 50 528 50 597.5 93.5 c 128,-1,33
 667 137 667 137 706 211 c 128,-1,34
 745 285 745 285 745 373 c 0,35,36
 745 460 745 460 706.5 534 c 128,-1,37
 668 608 668 608 598.5 652 c 128,-1,38
 529 696 529 696 441 696 c 256,39,40
 353 696 353 696 283.5 652 c 128,-1,41
 214 608 214 608 175.5 534 c 128,-1,42
 137 460 137 460 137 373 c 0,43,28
 137 285 137 285 175.5 211 c 128,-1,29
EndSplineSet
Validated: 1048577
Position2: "'cpsp' Capital Spacing in Latin lookup 0 subtable" dx=5 dy=0 dh=10 dv=0
EndChar

StartChar: uni01EA
Encoding: 490 490 186
Width: 881
GlyphClass: 2
Flags: W
AnchorPoint: "Anchor-7" 861 745 basechar 0
AnchorPoint: "Anchor-6" 441 745 basechar 0
AnchorPoint: "Anchor-5" 491 30 basechar 0
AnchorPoint: "Anchor-4" 441 0 basechar 0
LayerCount: 2
Fore
SplineSet
597.5 93.5 m 128,-1,1
 667 137 667 137 706 211 c 128,-1,2
 745 285 745 285 745 373 c 0,3,4
 745 460 745 460 706.5 534 c 128,-1,5
 668 608 668 608 598.5 652 c 128,-1,6
 529 696 529 696 441 696 c 256,7,8
 353 696 353 696 283.5 652 c 128,-1,9
 214 608 214 608 175.5 534 c 128,-1,10
 137 460 137 460 137 373 c 0,11,12
 137 285 137 285 175.5 211 c 128,-1,13
 214 137 214 137 283.5 93.5 c 128,-1,14
 353 50 353 50 441 50 c 0,15,0
 528 50 528 50 597.5 93.5 c 128,-1,1
121.5 570.5 m 128,-1,17
 171 658 171 658 255.5 707.5 c 128,-1,18
 340 757 340 757 441 757 c 256,19,20
 542 757 542 757 626.5 707.5 c 128,-1,21
 711 658 711 658 760.5 570.5 c 128,-1,22
 810 483 810 483 810 373 c 0,23,24
 810 266 810 266 763.5 179.5 c 128,-1,25
 717 93 717 93 636.5 42.5 c 128,-1,26
 556 -8 556 -8 458 -12 c 1,27,28
 422 -42 422 -42 422 -77 c 0,29,30
 422 -99 422 -99 436 -111.5 c 128,-1,31
 450 -124 450 -124 473 -124 c 0,32,33
 503 -124 503 -124 540 -98 c 1,34,-1
 562 -132 l 1,35,36
 521 -167 521 -167 469 -167 c 0,37,38
 428 -167 428 -167 401.5 -145 c 128,-1,39
 375 -123 375 -123 375 -87 c 0,40,41
 375 -44 375 -44 410 -11 c 1,42,43
 315 -3 315 -3 238 48 c 128,-1,44
 161 99 161 99 116.5 184 c 128,-1,45
 72 269 72 269 72 373 c 0,46,16
 72 483 72 483 121.5 570.5 c 128,-1,17
EndSplineSet
Validated: 1
Position2: "'cpsp' Capital Spacing in Latin lookup 0 subtable" dx=5 dy=0 dh=10 dv=0
EndChar

StartChar: Oslash
Encoding: 216 216 187
Width: 881
GlyphClass: 2
Flags: W
AnchorPoint: "Anchor-7" 861 745 basechar 0
AnchorPoint: "Anchor-6" 441 745 basechar 0
AnchorPoint: "Anchor-5" 491 30 basechar 0
AnchorPoint: "Anchor-4" 441 0 basechar 0
LayerCount: 2
Fore
SplineSet
322.5 7 m 128,-1,1
 266 26 266 26 220 61 c 1,2,-1
 169 0 l 1,3,-1
 91 0 l 1,4,-1
 175 101 l 1,5,6
 126 153 126 153 99 222.5 c 128,-1,7
 72 292 72 292 72 373 c 0,8,9
 72 483 72 483 121.5 570.5 c 128,-1,10
 171 658 171 658 255.5 707.5 c 128,-1,11
 340 757 340 757 441 757 c 0,12,13
 502 757 502 757 558 738.5 c 128,-1,14
 614 720 614 720 661 685 c 1,15,-1
 711 745 l 1,16,-1
 789 745 l 1,17,-1
 706 645 l 1,18,19
 755 593 755 593 782.5 523.5 c 128,-1,20
 810 454 810 454 810 373 c 0,21,22
 810 263 810 263 760.5 175 c 128,-1,23
 711 87 711 87 626.5 37.5 c 128,-1,24
 542 -12 542 -12 441 -12 c 0,25,0
 379 -12 379 -12 322.5 7 c 128,-1,1
158 252.5 m 128,-1,27
 179 195 179 195 217 151 c 1,28,-1
 621 637 l 1,29,30
 543 696 543 696 441 696 c 0,31,32
 353 696 353 696 283.5 652 c 128,-1,33
 214 608 214 608 175.5 534 c 128,-1,34
 137 460 137 460 137 373 c 0,35,26
 137 310 137 310 158 252.5 c 128,-1,27
441 50 m 0,37,38
 528 50 528 50 597.5 93.5 c 128,-1,39
 667 137 667 137 706 211 c 128,-1,40
 745 285 745 285 745 373 c 0,41,42
 745 436 745 436 724 494 c 128,-1,43
 703 552 703 552 665 596 c 1,44,-1
 260 110 l 1,45,36
 337 50 337 50 441 50 c 0,37,38
EndSplineSet
Validated: 1
Position2: "'cpsp' Capital Spacing in Latin lookup 0 subtable" dx=5 dy=0 dh=10 dv=0
EndChar

StartChar: OE
Encoding: 338 338 193
Width: 1270
GlyphClass: 1
Flags: W
LayerCount: 2
Fore
SplineSet
255.5 37.5 m 128,-1,1
 171 87 171 87 121.5 175 c 128,-1,2
 72 263 72 263 72 373 c 256,3,4
 72 483 72 483 121.5 570.5 c 128,-1,5
 171 658 171 658 255.5 707.5 c 128,-1,6
 340 757 340 757 441 757 c 0,7,8
 537 757 537 757 618.5 711.5 c 128,-1,9
 700 666 700 666 750 587 c 1,10,-1
 750 745 l 1,11,-1
 1220 745 l 1,12,-1
 1220 685 l 1,13,-1
 815 685 l 1,14,-1
 815 404 l 1,15,-1
 1200 404 l 1,16,-1
 1200 344 l 1,17,-1
 815 344 l 1,18,-1
 815 60 l 1,19,-1
 1220 60 l 1,20,-1
 1220 0 l 1,21,-1
 750 0 l 1,22,-1
 750 159 l 1,23,24
 700 79 700 79 618.5 33.5 c 128,-1,25
 537 -12 537 -12 441 -12 c 0,26,0
 340 -12 340 -12 255.5 37.5 c 128,-1,1
175.5 211 m 128,-1,28
 214 137 214 137 283.5 93.5 c 128,-1,29
 353 50 353 50 441 50 c 0,30,31
 528 50 528 50 597.5 93.5 c 128,-1,32
 667 137 667 137 706 211 c 128,-1,33
 745 285 745 285 745 373 c 0,34,35
 745 460 745 460 706.5 534 c 128,-1,36
 668 608 668 608 598.5 652 c 128,-1,37
 529 696 529 696 441 696 c 256,38,39
 353 696 353 696 283.5 652 c 128,-1,40
 214 608 214 608 175.5 534 c 128,-1,41
 137 460 137 460 137 373 c 0,42,27
 137 285 137 285 175.5 211 c 128,-1,28
EndSplineSet
Validated: 1
Position2: "'cpsp' Capital Spacing in Latin lookup 0 subtable" dx=5 dy=0 dh=10 dv=0
EndChar

StartChar: P
Encoding: 80 80 194
Width: 644
GlyphClass: 2
Flags: W
AnchorPoint: "Anchor-6" 323 745 basechar 0
AnchorPoint: "Anchor-4" 323 0 basechar 0
LayerCount: 2
Fore
SplineSet
94 745 m 1,0,-1
 344 745 l 2,1,2
 414 745 414 745 468.5 716.5 c 128,-1,3
 523 688 523 688 553.5 637 c 128,-1,4
 584 586 584 586 584 520 c 256,5,6
 584 454 584 454 554 403 c 128,-1,7
 524 352 524 352 469.5 323.5 c 128,-1,8
 415 295 415 295 344 295 c 2,9,-1
 159 295 l 1,10,-1
 159 0 l 1,11,-1
 94 0 l 1,12,-1
 94 745 l 1,0,-1
346 355 m 2,13,14
 423 355 423 355 471 400.5 c 128,-1,15
 519 446 519 446 519 521 c 0,16,17
 519 595 519 595 471.5 640 c 128,-1,18
 424 685 424 685 346 685 c 2,19,-1
 159 685 l 1,20,-1
 159 355 l 1,21,-1
 346 355 l 2,13,14
EndSplineSet
Validated: 1048577
Position2: "'cpsp' Capital Spacing in Latin lookup 0 subtable" dx=5 dy=0 dh=10 dv=0
EndChar

StartChar: Thorn
Encoding: 222 222 195
Width: 635
GlyphClass: 1
Flags: W
LayerCount: 2
Fore
SplineSet
88 745 m 1,0,-1
 153 745 l 1,1,-1
 153 598 l 1,2,-1
 338 598 l 2,3,4
 408 598 408 598 462.5 569.5 c 128,-1,5
 517 541 517 541 547.5 489.5 c 128,-1,6
 578 438 578 438 578 372 c 256,7,8
 578 306 578 306 548 255 c 128,-1,9
 518 204 518 204 463.5 176 c 128,-1,10
 409 148 409 148 338 148 c 2,11,-1
 153 148 l 1,12,-1
 153 0 l 1,13,-1
 88 0 l 1,14,-1
 88 745 l 1,0,-1
340 208 m 2,15,16
 417 208 417 208 465 253 c 128,-1,17
 513 298 513 298 513 373 c 256,18,19
 513 448 513 448 465.5 493 c 128,-1,20
 418 538 418 538 340 538 c 2,21,-1
 153 538 l 1,22,-1
 153 208 l 1,23,-1
 340 208 l 2,15,16
EndSplineSet
Validated: 1
Position2: "'cpsp' Capital Spacing in Latin lookup 0 subtable" dx=5 dy=0 dh=10 dv=0
EndChar

StartChar: Q
Encoding: 81 81 196
Width: 881
GlyphClass: 2
Flags: W
AnchorPoint: "Anchor-6" 441 745 basechar 0
AnchorPoint: "Anchor-4" 441 0 basechar 0
LayerCount: 2
Fore
SplineSet
255.5 37.5 m 128,-1,1
 171 87 171 87 121.5 175 c 128,-1,2
 72 263 72 263 72 373 c 256,3,4
 72 483 72 483 121.5 570.5 c 128,-1,5
 171 658 171 658 255.5 707.5 c 128,-1,6
 340 757 340 757 441 757 c 256,7,8
 542 757 542 757 626.5 707.5 c 128,-1,9
 711 658 711 658 760.5 570.5 c 128,-1,10
 810 483 810 483 810 373 c 0,11,12
 810 290 810 290 781.5 219 c 128,-1,13
 753 148 753 148 702 96 c 1,14,-1
 796 -8 l 1,15,-1
 743 -49 l 1,16,-1
 651 53 l 1,17,18
 558 -12 558 -12 441 -12 c 0,19,0
 340 -12 340 -12 255.5 37.5 c 128,-1,1
175.5 211 m 128,-1,21
 214 137 214 137 283.5 93.5 c 128,-1,22
 353 50 353 50 441 50 c 0,23,24
 535 50 535 50 608 100 c 1,25,-1
 428 299 l 1,26,-1
 482 339 l 1,27,-1
 659 144 l 1,28,29
 700 189 700 189 722.5 248 c 128,-1,30
 745 307 745 307 745 373 c 0,31,32
 745 460 745 460 706.5 534 c 128,-1,33
 668 608 668 608 598.5 652 c 128,-1,34
 529 696 529 696 441 696 c 256,35,36
 353 696 353 696 283.5 652 c 128,-1,37
 214 608 214 608 175.5 534 c 128,-1,38
 137 460 137 460 137 373 c 0,39,20
 137 285 137 285 175.5 211 c 128,-1,21
EndSplineSet
Validated: 1048577
Substitution2: "'ss03' Style Set 3 in Latin lookup 22 subtable" Q.ss03
Substitution2: "'aalt' Access All Alternates in Latin lookup 0 subtable" Q.ss03
Position2: "'cpsp' Capital Spacing in Latin lookup 0 subtable" dx=5 dy=0 dh=10 dv=0
EndChar

StartChar: Q.ss03
Encoding: 65572 -1 197
Width: 881
GlyphClass: 1
Flags: W
LayerCount: 2
Fore
SplineSet
597.5 93.5 m 128,-1,1
 667 137 667 137 706 211 c 128,-1,2
 745 285 745 285 745 373 c 0,3,4
 745 460 745 460 706.5 534 c 128,-1,5
 668 608 668 608 598.5 652 c 128,-1,6
 529 696 529 696 441 696 c 256,7,8
 353 696 353 696 283.5 652 c 128,-1,9
 214 608 214 608 175.5 534 c 128,-1,10
 137 460 137 460 137 373 c 0,11,12
 137 285 137 285 175.5 211 c 128,-1,13
 214 137 214 137 283.5 93.5 c 128,-1,14
 353 50 353 50 441 50 c 0,15,0
 528 50 528 50 597.5 93.5 c 128,-1,1
121.5 570.5 m 128,-1,17
 171 658 171 658 255.5 707.5 c 128,-1,18
 340 757 340 757 441 757 c 256,19,20
 542 757 542 757 626.5 707.5 c 128,-1,21
 711 658 711 658 760.5 570.5 c 128,-1,22
 810 483 810 483 810 373 c 0,23,24
 810 268 810 268 765 183 c 128,-1,25
 720 98 720 98 642.5 47 c 128,-1,26
 565 -4 565 -4 470 -11 c 1,27,-1
 470 -20 l 2,28,29
 470 -73 470 -73 501.5 -100.5 c 128,-1,30
 533 -128 533 -128 591 -128 c 2,31,-1
 760 -128 l 1,32,-1
 760 -180 l 1,33,-1
 586 -180 l 2,34,35
 502 -180 502 -180 456 -138.5 c 128,-1,36
 410 -97 410 -97 410 -20 c 2,37,-1
 410 -11 l 1,38,39
 316 -3 316 -3 238.5 48 c 128,-1,40
 161 99 161 99 116.5 184 c 128,-1,41
 72 269 72 269 72 373 c 0,42,16
 72 483 72 483 121.5 570.5 c 128,-1,17
EndSplineSet
Validated: 1
Position2: "'cpsp' Capital Spacing in Latin lookup 0 subtable" dx=5 dy=0 dh=10 dv=0
EndChar

StartChar: R
Encoding: 82 82 198
Width: 638
GlyphClass: 2
Flags: W
AnchorPoint: "Anchor-6" 314 745 basechar 0
AnchorPoint: "Anchor-4" 314 0 basechar 0
LayerCount: 2
Fore
SplineSet
94 745 m 1,0,-1
 344 745 l 2,1,2
 414 745 414 745 468.5 716.5 c 128,-1,3
 523 688 523 688 553.5 637 c 128,-1,4
 584 586 584 586 584 520 c 0,5,6
 584 440 584 440 541 383 c 128,-1,7
 498 326 498 326 424 306 c 1,8,-1
 600 0 l 1,9,-1
 523 0 l 1,10,-1
 356 295 l 1,11,-1
 159 295 l 1,12,-1
 159 0 l 1,13,-1
 94 0 l 1,14,-1
 94 745 l 1,0,-1
346 355 m 2,15,16
 423 355 423 355 471 400.5 c 128,-1,17
 519 446 519 446 519 521 c 0,18,19
 519 595 519 595 471.5 640 c 128,-1,20
 424 685 424 685 346 685 c 2,21,-1
 159 685 l 1,22,-1
 159 355 l 1,23,-1
 346 355 l 2,15,16
EndSplineSet
Validated: 1048577
Substitution2: "'ss03' Style Set 3 in Latin lookup 22 subtable" R.ss03
Substitution2: "'aalt' Access All Alternates in Latin lookup 0 subtable" R.ss03
Position2: "'cpsp' Capital Spacing in Latin lookup 0 subtable" dx=5 dy=0 dh=10 dv=0
EndChar

StartChar: R.ss03
Encoding: 65573 -1 199
Width: 650
GlyphClass: 2
Flags: W
AnchorPoint: "Anchor-6" 320 745 basechar 0
AnchorPoint: "Anchor-4" 320 0 basechar 0
LayerCount: 2
Fore
SplineSet
94 745 m 1,0,-1
 344 745 l 2,1,2
 414 745 414 745 468.5 716.5 c 128,-1,3
 523 688 523 688 553.5 637 c 128,-1,4
 584 586 584 586 584 520 c 0,5,6
 584 463 584 463 561.5 417 c 128,-1,7
 539 371 539 371 498 341 c 1,8,9
 533 331 533 331 551 305 c 128,-1,10
 569 279 569 279 569 238 c 0,11,12
 569 159 569 159 570.5 106 c 128,-1,13
 572 53 572 53 579 0 c 1,14,-1
 514 0 l 1,15,16
 507 53 507 53 505.5 105 c 128,-1,17
 504 157 504 157 504 235 c 0,18,19
 504 295 504 295 438 295 c 2,20,-1
 159 295 l 1,21,-1
 159 0 l 1,22,-1
 94 0 l 1,23,-1
 94 745 l 1,0,-1
346 355 m 2,24,25
 423 355 423 355 471 400.5 c 128,-1,26
 519 446 519 446 519 521 c 0,27,28
 519 595 519 595 471.5 640 c 128,-1,29
 424 685 424 685 346 685 c 2,30,-1
 159 685 l 1,31,-1
 159 355 l 1,32,-1
 346 355 l 2,24,25
EndSplineSet
Validated: 1048577
Position2: "'cpsp' Capital Spacing in Latin lookup 0 subtable" dx=5 dy=0 dh=10 dv=0
EndChar

StartChar: S
Encoding: 83 83 214
Width: 643
GlyphClass: 2
Flags: W
AnchorPoint: "Anchor-6" 322 745 basechar 0
AnchorPoint: "Anchor-4" 322 0 basechar 0
LayerCount: 2
Fore
SplineSet
210.5 14.5 m 128,-1,1
 154 41 154 41 115.5 85 c 128,-1,2
 77 129 77 129 61 181 c 1,3,-1
 119 201 l 1,4,5
 146 128 146 128 206 87 c 128,-1,6
 266 46 266 46 335 46 c 0,7,8
 384 46 384 46 423.5 65 c 128,-1,9
 463 84 463 84 485 115.5 c 128,-1,10
 507 147 507 147 507 184 c 0,11,12
 507 235 507 235 475 271 c 128,-1,13
 443 307 443 307 390 320 c 2,14,-1
 254 356 l 2,15,16
 175 376 175 376 133.5 432 c 128,-1,17
 92 488 92 488 92 559 c 0,18,19
 92 617 92 617 120 662 c 128,-1,20
 148 707 148 707 197.5 732 c 128,-1,21
 247 757 247 757 309 757 c 256,22,23
 371 757 371 757 423.5 733.5 c 128,-1,24
 476 710 476 710 512 669.5 c 128,-1,25
 548 629 548 629 563 581 c 1,26,-1
 506 560 l 1,27,28
 481 626 481 626 426 663 c 128,-1,29
 371 700 371 700 310 700 c 0,30,31
 266 700 266 700 231 681.5 c 128,-1,32
 196 663 196 663 176 631.5 c 128,-1,33
 156 600 156 600 156 562 c 0,34,35
 156 510 156 510 188 472.5 c 128,-1,36
 220 435 220 435 282 418 c 2,37,-1
 404 386 l 2,38,39
 484 365 484 365 527.5 312.5 c 128,-1,40
 571 260 571 260 571 187 c 0,41,42
 571 129 571 129 541 84 c 128,-1,43
 511 39 511 39 457.5 13.5 c 128,-1,44
 404 -12 404 -12 336 -12 c 0,45,0
 267 -12 267 -12 210.5 14.5 c 128,-1,1
EndSplineSet
Validated: 1048577
Position2: "'cpsp' Capital Spacing in Latin lookup 0 subtable" dx=5 dy=0 dh=10 dv=0
EndChar

StartChar: Scedilla
Encoding: 350 350 219
Width: 643
GlyphClass: 2
Flags: W
AnchorPoint: "Anchor-4" 322 0 basechar 0
LayerCount: 2
Fore
SplineSet
302.5 -210.5 m 128,-1,1
 282 -206 282 -206 268 -199 c 1,2,-1
 281 -163 l 1,3,4
 311 -175 311 -175 340 -175 c 0,5,6
 364 -175 364 -175 377 -164 c 128,-1,7
 390 -153 390 -153 390 -134 c 0,8,9
 390 -118 390 -118 380 -108.5 c 128,-1,10
 370 -99 370 -99 352 -99 c 0,11,12
 332 -99 332 -99 310 -111 c 1,13,-1
 290 -103 l 1,14,-1
 300 -10 l 1,15,16
 211 0 211 0 147.5 53.5 c 128,-1,17
 84 107 84 107 61 181 c 1,18,-1
 119 201 l 1,19,20
 146 128 146 128 206 87 c 128,-1,21
 266 46 266 46 335 46 c 0,22,23
 384 46 384 46 423.5 65 c 128,-1,24
 463 84 463 84 485 115.5 c 128,-1,25
 507 147 507 147 507 184 c 0,26,27
 507 235 507 235 475 271 c 128,-1,28
 443 307 443 307 390 320 c 2,29,-1
 254 356 l 2,30,31
 175 376 175 376 133.5 432 c 128,-1,32
 92 488 92 488 92 559 c 0,33,34
 92 617 92 617 120 662 c 128,-1,35
 148 707 148 707 197.5 732 c 128,-1,36
 247 757 247 757 309 757 c 256,37,38
 371 757 371 757 423.5 733.5 c 128,-1,39
 476 710 476 710 512 669.5 c 128,-1,40
 548 629 548 629 563 581 c 1,41,-1
 506 560 l 1,42,43
 481 626 481 626 426 663 c 128,-1,44
 371 700 371 700 310 700 c 0,45,46
 266 700 266 700 231 681.5 c 128,-1,47
 196 663 196 663 176 631.5 c 128,-1,48
 156 600 156 600 156 562 c 0,49,50
 156 510 156 510 188 472.5 c 128,-1,51
 220 435 220 435 282 418 c 2,52,-1
 404 386 l 2,53,54
 484 365 484 365 527.5 312.5 c 128,-1,55
 571 260 571 260 571 187 c 0,56,57
 571 130 571 130 542 85 c 128,-1,58
 513 40 513 40 460.5 14.5 c 128,-1,59
 408 -11 408 -11 342 -12 c 1,60,-1
 337 -65 l 1,61,62
 353 -61 353 -61 363 -61 c 0,63,64
 396 -61 396 -61 417 -81 c 128,-1,65
 438 -101 438 -101 438 -132 c 0,66,67
 438 -168 438 -168 411.5 -191.5 c 128,-1,68
 385 -215 385 -215 342 -215 c 0,69,0
 323 -215 323 -215 302.5 -210.5 c 128,-1,1
EndSplineSet
Validated: 1048577
Substitution2: "'locl' Localized Forms in Latin lookup 6 subtable" uni0218
Substitution2: "'aalt' Access All Alternates in Latin lookup 0 subtable" uni0218
Position2: "'cpsp' Capital Spacing in Latin lookup 0 subtable" dx=5 dy=0 dh=10 dv=0
EndChar

StartChar: uni018F
Encoding: 399 399 226
Width: 838
GlyphClass: 1
Flags: W
LayerCount: 2
Fore
SplineSet
237.5 34 m 128,-1,1
 160 80 160 80 116 160.5 c 128,-1,2
 72 241 72 241 72 339 c 0,3,4
 72 369 72 369 77 394 c 1,5,-1
 702 394 l 1,6,7
 698 479 698 479 657 548 c 128,-1,8
 616 617 616 617 548 656.5 c 128,-1,9
 480 696 480 696 396 696 c 0,10,11
 314 696 314 696 246 657.5 c 128,-1,12
 178 619 178 619 141 553 c 1,13,-1
 85 582 l 1,14,15
 124 661 124 661 209 709 c 128,-1,16
 294 757 294 757 396 757 c 0,17,18
 500 757 500 757 584.5 706.5 c 128,-1,19
 669 656 669 656 718 567.5 c 128,-1,20
 767 479 767 479 767 370 c 0,21,22
 767 265 767 265 721.5 177.5 c 128,-1,23
 676 90 676 90 595 39 c 128,-1,24
 514 -12 514 -12 411 -12 c 0,25,0
 315 -12 315 -12 237.5 34 c 128,-1,1
176 186.5 m 128,-1,27
 211 123 211 123 273.5 86.5 c 128,-1,28
 336 50 336 50 413 50 c 0,29,30
 488 50 488 50 551 86 c 128,-1,31
 614 122 614 122 653.5 186.5 c 128,-1,32
 693 251 693 251 700 334 c 1,33,-1
 141 334 l 1,34,-1
 141 329 l 2,35,26
 141 250 141 250 176 186.5 c 128,-1,27
EndSplineSet
Validated: 1
Position2: "'cpsp' Capital Spacing in Latin lookup 0 subtable" dx=5 dy=0 dh=10 dv=0
EndChar

StartChar: T
Encoding: 84 84 227
Width: 513
GlyphClass: 2
Flags: W
AnchorPoint: "Anchor-6" 257 745 basechar 0
AnchorPoint: "Anchor-4" 257 0 basechar 0
LayerCount: 2
Fore
SplineSet
225 685 m 1,0,-1
 17 685 l 1,1,-1
 17 745 l 1,2,-1
 497 745 l 1,3,-1
 497 685 l 1,4,-1
 290 685 l 1,5,-1
 290 0 l 1,6,-1
 225 0 l 1,7,-1
 225 685 l 1,0,-1
EndSplineSet
Validated: 1048577
Position2: "'cpsp' Capital Spacing in Latin lookup 0 subtable" dx=5 dy=0 dh=10 dv=0
EndChar

StartChar: Tbar
Encoding: 358 358 228
Width: 513
GlyphClass: 2
Flags: W
AnchorPoint: "Anchor-6" 257 745 basechar 0
AnchorPoint: "Anchor-4" 257 0 basechar 0
LayerCount: 2
Fore
SplineSet
225 345 m 1,0,-1
 89 345 l 1,1,-1
 89 400 l 1,2,-1
 225 400 l 1,3,-1
 225 685 l 1,4,-1
 17 685 l 1,5,-1
 17 745 l 1,6,-1
 497 745 l 1,7,-1
 497 685 l 1,8,-1
 290 685 l 1,9,-1
 290 400 l 1,10,-1
 424 400 l 1,11,-1
 424 345 l 1,12,-1
 290 345 l 1,13,-1
 290 0 l 1,14,-1
 225 0 l 1,15,-1
 225 345 l 1,0,-1
EndSplineSet
Validated: 1048577
Position2: "'cpsp' Capital Spacing in Latin lookup 0 subtable" dx=5 dy=0 dh=10 dv=0
EndChar

StartChar: U
Encoding: 85 85 234
Width: 695
GlyphClass: 2
Flags: W
AnchorPoint: "Anchor-6" 348 745 basechar 0
AnchorPoint: "Anchor-5" 398 30 basechar 0
AnchorPoint: "Anchor-4" 348 0 basechar 0
LayerCount: 2
Fore
SplineSet
213.5 21 m 128,-1,1
 155 54 155 54 122.5 112.5 c 128,-1,2
 90 171 90 171 90 247 c 2,3,-1
 90 745 l 1,4,-1
 155 745 l 1,5,-1
 155 245 l 2,6,7
 155 187 155 187 179 142.5 c 128,-1,8
 203 98 203 98 247 73 c 128,-1,9
 291 48 291 48 348 48 c 0,10,11
 404 48 404 48 448 73 c 128,-1,12
 492 98 492 98 516 142.5 c 128,-1,13
 540 187 540 187 540 245 c 2,14,-1
 540 745 l 1,15,-1
 605 745 l 1,16,-1
 605 247 l 2,17,18
 605 171 605 171 573 112 c 128,-1,19
 541 53 541 53 482.5 20.5 c 128,-1,20
 424 -12 424 -12 348 -12 c 256,21,0
 272 -12 272 -12 213.5 21 c 128,-1,1
EndSplineSet
Validated: 1048577
Substitution2: "'ss01' Style Set 1 in Latin lookup 20 subtable" U.ss01
Substitution2: "'salt' Stylistic Alternatives in Latin lookup 19 subtable" U.ss01
Substitution2: "'aalt' Access All Alternates in Latin lookup 0 subtable" U.ss01
Position2: "'cpsp' Capital Spacing in Latin lookup 0 subtable" dx=5 dy=0 dh=10 dv=0
EndChar

StartChar: U.ss01
Encoding: 65581 -1 235
Width: 702
GlyphClass: 2
Flags: W
AnchorPoint: "Anchor-6" 351 745 basechar 0
AnchorPoint: "Anchor-5" 401 30 basechar 0
AnchorPoint: "Anchor-4" 351 0 basechar 0
LayerCount: 2
Fore
SplineSet
94 745 m 1,0,-1
 159 745 l 1,1,-1
 159 60 l 1,2,-1
 544 60 l 1,3,-1
 544 745 l 1,4,-1
 609 745 l 1,5,-1
 609 0 l 1,6,-1
 94 0 l 1,7,-1
 94 745 l 1,0,-1
EndSplineSet
Validated: 1048577
Position2: "'cpsp' Capital Spacing in Latin lookup 0 subtable" dx=5 dy=0 dh=10 dv=0
EndChar

StartChar: Uhorn
Encoding: 431 431 252
Width: 695
GlyphClass: 2
Flags: W
AnchorPoint: "Anchor-6" 348 745 basechar 0
AnchorPoint: "Anchor-5" 626 10 basechar 0
AnchorPoint: "Anchor-4" 348 0 basechar 0
LayerCount: 2
Fore
SplineSet
213.5 21 m 128,-1,1
 155 54 155 54 122.5 112.5 c 128,-1,2
 90 171 90 171 90 247 c 2,3,-1
 90 745 l 1,4,-1
 155 745 l 1,5,-1
 155 245 l 2,6,7
 155 187 155 187 179 142.5 c 128,-1,8
 203 98 203 98 247 73 c 128,-1,9
 291 48 291 48 348 48 c 0,10,11
 404 48 404 48 448 73 c 128,-1,12
 492 98 492 98 516 142.5 c 128,-1,13
 540 187 540 187 540 245 c 2,14,-1
 540 745 l 1,15,-1
 598 745 l 2,16,17
 650 745 650 745 650 799 c 0,18,19
 650 818 650 818 644.5 836 c 128,-1,20
 639 854 639 854 628 879 c 1,21,-1
 697 879 l 1,22,23
 708 854 708 854 714 834 c 128,-1,24
 720 814 720 814 720 792 c 0,25,26
 720 740 720 740 689.5 714 c 128,-1,27
 659 688 659 688 607 688 c 2,28,-1
 605 688 l 1,29,-1
 605 247 l 2,30,31
 605 171 605 171 573 112 c 128,-1,32
 541 53 541 53 482.5 20.5 c 128,-1,33
 424 -12 424 -12 348 -12 c 256,34,0
 272 -12 272 -12 213.5 21 c 128,-1,1
EndSplineSet
Validated: 1048577
Substitution2: "'ss01' Style Set 1 in Latin lookup 20 subtable" Uhorn.ss01
Substitution2: "'salt' Stylistic Alternatives in Latin lookup 19 subtable" Uhorn.ss01
Substitution2: "'aalt' Access All Alternates in Latin lookup 0 subtable" Uhorn.ss01
Position2: "'cpsp' Capital Spacing in Latin lookup 0 subtable" dx=5 dy=0 dh=10 dv=0
EndChar

StartChar: Uhorn.ss01
Encoding: 65590 -1 253
Width: 697
GlyphClass: 2
Flags: W
AnchorPoint: "Anchor-6" 351 745 basechar 0
AnchorPoint: "Anchor-4" 351 0 basechar 0
LayerCount: 2
Fore
SplineSet
94 745 m 1,0,-1
 159 745 l 1,1,-1
 159 60 l 1,2,-1
 544 60 l 1,3,-1
 544 745 l 1,4,-1
 600 745 l 2,5,6
 652 745 652 745 652 799 c 0,7,8
 652 818 652 818 646.5 836 c 128,-1,9
 641 854 641 854 630 879 c 1,10,-1
 699 879 l 1,11,12
 710 854 710 854 716 834 c 128,-1,13
 722 814 722 814 722 792 c 0,14,15
 722 740 722 740 691.5 714 c 128,-1,16
 661 688 661 688 609 688 c 1,17,-1
 609 0 l 1,18,-1
 94 0 l 1,19,-1
 94 745 l 1,0,-1
EndSplineSet
Validated: 1048577
Position2: "'cpsp' Capital Spacing in Latin lookup 0 subtable" dx=5 dy=0 dh=10 dv=0
EndChar

StartChar: Uogonek
Encoding: 370 370 272
Width: 695
GlyphClass: 2
Flags: W
AnchorPoint: "Anchor-6" 348 745 basechar 0
AnchorPoint: "Anchor-5" 398 30 basechar 0
AnchorPoint: "Anchor-4" 348 0 basechar 0
LayerCount: 2
Fore
SplineSet
308.5 -145 m 128,-1,1
 282 -123 282 -123 282 -87 c 0,2,3
 282 -44 282 -44 317 -11 c 1,4,5
 249 -4 249 -4 197.5 30.5 c 128,-1,6
 146 65 146 65 118 121 c 128,-1,7
 90 177 90 177 90 247 c 2,8,-1
 90 745 l 1,9,-1
 155 745 l 1,10,-1
 155 245 l 2,11,12
 155 187 155 187 179 142.5 c 128,-1,13
 203 98 203 98 247 73 c 128,-1,14
 291 48 291 48 348 48 c 0,15,16
 404 48 404 48 448 73 c 128,-1,17
 492 98 492 98 516 142.5 c 128,-1,18
 540 187 540 187 540 245 c 2,19,-1
 540 745 l 1,20,-1
 605 745 l 1,21,-1
 605 247 l 2,22,23
 605 174 605 174 575 116.5 c 128,-1,24
 545 59 545 59 491 25.5 c 128,-1,25
 437 -8 437 -8 365 -12 c 1,26,27
 329 -42 329 -42 329 -77 c 0,28,29
 329 -99 329 -99 343 -111.5 c 128,-1,30
 357 -124 357 -124 380 -124 c 0,31,32
 410 -124 410 -124 447 -98 c 1,33,-1
 469 -132 l 1,34,35
 428 -167 428 -167 376 -167 c 0,36,0
 335 -167 335 -167 308.5 -145 c 128,-1,1
EndSplineSet
Validated: 1048577
Substitution2: "'ss01' Style Set 1 in Latin lookup 20 subtable" Uogonek.ss01
Substitution2: "'salt' Stylistic Alternatives in Latin lookup 19 subtable" Uogonek.ss01
Substitution2: "'aalt' Access All Alternates in Latin lookup 0 subtable" Uogonek.ss01
Position2: "'cpsp' Capital Spacing in Latin lookup 0 subtable" dx=5 dy=0 dh=10 dv=0
EndChar

StartChar: Uogonek.ss01
Encoding: 65600 -1 273
Width: 702
GlyphClass: 2
Flags: W
AnchorPoint: "Anchor-6" 351 745 basechar 0
AnchorPoint: "Anchor-5" 401 30 basechar 0
AnchorPoint: "Anchor-4" 351 0 basechar 0
LayerCount: 2
Fore
SplineSet
94 745 m 1,0,-1
 159 745 l 1,1,-1
 159 60 l 1,2,-1
 544 60 l 1,3,-1
 544 745 l 1,4,-1
 609 745 l 1,5,-1
 609 0 l 1,6,-1
 385 0 l 1,7,8
 333 -34 333 -34 333 -77 c 0,9,10
 333 -99 333 -99 347 -111.5 c 128,-1,11
 361 -124 361 -124 384 -124 c 0,12,13
 414 -124 414 -124 451 -98 c 1,14,-1
 473 -132 l 1,15,16
 432 -167 432 -167 380 -167 c 0,17,18
 339 -167 339 -167 312.5 -145 c 128,-1,19
 286 -123 286 -123 286 -87 c 0,20,21
 286 -63 286 -63 298 -40.5 c 128,-1,22
 310 -18 310 -18 333 0 c 1,23,-1
 94 0 l 1,24,-1
 94 745 l 1,0,-1
EndSplineSet
Validated: 1048577
Position2: "'cpsp' Capital Spacing in Latin lookup 0 subtable" dx=5 dy=0 dh=10 dv=0
EndChar

StartChar: V
Encoding: 86 86 280
Width: 653
GlyphClass: 2
Flags: W
AnchorPoint: "Anchor-6" 327 745 basechar 0
AnchorPoint: "Anchor-4" 327 0 basechar 0
LayerCount: 2
Fore
SplineSet
17 745 m 1,0,-1
 86 745 l 1,1,-1
 327 84 l 1,2,-1
 567 745 l 1,3,-1
 637 745 l 1,4,-1
 360 0 l 1,5,-1
 294 0 l 1,6,-1
 17 745 l 1,0,-1
EndSplineSet
Validated: 1048577
Position2: "'cpsp' Capital Spacing in Latin lookup 0 subtable" dx=5 dy=0 dh=10 dv=0
EndChar

StartChar: W
Encoding: 87 87 281
Width: 986
GlyphClass: 2
Flags: W
AnchorPoint: "Anchor-6" 493 745 basechar 0
AnchorPoint: "Anchor-4" 493 0 basechar 0
LayerCount: 2
Fore
SplineSet
17 745 m 1,0,-1
 84 745 l 1,1,-1
 269 99 l 1,2,-1
 460 745 l 1,3,-1
 527 745 l 1,4,-1
 717 99 l 1,5,-1
 902 745 l 1,6,-1
 970 745 l 1,7,-1
 751 0 l 1,8,-1
 685 0 l 1,9,-1
 494 649 l 1,10,-1
 302 0 l 1,11,-1
 235 0 l 1,12,-1
 17 745 l 1,0,-1
EndSplineSet
Validated: 1048577
Position2: "'cpsp' Capital Spacing in Latin lookup 0 subtable" dx=5 dy=0 dh=10 dv=0
EndChar

StartChar: X
Encoding: 88 88 286
Width: 593
GlyphClass: 2
Flags: W
AnchorPoint: "Anchor-6" 297 745 basechar 0
AnchorPoint: "Anchor-4" 297 0 basechar 0
LayerCount: 2
Fore
SplineSet
258 381 m 1,0,-1
 26 745 l 1,1,-1
 102 745 l 1,2,-1
 297 437 l 1,3,-1
 491 745 l 1,4,-1
 566 745 l 1,5,-1
 334 381 l 1,6,-1
 577 0 l 1,7,-1
 501 0 l 1,8,-1
 297 325 l 1,9,-1
 92 0 l 1,10,-1
 17 0 l 1,11,-1
 258 381 l 1,0,-1
EndSplineSet
Validated: 1048577
Position2: "'cpsp' Capital Spacing in Latin lookup 0 subtable" dx=5 dy=0 dh=10 dv=0
EndChar

StartChar: Y
Encoding: 89 89 287
Width: 624
GlyphClass: 2
Flags: W
AnchorPoint: "Anchor-6" 312 745 basechar 0
AnchorPoint: "Anchor-4" 312 0 basechar 0
LayerCount: 2
Fore
SplineSet
280 340 m 1,0,-1
 17 745 l 1,1,-1
 90 745 l 1,2,-1
 312 406 l 1,3,-1
 534 745 l 1,4,-1
 607 745 l 1,5,-1
 345 340 l 1,6,-1
 345 0 l 1,7,-1
 280 0 l 1,8,-1
 280 340 l 1,0,-1
EndSplineSet
Validated: 1048577
Position2: "'cpsp' Capital Spacing in Latin lookup 0 subtable" dx=5 dy=0 dh=10 dv=0
EndChar

StartChar: Z
Encoding: 90 90 297
Width: 595
GlyphClass: 2
Flags: W
AnchorPoint: "Anchor-6" 298 745 basechar 0
AnchorPoint: "Anchor-4" 298 0 basechar 0
LayerCount: 2
Fore
SplineSet
28 42 m 1,0,-1
 472 685 l 1,1,-1
 54 685 l 1,2,-1
 54 745 l 1,3,-1
 558 745 l 1,4,-1
 558 703 l 1,5,-1
 115 60 l 1,6,-1
 568 60 l 1,7,-1
 568 0 l 1,8,-1
 28 0 l 1,9,-1
 28 42 l 1,0,-1
EndSplineSet
Validated: 1048577
Position2: "'cpsp' Capital Spacing in Latin lookup 0 subtable" dx=5 dy=0 dh=10 dv=0
EndChar

StartChar: a
Encoding: 97 97 302
Width: 573
GlyphClass: 2
Flags: W
AnchorPoint: "Anchor-6" 287 531 basechar 0
AnchorPoint: "Anchor-5" 471 35 basechar 0
AnchorPoint: "Anchor-4" 287 0 basechar 0
LayerCount: 2
Fore
SplineSet
146 7 m 128,-1,1
 106 26 106 26 83.5 60 c 128,-1,2
 61 94 61 94 61 138 c 0,3,4
 61 200 61 200 102.5 244.5 c 128,-1,5
 144 289 144 289 232 304 c 2,6,-1
 431 337 l 1,7,-1
 431 367 l 2,8,9
 431 420 431 420 393 453 c 128,-1,10
 355 486 355 486 294 486 c 0,11,12
 245 486 245 486 204.5 461.5 c 128,-1,13
 164 437 164 437 143 396 c 1,14,-1
 89 425 l 1,15,16
 112 475 112 475 169.5 509 c 128,-1,17
 227 543 227 543 294 543 c 0,18,19
 351 543 351 543 396 520.5 c 128,-1,20
 441 498 441 498 466 458 c 128,-1,21
 491 418 491 418 491 367 c 2,22,-1
 491 0 l 1,23,-1
 431 0 l 1,24,-1
 431 92 l 1,25,26
 405 47 405 47 352.5 17.5 c 128,-1,27
 300 -12 300 -12 235 -12 c 0,28,0
 186 -12 186 -12 146 7 c 128,-1,1
156.5 70 m 128,-1,30
 189 43 189 43 239 43 c 0,31,32
 295 43 295 43 339 69 c 128,-1,33
 383 95 383 95 407 139 c 128,-1,34
 431 183 431 183 431 235 c 2,35,-1
 431 281 l 1,36,-1
 248 251 l 2,37,38
 124 231 124 231 124 140 c 0,39,29
 124 97 124 97 156.5 70 c 128,-1,30
EndSplineSet
Validated: 1048577
Substitution2: "Single Substitution lookup 28 subtable" ordfeminine
Substitution2: "'ss03' Style Set 3 in Latin lookup 22 subtable" a.ss03
Substitution2: "'ss02' Style Set 2 in Latin lookup 21 subtable" a.ss02
Substitution2: "'ss01' Style Set 1 in Latin lookup 20 subtable" a.ss01
Substitution2: "'salt' Stylistic Alternatives in Latin lookup 19 subtable" a.ss01
AlternateSubs2: "'aalt' Access All Alternates in Latin lookup 1 subtable" ordfeminine a.ss01 a.ss02 a.ss03
EndChar

StartChar: a.ss01
Encoding: 65604 -1 303
Width: 573
GlyphClass: 2
Flags: W
AnchorPoint: "Anchor-6" 287 531 basechar 0
AnchorPoint: "Anchor-5" 471 35 basechar 0
AnchorPoint: "Anchor-4" 287 0 basechar 0
LayerCount: 2
Fore
SplineSet
146 7 m 128,-1,1
 106 26 106 26 83.5 60 c 128,-1,2
 61 94 61 94 61 138 c 0,3,4
 61 200 61 200 102.5 244.5 c 128,-1,5
 144 289 144 289 232 304 c 2,6,-1
 431 337 l 1,7,-1
 431 474 l 1,8,-1
 109 474 l 1,9,-1
 109 531 l 1,10,-1
 491 531 l 1,11,-1
 491 0 l 1,12,-1
 430 0 l 1,13,-1
 430 90 l 1,14,15
 404 45 404 45 351.5 16.5 c 128,-1,16
 299 -12 299 -12 235 -12 c 0,17,0
 186 -12 186 -12 146 7 c 128,-1,1
156.5 70 m 128,-1,19
 189 43 189 43 239 43 c 0,20,21
 295 43 295 43 339 69 c 128,-1,22
 383 95 383 95 407 139 c 128,-1,23
 431 183 431 183 431 235 c 2,24,-1
 431 281 l 1,25,-1
 248 251 l 2,26,27
 124 231 124 231 124 140 c 0,28,18
 124 97 124 97 156.5 70 c 128,-1,19
EndSplineSet
Validated: 1048577
EndChar

StartChar: a.ss02
Encoding: 65605 -1 304
Width: 592
GlyphClass: 2
Flags: W
AnchorPoint: "Anchor-6" 287 531 basechar 0
AnchorPoint: "Anchor-5" 471 35 basechar 0
AnchorPoint: "Anchor-4" 287 0 basechar 0
LayerCount: 2
Fore
SplineSet
146 7 m 128,-1,1
 106 26 106 26 83.5 60 c 128,-1,2
 61 94 61 94 61 138 c 0,3,4
 61 200 61 200 102.5 244.5 c 128,-1,5
 144 289 144 289 232 304 c 2,6,-1
 430 337 l 1,7,-1
 430 367 l 2,8,9
 430 420 430 420 392.5 453 c 128,-1,10
 355 486 355 486 294 486 c 0,11,12
 245 486 245 486 204.5 461.5 c 128,-1,13
 164 437 164 437 143 396 c 1,14,-1
 89 425 l 1,15,16
 112 475 112 475 169.5 509 c 128,-1,17
 227 543 227 543 294 543 c 0,18,19
 351 543 351 543 396 520.5 c 128,-1,20
 441 498 441 498 466 458 c 128,-1,21
 491 418 491 418 491 367 c 2,22,-1
 491 55 l 1,23,-1
 551 55 l 1,24,-1
 551 0 l 1,25,-1
 430 0 l 1,26,-1
 430 90 l 1,27,28
 404 45 404 45 351.5 16.5 c 128,-1,29
 299 -12 299 -12 235 -12 c 0,30,0
 186 -12 186 -12 146 7 c 128,-1,1
156.5 70 m 128,-1,32
 189 43 189 43 239 43 c 0,33,34
 295 43 295 43 338.5 69 c 128,-1,35
 382 95 382 95 406 138.5 c 128,-1,36
 430 182 430 182 430 235 c 2,37,-1
 430 281 l 1,38,-1
 248 251 l 2,39,40
 124 231 124 231 124 140 c 0,41,31
 124 97 124 97 156.5 70 c 128,-1,32
EndSplineSet
Validated: 1048577
EndChar

StartChar: a.ss03
Encoding: 65606 -1 305
Width: 573
GlyphClass: 2
Flags: W
AnchorPoint: "Anchor-6" 287 531 basechar 0
AnchorPoint: "Anchor-5" 471 35 basechar 0
AnchorPoint: "Anchor-4" 287 0 basechar 0
LayerCount: 2
Fore
SplineSet
146 7 m 128,-1,1
 106 26 106 26 83.5 60 c 128,-1,2
 61 94 61 94 61 138 c 0,3,4
 61 200 61 200 102.5 244.5 c 128,-1,5
 144 289 144 289 232 304 c 2,6,-1
 431 337 l 1,7,8
 430 400 430 400 391.5 437 c 128,-1,9
 353 474 353 474 290 474 c 2,10,-1
 109 474 l 1,11,-1
 109 531 l 1,12,-1
 290 531 l 2,13,14
 382 531 382 531 436.5 477 c 128,-1,15
 491 423 491 423 491 332 c 2,16,-1
 491 0 l 1,17,-1
 431 0 l 1,18,-1
 431 92 l 1,19,20
 405 47 405 47 352.5 17.5 c 128,-1,21
 300 -12 300 -12 235 -12 c 0,22,0
 186 -12 186 -12 146 7 c 128,-1,1
156.5 70 m 128,-1,24
 189 43 189 43 239 43 c 0,25,26
 295 43 295 43 339 69 c 128,-1,27
 383 95 383 95 407 139 c 128,-1,28
 431 183 431 183 431 235 c 2,29,-1
 431 281 l 1,30,-1
 248 251 l 2,31,32
 124 231 124 231 124 140 c 0,33,23
 124 97 124 97 156.5 70 c 128,-1,24
EndSplineSet
Validated: 1048577
EndChar

StartChar: aogonek
Encoding: 261 261 386
Width: 573
GlyphClass: 2
Flags: W
AnchorPoint: "Anchor-6" 287 531 basechar 0
AnchorPoint: "Anchor-5" 471 35 basechar 0
AnchorPoint: "Anchor-4" 287 0 basechar 0
LayerCount: 2
Fore
SplineSet
146 7 m 128,-1,1
 106 26 106 26 83.5 60 c 128,-1,2
 61 94 61 94 61 138 c 0,3,4
 61 200 61 200 102.5 244.5 c 128,-1,5
 144 289 144 289 232 304 c 2,6,-1
 431 337 l 1,7,-1
 431 367 l 2,8,9
 431 420 431 420 393 453 c 128,-1,10
 355 486 355 486 294 486 c 0,11,12
 245 486 245 486 204.5 461.5 c 128,-1,13
 164 437 164 437 143 396 c 1,14,-1
 89 425 l 1,15,16
 112 475 112 475 169.5 509 c 128,-1,17
 227 543 227 543 294 543 c 0,18,19
 351 543 351 543 396 520.5 c 128,-1,20
 441 498 441 498 466 458 c 128,-1,21
 491 418 491 418 491 367 c 2,22,-1
 491 0 l 1,23,-1
 448 0 l 1,24,25
 403 -33 403 -33 403 -72 c 0,26,27
 403 -94 403 -94 417 -106.5 c 128,-1,28
 431 -119 431 -119 454 -119 c 0,29,30
 484 -119 484 -119 521 -93 c 1,31,-1
 543 -127 l 1,32,33
 502 -162 502 -162 450 -162 c 0,34,35
 409 -162 409 -162 382.5 -140 c 128,-1,36
 356 -118 356 -118 356 -82 c 0,37,38
 356 -51 356 -51 375.5 -23.5 c 128,-1,39
 395 4 395 4 431 23 c 1,40,-1
 431 92 l 1,41,42
 405 47 405 47 352.5 17.5 c 128,-1,43
 300 -12 300 -12 235 -12 c 0,44,0
 186 -12 186 -12 146 7 c 128,-1,1
156.5 70 m 128,-1,46
 189 43 189 43 239 43 c 0,47,48
 295 43 295 43 339 69 c 128,-1,49
 383 95 383 95 407 139 c 128,-1,50
 431 183 431 183 431 235 c 2,51,-1
 431 281 l 1,52,-1
 248 251 l 2,53,54
 124 231 124 231 124 140 c 0,55,45
 124 97 124 97 156.5 70 c 128,-1,46
EndSplineSet
Validated: 1048577
Substitution2: "'ss03' Style Set 3 in Latin lookup 22 subtable" aogonek.ss03
Substitution2: "'ss02' Style Set 2 in Latin lookup 21 subtable" aogonek.ss02
Substitution2: "'ss01' Style Set 1 in Latin lookup 20 subtable" aogonek.ss01
Substitution2: "'salt' Stylistic Alternatives in Latin lookup 19 subtable" aogonek.ss01
AlternateSubs2: "'aalt' Access All Alternates in Latin lookup 1 subtable" aogonek.ss01 aogonek.ss02 aogonek.ss03
EndChar

StartChar: aogonek.ss01
Encoding: 65667 -1 387
Width: 573
GlyphClass: 2
Flags: W
AnchorPoint: "Anchor-6" 287 531 basechar 0
AnchorPoint: "Anchor-5" 471 35 basechar 0
AnchorPoint: "Anchor-4" 287 0 basechar 0
LayerCount: 2
Fore
SplineSet
146 7 m 128,-1,1
 106 26 106 26 83.5 60 c 128,-1,2
 61 94 61 94 61 138 c 0,3,4
 61 200 61 200 102.5 244.5 c 128,-1,5
 144 289 144 289 232 304 c 2,6,-1
 431 337 l 1,7,-1
 431 474 l 1,8,-1
 109 474 l 1,9,-1
 109 531 l 1,10,-1
 491 531 l 1,11,-1
 491 0 l 1,12,-1
 448 0 l 1,13,14
 403 -33 403 -33 403 -72 c 0,15,16
 403 -94 403 -94 417 -106.5 c 128,-1,17
 431 -119 431 -119 454 -119 c 0,18,19
 484 -119 484 -119 521 -93 c 1,20,-1
 543 -127 l 1,21,22
 502 -162 502 -162 450 -162 c 0,23,24
 409 -162 409 -162 382.5 -140 c 128,-1,25
 356 -118 356 -118 356 -82 c 0,26,27
 356 -52 356 -52 375 -24.5 c 128,-1,28
 394 3 394 3 430 23 c 1,29,-1
 430 90 l 1,30,31
 404 45 404 45 351.5 16.5 c 128,-1,32
 299 -12 299 -12 235 -12 c 0,33,0
 186 -12 186 -12 146 7 c 128,-1,1
156.5 70 m 128,-1,35
 189 43 189 43 239 43 c 0,36,37
 295 43 295 43 339 69 c 128,-1,38
 383 95 383 95 407 139 c 128,-1,39
 431 183 431 183 431 235 c 2,40,-1
 431 281 l 1,41,-1
 248 251 l 2,42,43
 124 231 124 231 124 140 c 0,44,34
 124 97 124 97 156.5 70 c 128,-1,35
EndSplineSet
Validated: 1048577
EndChar

StartChar: aogonek.ss02
Encoding: 65668 -1 388
Width: 592
GlyphClass: 2
Flags: W
AnchorPoint: "Anchor-6" 287 531 basechar 0
AnchorPoint: "Anchor-5" 471 35 basechar 0
AnchorPoint: "Anchor-4" 287 0 basechar 0
LayerCount: 2
Fore
SplineSet
146 7 m 128,-1,1
 106 26 106 26 83.5 60 c 128,-1,2
 61 94 61 94 61 138 c 0,3,4
 61 200 61 200 102.5 244.5 c 128,-1,5
 144 289 144 289 232 304 c 2,6,-1
 430 337 l 1,7,-1
 430 367 l 2,8,9
 430 420 430 420 392.5 453 c 128,-1,10
 355 486 355 486 294 486 c 0,11,12
 245 486 245 486 204.5 461.5 c 128,-1,13
 164 437 164 437 143 396 c 1,14,-1
 89 425 l 1,15,16
 112 475 112 475 169.5 509 c 128,-1,17
 227 543 227 543 294 543 c 0,18,19
 351 543 351 543 396 520.5 c 128,-1,20
 441 498 441 498 466 458 c 128,-1,21
 491 418 491 418 491 367 c 2,22,-1
 491 55 l 1,23,-1
 551 55 l 1,24,-1
 551 0 l 1,25,-1
 448 0 l 1,26,27
 403 -33 403 -33 403 -72 c 0,28,29
 403 -94 403 -94 417 -106.5 c 128,-1,30
 431 -119 431 -119 454 -119 c 0,31,32
 484 -119 484 -119 521 -93 c 1,33,-1
 543 -127 l 1,34,35
 502 -162 502 -162 450 -162 c 0,36,37
 409 -162 409 -162 382.5 -140 c 128,-1,38
 356 -118 356 -118 356 -82 c 0,39,40
 356 -52 356 -52 375 -24.5 c 128,-1,41
 394 3 394 3 430 23 c 1,42,-1
 430 90 l 1,43,44
 404 45 404 45 351.5 16.5 c 128,-1,45
 299 -12 299 -12 235 -12 c 0,46,0
 186 -12 186 -12 146 7 c 128,-1,1
156.5 70 m 128,-1,48
 189 43 189 43 239 43 c 0,49,50
 295 43 295 43 338.5 69 c 128,-1,51
 382 95 382 95 406 138.5 c 128,-1,52
 430 182 430 182 430 235 c 2,53,-1
 430 281 l 1,54,-1
 248 251 l 2,55,56
 124 231 124 231 124 140 c 0,57,47
 124 97 124 97 156.5 70 c 128,-1,48
EndSplineSet
Validated: 1048577
EndChar

StartChar: aogonek.ss03
Encoding: 65669 -1 389
Width: 573
GlyphClass: 2
Flags: W
AnchorPoint: "Anchor-6" 287 531 basechar 0
AnchorPoint: "Anchor-5" 471 35 basechar 0
AnchorPoint: "Anchor-4" 287 0 basechar 0
LayerCount: 2
Fore
SplineSet
146 7 m 128,-1,1
 106 26 106 26 83.5 60 c 128,-1,2
 61 94 61 94 61 138 c 0,3,4
 61 200 61 200 102.5 244.5 c 128,-1,5
 144 289 144 289 232 304 c 2,6,-1
 431 337 l 1,7,8
 430 400 430 400 391.5 437 c 128,-1,9
 353 474 353 474 290 474 c 2,10,-1
 109 474 l 1,11,-1
 109 531 l 1,12,-1
 290 531 l 2,13,14
 382 531 382 531 436.5 477 c 128,-1,15
 491 423 491 423 491 332 c 2,16,-1
 491 0 l 1,17,-1
 448 0 l 1,18,19
 403 -33 403 -33 403 -72 c 0,20,21
 403 -94 403 -94 417 -106.5 c 128,-1,22
 431 -119 431 -119 454 -119 c 0,23,24
 484 -119 484 -119 521 -93 c 1,25,-1
 543 -127 l 1,26,27
 502 -162 502 -162 450 -162 c 0,28,29
 409 -162 409 -162 382.5 -140 c 128,-1,30
 356 -118 356 -118 356 -82 c 0,31,32
 356 -51 356 -51 375.5 -23.5 c 128,-1,33
 395 4 395 4 431 23 c 1,34,-1
 431 92 l 1,35,36
 405 47 405 47 352.5 17.5 c 128,-1,37
 300 -12 300 -12 235 -12 c 0,38,0
 186 -12 186 -12 146 7 c 128,-1,1
156.5 70 m 128,-1,40
 189 43 189 43 239 43 c 0,41,42
 295 43 295 43 339 69 c 128,-1,43
 383 95 383 95 407 139 c 128,-1,44
 431 183 431 183 431 235 c 2,45,-1
 431 281 l 1,46,-1
 248 251 l 2,47,48
 124 231 124 231 124 140 c 0,49,39
 124 97 124 97 156.5 70 c 128,-1,40
EndSplineSet
Validated: 1048577
EndChar

StartChar: ae
Encoding: 230 230 402
Width: 993
GlyphClass: 2
Flags: W
AnchorPoint: "Anchor-6" 497 531 basechar 0
AnchorPoint: "Anchor-4" 497 0 basechar 0
LayerCount: 2
Fore
SplineSet
146 7 m 128,-1,1
 106 26 106 26 83.5 60 c 128,-1,2
 61 94 61 94 61 138 c 0,3,4
 61 200 61 200 102.5 244.5 c 128,-1,5
 144 289 144 289 232 304 c 2,6,-1
 430 337 l 1,7,-1
 430 367 l 2,8,9
 430 420 430 420 392.5 453 c 128,-1,10
 355 486 355 486 294 486 c 0,11,12
 245 486 245 486 204.5 461.5 c 128,-1,13
 164 437 164 437 143 396 c 1,14,-1
 89 425 l 1,15,16
 112 475 112 475 169.5 509 c 128,-1,17
 227 543 227 543 294 543 c 256,18,19
 361 543 361 543 410 512.5 c 128,-1,20
 459 482 459 482 479 429 c 1,21,22
 513 483 513 483 568 513 c 128,-1,23
 623 543 623 543 689 543 c 0,24,25
 759 543 759 543 814.5 508.5 c 128,-1,26
 870 474 870 474 901 416.5 c 128,-1,27
 932 359 932 359 932 291 c 0,28,29
 932 271 932 271 929 247 c 1,30,-1
 494 247 l 1,31,32
 496 188 496 188 524 142 c 128,-1,33
 552 96 552 96 598 70 c 128,-1,34
 644 44 644 44 698 44 c 0,35,36
 754 44 754 44 797.5 71 c 128,-1,37
 841 98 841 98 868 145 c 1,38,-1
 919 118 l 1,39,40
 891 60 891 60 831.5 24 c 128,-1,41
 772 -12 772 -12 698 -12 c 0,42,43
 634 -12 634 -12 580.5 15 c 128,-1,44
 527 42 527 42 491 91 c 1,45,-1
 491 0 l 1,46,-1
 430 0 l 1,47,-1
 430 91 l 1,48,49
 404 46 404 46 351.5 17 c 128,-1,50
 299 -12 299 -12 235 -12 c 0,51,0
 186 -12 186 -12 146 7 c 128,-1,1
156.5 70 m 128,-1,53
 189 43 189 43 239 43 c 0,54,55
 295 43 295 43 338.5 69 c 128,-1,56
 382 95 382 95 406 138.5 c 128,-1,57
 430 182 430 182 430 235 c 2,58,-1
 430 281 l 1,59,-1
 248 251 l 2,60,61
 124 231 124 231 124 140 c 0,62,52
 124 97 124 97 156.5 70 c 128,-1,53
869 302 m 1,63,64
 869 354 869 354 845 396.5 c 128,-1,65
 821 439 821 439 779.5 463 c 128,-1,66
 738 487 738 487 689 487 c 256,67,68
 640 487 640 487 598 463.5 c 128,-1,69
 556 440 556 440 528.5 398 c 128,-1,70
 501 356 501 356 496 302 c 1,71,-1
 869 302 l 1,63,64
EndSplineSet
Validated: 1048577
EndChar

StartChar: b
Encoding: 98 98 404
Width: 671
GlyphClass: 2
Flags: W
AnchorPoint: "Anchor-6" 336 784 basechar 0
AnchorPoint: "Anchor-4" 336 0 basechar 0
LayerCount: 2
Fore
SplineSet
228.5 18 m 128,-1,1
 174 48 174 48 143 101 c 1,2,-1
 143 0 l 1,3,-1
 83 0 l 1,4,-1
 83 757 l 1,5,-1
 143 757 l 1,6,-1
 143 433 l 1,7,8
 175 484 175 484 229 513.5 c 128,-1,9
 283 543 283 543 349 543 c 0,10,11
 422 543 422 543 482 507 c 128,-1,12
 542 471 542 471 576 407.5 c 128,-1,13
 610 344 610 344 610 266 c 256,14,15
 610 188 610 188 576 124.5 c 128,-1,16
 542 61 542 61 482 24.5 c 128,-1,17
 422 -12 422 -12 349 -12 c 0,18,0
 283 -12 283 -12 228.5 18 c 128,-1,1
170.5 154.5 m 128,-1,20
 197 105 197 105 243.5 76.5 c 128,-1,21
 290 48 290 48 347 48 c 256,22,23
 404 48 404 48 449.5 76.5 c 128,-1,24
 495 105 495 105 520.5 154.5 c 128,-1,25
 546 204 546 204 546 266 c 0,26,27
 546 327 546 327 520 376.5 c 128,-1,28
 494 426 494 426 448.5 454.5 c 128,-1,29
 403 483 403 483 347 483 c 0,30,31
 290 483 290 483 243.5 454.5 c 128,-1,32
 197 426 197 426 170.5 376.5 c 128,-1,33
 144 327 144 327 144 266 c 0,34,19
 144 204 144 204 170.5 154.5 c 128,-1,20
EndSplineSet
Validated: 1048577
EndChar

StartChar: c
Encoding: 99 99 405
Width: 604
GlyphClass: 2
Flags: W
AnchorPoint: "Anchor-6" 325 531 basechar 0
AnchorPoint: "Anchor-4" 325 0 basechar 0
LayerCount: 2
Fore
SplineSet
188 24.5 m 128,-1,1
 127 61 127 61 92.5 124.5 c 128,-1,2
 58 188 58 188 58 266 c 0,3,4
 58 345 58 345 92.5 408 c 128,-1,5
 127 471 127 471 188 507 c 128,-1,6
 249 543 249 543 325 543 c 0,7,8
 398 543 398 543 458.5 506.5 c 128,-1,9
 519 470 519 470 546 413 c 1,10,-1
 493 385 l 1,11,12
 469 431 469 431 424.5 458 c 128,-1,13
 380 485 380 485 325 485 c 0,14,15
 268 485 268 485 221.5 457 c 128,-1,16
 175 429 175 429 147.5 379 c 128,-1,17
 120 329 120 329 120 266 c 256,18,19
 120 203 120 203 147.5 153 c 128,-1,20
 175 103 175 103 221.5 75 c 128,-1,21
 268 47 268 47 325 47 c 0,22,23
 380 47 380 47 424.5 74 c 128,-1,24
 469 101 469 101 493 148 c 1,25,-1
 546 119 l 1,26,27
 519 62 519 62 458 25 c 128,-1,28
 397 -12 397 -12 325 -12 c 0,29,0
 249 -12 249 -12 188 24.5 c 128,-1,1
EndSplineSet
Validated: 1048577
EndChar

StartChar: ccedilla
Encoding: 231 231 408
Width: 604
GlyphClass: 2
Flags: W
AnchorPoint: "Anchor-4" 325 0 basechar 0
LayerCount: 2
Fore
SplineSet
305.5 -210.5 m 128,-1,1
 285 -206 285 -206 271 -199 c 1,2,-1
 284 -163 l 1,3,4
 314 -175 314 -175 343 -175 c 0,5,6
 367 -175 367 -175 380 -164 c 128,-1,7
 393 -153 393 -153 393 -134 c 0,8,9
 393 -118 393 -118 383 -108.5 c 128,-1,10
 373 -99 373 -99 355 -99 c 0,11,12
 335 -99 335 -99 313 -111 c 1,13,-1
 293 -103 l 1,14,-1
 303 -11 l 1,15,16
 232 -6 232 -6 176 31.5 c 128,-1,17
 120 69 120 69 89 130.5 c 128,-1,18
 58 192 58 192 58 266 c 0,19,20
 58 345 58 345 92.5 408 c 128,-1,21
 127 471 127 471 188 507 c 128,-1,22
 249 543 249 543 325 543 c 0,23,24
 398 543 398 543 458.5 506.5 c 128,-1,25
 519 470 519 470 546 413 c 1,26,-1
 493 385 l 1,27,28
 469 431 469 431 424.5 458 c 128,-1,29
 380 485 380 485 325 485 c 0,30,31
 268 485 268 485 221.5 457 c 128,-1,32
 175 429 175 429 147.5 379 c 128,-1,33
 120 329 120 329 120 266 c 256,34,35
 120 203 120 203 147.5 153 c 128,-1,36
 175 103 175 103 221.5 75 c 128,-1,37
 268 47 268 47 325 47 c 0,38,39
 380 47 380 47 424.5 74 c 128,-1,40
 469 101 469 101 493 148 c 1,41,-1
 546 119 l 1,42,43
 521 66 521 66 466 30 c 128,-1,44
 411 -6 411 -6 345 -11 c 1,45,-1
 340 -65 l 1,46,47
 356 -61 356 -61 366 -61 c 0,48,49
 399 -61 399 -61 420 -81 c 128,-1,50
 441 -101 441 -101 441 -132 c 0,51,52
 441 -168 441 -168 414.5 -191.5 c 128,-1,53
 388 -215 388 -215 345 -215 c 0,54,0
 326 -215 326 -215 305.5 -210.5 c 128,-1,1
EndSplineSet
Validated: 1048577
EndChar

StartChar: uni1E09
Encoding: 7689 7689 409
Width: 604
GlyphClass: 2
Flags: W
AnchorPoint: "Anchor-4" 325 0 basechar 0
LayerCount: 2
Fore
SplineSet
305.5 -210.5 m 128,-1,1
 285 -206 285 -206 271 -199 c 1,2,-1
 284 -163 l 1,3,4
 314 -175 314 -175 343 -175 c 0,5,6
 367 -175 367 -175 380 -164 c 128,-1,7
 393 -153 393 -153 393 -134 c 0,8,9
 393 -118 393 -118 383 -108.5 c 128,-1,10
 373 -99 373 -99 355 -99 c 0,11,12
 335 -99 335 -99 313 -111 c 1,13,-1
 293 -103 l 1,14,-1
 303 -11 l 1,15,16
 232 -6 232 -6 176 31.5 c 128,-1,17
 120 69 120 69 89 130.5 c 128,-1,18
 58 192 58 192 58 266 c 0,19,20
 58 345 58 345 92.5 408 c 128,-1,21
 127 471 127 471 188 507 c 128,-1,22
 249 543 249 543 325 543 c 0,23,24
 398 543 398 543 458.5 506.5 c 128,-1,25
 519 470 519 470 546 413 c 1,26,-1
 493 385 l 1,27,28
 469 431 469 431 424.5 458 c 128,-1,29
 380 485 380 485 325 485 c 0,30,31
 268 485 268 485 221.5 457 c 128,-1,32
 175 429 175 429 147.5 379 c 128,-1,33
 120 329 120 329 120 266 c 256,34,35
 120 203 120 203 147.5 153 c 128,-1,36
 175 103 175 103 221.5 75 c 128,-1,37
 268 47 268 47 325 47 c 0,38,39
 380 47 380 47 424.5 74 c 128,-1,40
 469 101 469 101 493 148 c 1,41,-1
 546 119 l 1,42,43
 521 66 521 66 466 30 c 128,-1,44
 411 -6 411 -6 345 -11 c 1,45,-1
 340 -65 l 1,46,47
 356 -61 356 -61 366 -61 c 0,48,49
 399 -61 399 -61 420 -81 c 128,-1,50
 441 -101 441 -101 441 -132 c 0,51,52
 441 -168 441 -168 414.5 -191.5 c 128,-1,53
 388 -215 388 -215 345 -215 c 0,54,0
 326 -215 326 -215 305.5 -210.5 c 128,-1,1
377 784 m 1,55,-1
 441 784 l 1,56,-1
 350 640 l 1,57,-1
 299 640 l 1,58,-1
 377 784 l 1,55,-1
EndSplineSet
Validated: 1048577
EndChar

StartChar: d
Encoding: 100 100 412
Width: 671
GlyphClass: 2
Flags: W
AnchorPoint: "Anchor-7" 671 595 basechar 0
AnchorPoint: "Anchor-6" 336 784 basechar 0
AnchorPoint: "Anchor-4" 336 0 basechar 0
LayerCount: 2
Fore
SplineSet
189 24.5 m 128,-1,1
 129 61 129 61 95 124.5 c 128,-1,2
 61 188 61 188 61 266 c 256,3,4
 61 344 61 344 95 407.5 c 128,-1,5
 129 471 129 471 189 507 c 128,-1,6
 249 543 249 543 322 543 c 0,7,8
 388 543 388 543 442 513.5 c 128,-1,9
 496 484 496 484 528 433 c 1,10,-1
 528 757 l 1,11,-1
 588 757 l 1,12,-1
 588 0 l 1,13,-1
 528 0 l 1,14,-1
 528 101 l 1,15,16
 497 48 497 48 442.5 18 c 128,-1,17
 388 -12 388 -12 322 -12 c 0,18,0
 249 -12 249 -12 189 24.5 c 128,-1,1
150.5 154.5 m 128,-1,20
 176 105 176 105 221.5 76.5 c 128,-1,21
 267 48 267 48 324 48 c 256,22,23
 381 48 381 48 427.5 76.5 c 128,-1,24
 474 105 474 105 500.5 154.5 c 128,-1,25
 527 204 527 204 527 266 c 0,26,27
 527 327 527 327 500.5 376.5 c 128,-1,28
 474 426 474 426 427.5 454.5 c 128,-1,29
 381 483 381 483 324 483 c 0,30,31
 268 483 268 483 222.5 454.5 c 128,-1,32
 177 426 177 426 151 376.5 c 128,-1,33
 125 327 125 327 125 266 c 0,34,19
 125 204 125 204 150.5 154.5 c 128,-1,20
EndSplineSet
Validated: 1048577
EndChar

StartChar: eth
Encoding: 240 240 413
Width: 660
GlyphClass: 1
Flags: W
LayerCount: 2
Fore
SplineSet
194.5 24 m 128,-1,1
 132 60 132 60 96.5 122.5 c 128,-1,2
 61 185 61 185 61 262 c 0,3,4
 61 338 61 338 95.5 400 c 128,-1,5
 130 462 130 462 191.5 497.5 c 128,-1,6
 253 533 253 533 330 533 c 0,7,8
 385 533 385 533 435 512.5 c 128,-1,9
 485 492 485 492 521 446 c 1,10,11
 509 503 509 503 480.5 554.5 c 128,-1,12
 452 606 452 606 411 646 c 1,13,-1
 247 588 l 1,14,-1
 247 639 l 1,15,-1
 368 682 l 1,16,17
 287 739 287 739 193 739 c 0,18,19
 140 739 140 739 84 720 c 1,20,-1
 69 775 l 1,21,22
 135 796 135 796 197 796 c 0,23,24
 336 796 336 796 436 707 c 1,25,-1
 534 742 l 1,26,-1
 534 690 l 1,27,-1
 474 669 l 1,28,29
 534 599 534 599 566.5 503.5 c 128,-1,30
 599 408 599 408 599 308 c 0,31,32
 599 202 599 202 564 130 c 128,-1,33
 529 58 529 58 469.5 23 c 128,-1,34
 410 -12 410 -12 335 -12 c 0,35,0
 257 -12 257 -12 194.5 24 c 128,-1,1
152.5 152.5 m 128,-1,37
 180 103 180 103 227.5 75 c 128,-1,38
 275 47 275 47 330 47 c 0,39,40
 386 47 386 47 433 75.5 c 128,-1,41
 480 104 480 104 507 153.5 c 128,-1,42
 534 203 534 203 534 263 c 0,43,44
 534 321 534 321 507.5 369.5 c 128,-1,45
 481 418 481 418 434.5 446 c 128,-1,46
 388 474 388 474 330 474 c 256,47,48
 272 474 272 474 225 446 c 128,-1,49
 178 418 178 418 151.5 369 c 128,-1,50
 125 320 125 320 125 262 c 0,51,36
 125 202 125 202 152.5 152.5 c 128,-1,37
EndSplineSet
Validated: 1
EndChar

StartChar: dcroat
Encoding: 273 273 415
Width: 671
GlyphClass: 2
Flags: W
AnchorPoint: "Anchor-7" 671 595 basechar 0
AnchorPoint: "Anchor-6" 336 784 basechar 0
AnchorPoint: "Anchor-4" 336 0 basechar 0
LayerCount: 2
Fore
SplineSet
189 24.5 m 128,-1,1
 129 61 129 61 95 124.5 c 128,-1,2
 61 188 61 188 61 266 c 256,3,4
 61 344 61 344 95 407.5 c 128,-1,5
 129 471 129 471 189 507 c 128,-1,6
 249 543 249 543 322 543 c 0,7,8
 388 543 388 543 442 513.5 c 128,-1,9
 496 484 496 484 528 433 c 1,10,-1
 528 612 l 1,11,-1
 441 612 l 1,12,-1
 441 667 l 1,13,-1
 528 667 l 1,14,-1
 528 757 l 1,15,-1
 588 757 l 1,16,-1
 588 667 l 1,17,-1
 676 667 l 1,18,-1
 676 612 l 1,19,-1
 588 612 l 1,20,-1
 588 0 l 1,21,-1
 528 0 l 1,22,-1
 528 101 l 1,23,24
 497 48 497 48 442.5 18 c 128,-1,25
 388 -12 388 -12 322 -12 c 0,26,0
 249 -12 249 -12 189 24.5 c 128,-1,1
150.5 154.5 m 128,-1,28
 176 105 176 105 221.5 76.5 c 128,-1,29
 267 48 267 48 324 48 c 256,30,31
 381 48 381 48 427.5 76.5 c 128,-1,32
 474 105 474 105 500.5 154.5 c 128,-1,33
 527 204 527 204 527 266 c 0,34,35
 527 327 527 327 500.5 376.5 c 128,-1,36
 474 426 474 426 427.5 454.5 c 128,-1,37
 381 483 381 483 324 483 c 0,38,39
 268 483 268 483 222.5 454.5 c 128,-1,40
 177 426 177 426 151 376.5 c 128,-1,41
 125 327 125 327 125 266 c 0,42,27
 125 204 125 204 150.5 154.5 c 128,-1,28
EndSplineSet
Validated: 1048577
EndChar

StartChar: uni01C6
Encoding: 454 454 418
Width: 1113
GlyphClass: 1
Flags: W
LayerCount: 2
Fore
SplineSet
189 24.5 m 128,-1,1
 129 61 129 61 95 124.5 c 128,-1,2
 61 188 61 188 61 266 c 256,3,4
 61 344 61 344 95 407.5 c 128,-1,5
 129 471 129 471 189 507 c 128,-1,6
 249 543 249 543 322 543 c 0,7,8
 388 543 388 543 442 513.5 c 128,-1,9
 496 484 496 484 528 433 c 1,10,-1
 528 745 l 1,11,-1
 588 745 l 1,12,-1
 588 0 l 1,13,-1
 528 0 l 1,14,-1
 528 101 l 1,15,16
 497 48 497 48 442.5 18 c 128,-1,17
 388 -12 388 -12 322 -12 c 0,18,0
 249 -12 249 -12 189 24.5 c 128,-1,1
150.5 154.5 m 128,-1,20
 176 105 176 105 221.5 76.5 c 128,-1,21
 267 48 267 48 324 48 c 256,22,23
 381 48 381 48 427.5 76.5 c 128,-1,24
 474 105 474 105 500.5 154.5 c 128,-1,25
 527 204 527 204 527 266 c 0,26,27
 527 327 527 327 500.5 376.5 c 128,-1,28
 474 426 474 426 427.5 454.5 c 128,-1,29
 381 483 381 483 324 483 c 0,30,31
 268 483 268 483 222.5 454.5 c 128,-1,32
 177 426 177 426 151 376.5 c 128,-1,33
 125 327 125 327 125 266 c 0,34,19
 125 204 125 204 150.5 154.5 c 128,-1,20
698 48 m 1,35,-1
 1007 474 l 1,36,-1
 716 474 l 1,37,-1
 716 531 l 1,38,-1
 1088 531 l 1,39,-1
 1088 484 l 1,40,-1
 780 58 l 1,41,-1
 1091 58 l 1,42,-1
 1091 0 l 1,43,-1
 698 0 l 1,44,-1
 698 48 l 1,35,-1
799 784 m 1,45,-1
 888 677 l 1,46,-1
 980 784 l 1,47,-1
 1037 784 l 1,48,-1
 917 640 l 1,49,-1
 860 640 l 1,50,-1
 742 784 l 1,51,-1
 799 784 l 1,45,-1
EndSplineSet
Validated: 1
EndChar

StartChar: e
Encoding: 101 101 419
Width: 621
GlyphClass: 2
Flags: W
AnchorPoint: "Anchor-6" 311 531 basechar 0
AnchorPoint: "Anchor-5" 326 35 basechar 0
AnchorPoint: "Anchor-4" 311 0 basechar 0
LayerCount: 2
Fore
SplineSet
191.5 24.5 m 128,-1,1
 131 61 131 61 96 125 c 128,-1,2
 61 189 61 189 61 267 c 256,3,4
 61 345 61 345 94.5 408 c 128,-1,5
 128 471 128 471 186.5 507 c 128,-1,6
 245 543 245 543 317 543 c 0,7,8
 388 543 388 543 443.5 508.5 c 128,-1,9
 499 474 499 474 530 416.5 c 128,-1,10
 561 359 561 359 561 291 c 0,11,12
 561 268 561 268 557 247 c 1,13,-1
 123 247 l 1,14,15
 125 188 125 188 153 141.5 c 128,-1,16
 181 95 181 95 226.5 69.5 c 128,-1,17
 272 44 272 44 326 44 c 0,18,19
 382 44 382 44 425.5 71 c 128,-1,20
 469 98 469 98 497 145 c 1,21,-1
 548 118 l 1,22,23
 520 60 520 60 460.5 24 c 128,-1,24
 401 -12 401 -12 326 -12 c 0,25,0
 252 -12 252 -12 191.5 24.5 c 128,-1,1
497 302 m 1,26,27
 497 354 497 354 473 396.5 c 128,-1,28
 449 439 449 439 408 463 c 128,-1,29
 367 487 367 487 317 487 c 0,30,31
 268 487 268 487 225.5 463.5 c 128,-1,32
 183 440 183 440 156 398 c 128,-1,33
 129 356 129 356 124 302 c 1,34,-1
 497 302 l 1,26,27
EndSplineSet
Validated: 1048577
Substitution2: "'ss03' Style Set 3 in Latin lookup 22 subtable" e.ss03
Substitution2: "'aalt' Access All Alternates in Latin lookup 0 subtable" e.ss03
EndChar

StartChar: e.ss03
Encoding: 65679 -1 420
Width: 621
GlyphClass: 2
Flags: W
AnchorPoint: "Anchor-6" 311 531 basechar 0
AnchorPoint: "Anchor-5" 326 35 basechar 0
AnchorPoint: "Anchor-4" 311 0 basechar 0
LayerCount: 2
Fore
SplineSet
194.5 24.5 m 128,-1,1
 132 61 132 61 96.5 124.5 c 128,-1,2
 61 188 61 188 61 267 c 0,3,4
 61 345 61 345 94.5 408 c 128,-1,5
 128 471 128 471 186.5 507 c 128,-1,6
 245 543 245 543 317 543 c 0,7,8
 388 543 388 543 443.5 508.5 c 128,-1,9
 499 474 499 474 530 416.5 c 128,-1,10
 561 359 561 359 561 291 c 0,11,12
 561 268 561 268 557 247 c 1,13,-1
 123 247 l 1,14,15
 125 188 125 188 153.5 141.5 c 128,-1,16
 182 95 182 95 229.5 69.5 c 128,-1,17
 277 44 277 44 336 44 c 2,18,-1
 524 44 l 1,19,-1
 524 -12 l 1,20,-1
 336 -12 l 2,21,0
 257 -12 257 -12 194.5 24.5 c 128,-1,1
497 302 m 1,22,23
 497 354 497 354 473 396.5 c 128,-1,24
 449 439 449 439 408 463 c 128,-1,25
 367 487 367 487 317 487 c 0,26,27
 268 487 268 487 225.5 463.5 c 128,-1,28
 183 440 183 440 156 398 c 128,-1,29
 129 356 129 356 124 302 c 1,30,-1
 497 302 l 1,22,23
EndSplineSet
Validated: 1048577
EndChar

StartChar: uni1E1D
Encoding: 7709 7709 427
Width: 621
GlyphClass: 2
Flags: W
AnchorPoint: "Anchor-5" 326 35 basechar 0
AnchorPoint: "Anchor-4" 311 0 basechar 0
LayerCount: 2
Fore
SplineSet
291.5 -210.5 m 128,-1,1
 271 -206 271 -206 257 -199 c 1,2,-1
 270 -163 l 1,3,4
 300 -175 300 -175 329 -175 c 0,5,6
 353 -175 353 -175 366 -164 c 128,-1,7
 379 -153 379 -153 379 -134 c 0,8,9
 379 -118 379 -118 369 -108.5 c 128,-1,10
 359 -99 359 -99 341 -99 c 0,11,12
 321 -99 321 -99 299 -111 c 1,13,-1
 279 -103 l 1,14,-1
 289 -10 l 1,15,16
 224 -1 224 -1 172 37 c 128,-1,17
 120 75 120 75 90.5 135 c 128,-1,18
 61 195 61 195 61 267 c 0,19,20
 61 345 61 345 94.5 408 c 128,-1,21
 128 471 128 471 186.5 507 c 128,-1,22
 245 543 245 543 317 543 c 0,23,24
 388 543 388 543 443.5 508.5 c 128,-1,25
 499 474 499 474 530 416.5 c 128,-1,26
 561 359 561 359 561 291 c 0,27,28
 561 268 561 268 557 247 c 1,29,-1
 123 247 l 1,30,31
 125 188 125 188 153 141.5 c 128,-1,32
 181 95 181 95 226.5 69.5 c 128,-1,33
 272 44 272 44 326 44 c 0,34,35
 382 44 382 44 425.5 71 c 128,-1,36
 469 98 469 98 497 145 c 1,37,-1
 548 118 l 1,38,39
 521 61 521 61 463 25 c 128,-1,40
 405 -11 405 -11 331 -12 c 1,41,-1
 326 -65 l 1,42,43
 342 -61 342 -61 352 -61 c 0,44,45
 385 -61 385 -61 406 -81 c 128,-1,46
 427 -101 427 -101 427 -132 c 0,47,48
 427 -168 427 -168 400.5 -191.5 c 128,-1,49
 374 -215 374 -215 331 -215 c 0,50,0
 312 -215 312 -215 291.5 -210.5 c 128,-1,1
497 302 m 1,51,52
 497 354 497 354 473 396.5 c 128,-1,53
 449 439 449 439 408 463 c 128,-1,54
 367 487 367 487 317 487 c 0,55,56
 268 487 268 487 225.5 463.5 c 128,-1,57
 183 440 183 440 156 398 c 128,-1,58
 129 356 129 356 124 302 c 1,59,-1
 497 302 l 1,51,52
223 773 m 1,60,61
 223 737 223 737 248.5 711 c 128,-1,62
 274 685 274 685 311 685 c 256,63,64
 348 685 348 685 374.5 711 c 128,-1,65
 401 737 401 737 401 773 c 1,66,-1
 448 773 l 1,67,68
 448 737 448 737 429.5 706.5 c 128,-1,69
 411 676 411 676 379.5 658 c 128,-1,70
 348 640 348 640 311 640 c 256,71,72
 274 640 274 640 242.5 658 c 128,-1,73
 211 676 211 676 193 706.5 c 128,-1,74
 175 737 175 737 175 773 c 1,75,-1
 223 773 l 1,60,61
EndSplineSet
Validated: 1048577
Substitution2: "'ss03' Style Set 3 in Latin lookup 22 subtable" uni1E1D.ss03
Substitution2: "'aalt' Access All Alternates in Latin lookup 0 subtable" uni1E1D.ss03
EndChar

StartChar: uni1E1D.ss03
Encoding: 65683 -1 428
Width: 621
GlyphClass: 2
Flags: W
AnchorPoint: "Anchor-5" 326 35 basechar 0
AnchorPoint: "Anchor-4" 311 0 basechar 0
LayerCount: 2
Fore
SplineSet
331 -12 m 1,0,-1
 326 -65 l 1,1,2
 342 -61 342 -61 352 -61 c 0,3,4
 385 -61 385 -61 406 -81 c 128,-1,5
 427 -101 427 -101 427 -132 c 0,6,7
 427 -168 427 -168 400.5 -191.5 c 128,-1,8
 374 -215 374 -215 331 -215 c 0,9,10
 312 -215 312 -215 291.5 -210.5 c 128,-1,11
 271 -206 271 -206 257 -199 c 1,12,-1
 270 -163 l 1,13,14
 300 -175 300 -175 329 -175 c 0,15,16
 353 -175 353 -175 366 -164 c 128,-1,17
 379 -153 379 -153 379 -134 c 0,18,19
 379 -118 379 -118 369 -108.5 c 128,-1,20
 359 -99 359 -99 341 -99 c 0,21,22
 321 -99 321 -99 299 -111 c 1,23,-1
 279 -103 l 1,24,-1
 289 -8 l 1,25,26
 222 2 222 2 170.5 40.5 c 128,-1,27
 119 79 119 79 90 137.5 c 128,-1,28
 61 196 61 196 61 267 c 0,29,30
 61 345 61 345 94.5 408 c 128,-1,31
 128 471 128 471 186.5 507 c 128,-1,32
 245 543 245 543 317 543 c 0,33,34
 388 543 388 543 443.5 508.5 c 128,-1,35
 499 474 499 474 530 416.5 c 128,-1,36
 561 359 561 359 561 291 c 0,37,38
 561 268 561 268 557 247 c 1,39,-1
 123 247 l 1,40,41
 125 188 125 188 153.5 141.5 c 128,-1,42
 182 95 182 95 229.5 69.5 c 128,-1,43
 277 44 277 44 336 44 c 2,44,-1
 524 44 l 1,45,-1
 524 -12 l 1,46,-1
 336 -12 l 1,47,-1
 331 -12 l 1,0,-1
497 302 m 1,48,49
 497 354 497 354 473 396.5 c 128,-1,50
 449 439 449 439 408 463 c 128,-1,51
 367 487 367 487 317 487 c 0,52,53
 268 487 268 487 225.5 463.5 c 128,-1,54
 183 440 183 440 156 398 c 128,-1,55
 129 356 129 356 124 302 c 1,56,-1
 497 302 l 1,48,49
223 773 m 1,57,58
 223 737 223 737 248.5 711 c 128,-1,59
 274 685 274 685 311 685 c 256,60,61
 348 685 348 685 374.5 711 c 128,-1,62
 401 737 401 737 401 773 c 1,63,-1
 448 773 l 1,64,65
 448 737 448 737 429.5 706.5 c 128,-1,66
 411 676 411 676 379.5 658 c 128,-1,67
 348 640 348 640 311 640 c 256,68,69
 274 640 274 640 242.5 658 c 128,-1,70
 211 676 211 676 193 706.5 c 128,-1,71
 175 737 175 737 175 773 c 1,72,-1
 223 773 l 1,57,58
EndSplineSet
Validated: 1048577
EndChar

StartChar: eogonek
Encoding: 281 281 461
Width: 621
GlyphClass: 2
Flags: W
AnchorPoint: "Anchor-6" 311 531 basechar 0
AnchorPoint: "Anchor-5" 326 35 basechar 0
AnchorPoint: "Anchor-4" 311 0 basechar 0
LayerCount: 2
Fore
SplineSet
290 -10 m 1,1,2
 258 -37 258 -37 258 -72 c 0,3,4
 258 -94 258 -94 272 -106.5 c 128,-1,5
 286 -119 286 -119 309 -119 c 0,6,7
 339 -119 339 -119 376 -93 c 1,8,-1
 398 -127 l 1,9,10
 357 -162 357 -162 305 -162 c 0,11,12
 264 -162 264 -162 237.5 -140 c 128,-1,13
 211 -118 211 -118 211 -82 c 0,14,15
 211 -38 211 -38 251 -1 c 1,16,17
 166 23 166 23 113.5 96.5 c 128,-1,18
 61 170 61 170 61 267 c 0,19,20
 61 345 61 345 94.5 408 c 128,-1,21
 128 471 128 471 186.5 507 c 128,-1,22
 245 543 245 543 317 543 c 0,23,24
 388 543 388 543 443.5 508.5 c 128,-1,25
 499 474 499 474 530 416.5 c 128,-1,26
 561 359 561 359 561 291 c 0,27,28
 561 268 561 268 557 247 c 1,29,-1
 123 247 l 1,30,31
 125 188 125 188 153 141.5 c 128,-1,32
 181 95 181 95 226.5 69.5 c 128,-1,33
 272 44 272 44 326 44 c 0,34,35
 382 44 382 44 425.5 71 c 128,-1,36
 469 98 469 98 497 145 c 1,37,-1
 548 118 l 1,38,39
 520 60 520 60 460.5 24 c 128,-1,40
 401 -12 401 -12 326 -12 c 0,41,0
 314 -12 314 -12 290 -10 c 1,1,2
497 302 m 1,42,43
 497 354 497 354 473 396.5 c 128,-1,44
 449 439 449 439 408 463 c 128,-1,45
 367 487 367 487 317 487 c 0,46,47
 268 487 268 487 225.5 463.5 c 128,-1,48
 183 440 183 440 156 398 c 128,-1,49
 129 356 129 356 124 302 c 1,50,-1
 497 302 l 1,42,43
EndSplineSet
Validated: 1048577
Substitution2: "'ss03' Style Set 3 in Latin lookup 22 subtable" eogonek.ss03
Substitution2: "'aalt' Access All Alternates in Latin lookup 0 subtable" eogonek.ss03
EndChar

StartChar: eogonek.ss03
Encoding: 65700 -1 462
Width: 621
GlyphClass: 2
Flags: W
AnchorPoint: "Anchor-6" 311 531 basechar 0
AnchorPoint: "Anchor-5" 326 35 basechar 0
AnchorPoint: "Anchor-4" 311 0 basechar 0
LayerCount: 2
Fore
SplineSet
291 -9 m 1,1,2
 258 -37 258 -37 258 -72 c 0,3,4
 258 -94 258 -94 272 -106.5 c 128,-1,5
 286 -119 286 -119 309 -119 c 0,6,7
 339 -119 339 -119 376 -93 c 1,8,-1
 398 -127 l 1,9,10
 357 -162 357 -162 305 -162 c 0,11,12
 264 -162 264 -162 237.5 -140 c 128,-1,13
 211 -118 211 -118 211 -82 c 0,14,15
 211 -36 211 -36 252 0 c 1,16,17
 165 26 165 26 113 98.5 c 128,-1,18
 61 171 61 171 61 267 c 0,19,20
 61 345 61 345 94.5 408 c 128,-1,21
 128 471 128 471 186.5 507 c 128,-1,22
 245 543 245 543 317 543 c 0,23,24
 388 543 388 543 443.5 508.5 c 128,-1,25
 499 474 499 474 530 416.5 c 128,-1,26
 561 359 561 359 561 291 c 0,27,28
 561 268 561 268 557 247 c 1,29,-1
 123 247 l 1,30,31
 125 188 125 188 153.5 141.5 c 128,-1,32
 182 95 182 95 229.5 69.5 c 128,-1,33
 277 44 277 44 336 44 c 2,34,-1
 524 44 l 1,35,-1
 524 -12 l 1,36,-1
 336 -12 l 2,37,0
 314 -12 314 -12 291 -9 c 1,1,2
497 302 m 1,38,39
 497 354 497 354 473 396.5 c 128,-1,40
 449 439 449 439 408 463 c 128,-1,41
 367 487 367 487 317 487 c 0,42,43
 268 487 268 487 225.5 463.5 c 128,-1,44
 183 440 183 440 156 398 c 128,-1,45
 129 356 129 356 124 302 c 1,46,-1
 497 302 l 1,38,39
EndSplineSet
Validated: 1048577
EndChar

StartChar: uni0259
Encoding: 601 601 465
Width: 621
GlyphClass: 1
Flags: W
LayerCount: 2
Fore
SplineSet
178.5 22.5 m 128,-1,1
 123 57 123 57 92 115 c 128,-1,2
 61 173 61 173 61 241 c 0,3,4
 61 260 61 260 64 284 c 1,5,-1
 498 284 l 1,6,7
 496 343 496 343 468 389.5 c 128,-1,8
 440 436 440 436 394.5 461.5 c 128,-1,9
 349 487 349 487 295 487 c 0,10,11
 239 487 239 487 195.5 460.5 c 128,-1,12
 152 434 152 434 125 387 c 1,13,-1
 74 414 l 1,14,15
 102 472 102 472 161.5 507.5 c 128,-1,16
 221 543 221 543 295 543 c 256,17,18
 369 543 369 543 430 506.5 c 128,-1,19
 491 470 491 470 526 406.5 c 128,-1,20
 561 343 561 343 561 265 c 256,21,22
 561 187 561 187 527.5 123.5 c 128,-1,23
 494 60 494 60 435 24 c 128,-1,24
 376 -12 376 -12 304 -12 c 0,25,0
 234 -12 234 -12 178.5 22.5 c 128,-1,1
148.5 134.5 m 128,-1,27
 173 92 173 92 214 68 c 128,-1,28
 255 44 255 44 304 44 c 256,29,30
 353 44 353 44 395.5 67.5 c 128,-1,31
 438 91 438 91 465 133 c 128,-1,32
 492 175 492 175 497 229 c 1,33,-1
 124 229 l 1,34,26
 124 177 124 177 148.5 134.5 c 128,-1,27
EndSplineSet
Validated: 1
EndChar

StartChar: f
Encoding: 102 102 466
Width: 390
GlyphClass: 2
Flags: W
AnchorPoint: "Anchor-6" 196 784 basechar 0
AnchorPoint: "Anchor-4" 196 0 basechar 0
LayerCount: 2
Fore
SplineSet
138 474 m 1,0,-1
 30 474 l 1,1,-1
 30 531 l 1,2,-1
 138 531 l 1,3,-1
 138 582 l 2,4,5
 138 664 138 664 186 710.5 c 128,-1,6
 234 757 234 757 308 757 c 0,7,8
 332 757 332 757 350 752 c 1,9,-1
 350 698 l 1,10,11
 335 701 335 701 314 701 c 0,12,13
 260 701 260 701 229 671 c 128,-1,14
 198 641 198 641 198 582 c 2,15,-1
 198 531 l 1,16,-1
 330 531 l 1,17,-1
 330 474 l 1,18,-1
 198 474 l 1,19,-1
 198 0 l 1,20,-1
 138 0 l 1,21,-1
 138 474 l 1,0,-1
EndSplineSet
Validated: 1048577
Substitution2: "'ss01' Style Set 1 in Latin lookup 20 subtable" f.ss01
Substitution2: "'salt' Stylistic Alternatives in Latin lookup 19 subtable" f.ss01
Substitution2: "'aalt' Access All Alternates in Latin lookup 0 subtable" f.ss01
EndChar

StartChar: f.ss01
Encoding: 65702 -1 467
Width: 390
GlyphClass: 1
Flags: W
LayerCount: 2
Fore
SplineSet
138 474 m 1,0,-1
 30 474 l 1,1,-1
 30 531 l 1,2,-1
 138 531 l 1,3,-1
 138 745 l 1,4,-1
 350 745 l 1,5,-1
 350 690 l 1,6,-1
 198 690 l 1,7,-1
 198 531 l 1,8,-1
 330 531 l 1,9,-1
 330 474 l 1,10,-1
 198 474 l 1,11,-1
 198 0 l 1,12,-1
 138 0 l 1,13,-1
 138 474 l 1,0,-1
EndSplineSet
Validated: 1
EndChar

StartChar: g
Encoding: 103 103 468
Width: 663
GlyphClass: 2
Flags: W
AnchorPoint: "Anchor-6" 332 531 basechar 0
AnchorPoint: "Anchor-4" 332 -240 basechar 0
LayerCount: 2
Fore
SplineSet
192.5 -184.5 m 128,-1,1
 132 -149 132 -149 103 -92 c 1,2,-1
 157 -62 l 1,3,4
 180 -108 180 -108 225 -135 c 128,-1,5
 270 -162 270 -162 330 -162 c 0,6,7
 381 -162 381 -162 424.5 -141.5 c 128,-1,8
 468 -121 468 -121 494.5 -80 c 128,-1,9
 521 -39 521 -39 521 20 c 2,10,-1
 521 120 l 1,11,12
 490 67 490 67 437 37.5 c 128,-1,13
 384 8 384 8 320 8 c 0,14,15
 247 8 247 8 187.5 43.5 c 128,-1,16
 128 79 128 79 94.5 140.5 c 128,-1,17
 61 202 61 202 61 276 c 0,18,19
 61 349 61 349 94.5 410.5 c 128,-1,20
 128 472 128 472 187.5 507.5 c 128,-1,21
 247 543 247 543 320 543 c 0,22,23
 384 543 384 543 436.5 514 c 128,-1,24
 489 485 489 485 521 435 c 1,25,-1
 521 531 l 1,26,-1
 581 531 l 1,27,-1
 581 20 l 2,28,29
 581 -49 581 -49 549 -103.5 c 128,-1,30
 517 -158 517 -158 460 -189 c 128,-1,31
 403 -220 403 -220 331 -220 c 0,32,0
 253 -220 253 -220 192.5 -184.5 c 128,-1,1
150.5 171.5 m 128,-1,34
 176 124 176 124 221 96 c 128,-1,35
 266 68 266 68 322 68 c 0,36,37
 377 68 377 68 422 96 c 128,-1,38
 467 124 467 124 493 171.5 c 128,-1,39
 519 219 519 219 519 276 c 0,40,41
 519 332 519 332 493 379.5 c 128,-1,42
 467 427 467 427 422 455 c 128,-1,43
 377 483 377 483 322 483 c 0,44,45
 266 483 266 483 221 455 c 128,-1,46
 176 427 176 427 150.5 380 c 128,-1,47
 125 333 125 333 125 276 c 256,48,33
 125 219 125 219 150.5 171.5 c 128,-1,34
EndSplineSet
Validated: 1048577
Substitution2: "'ss03' Style Set 3 in Latin lookup 22 subtable" g.ss03
Substitution2: "'ss01' Style Set 1 in Latin lookup 20 subtable" g.ss01
Substitution2: "'salt' Stylistic Alternatives in Latin lookup 19 subtable" g.ss01
AlternateSubs2: "'aalt' Access All Alternates in Latin lookup 1 subtable" g.ss01 g.ss03
EndChar

StartChar: g.ss01
Encoding: 65703 -1 469
Width: 663
GlyphClass: 2
Flags: W
AnchorPoint: "Anchor-6" 332 531 basechar 0
AnchorPoint: "Anchor-4" 332 -240 basechar 0
LayerCount: 2
Fore
SplineSet
143 -163 m 1,0,-1
 521 -163 l 1,1,-1
 521 120 l 1,2,3
 490 67 490 67 437 37.5 c 128,-1,4
 384 8 384 8 320 8 c 0,5,6
 247 8 247 8 187.5 43.5 c 128,-1,7
 128 79 128 79 94.5 140.5 c 128,-1,8
 61 202 61 202 61 276 c 0,9,10
 61 349 61 349 94.5 410.5 c 128,-1,11
 128 472 128 472 187.5 507.5 c 128,-1,12
 247 543 247 543 320 543 c 0,13,14
 384 543 384 543 436.5 514 c 128,-1,15
 489 485 489 485 521 435 c 1,16,-1
 521 531 l 1,17,-1
 581 531 l 1,18,-1
 581 -220 l 1,19,-1
 143 -220 l 1,20,-1
 143 -163 l 1,0,-1
150.5 171.5 m 128,-1,22
 176 124 176 124 221 96 c 128,-1,23
 266 68 266 68 322 68 c 0,24,25
 377 68 377 68 422 96 c 128,-1,26
 467 124 467 124 493 171.5 c 128,-1,27
 519 219 519 219 519 276 c 0,28,29
 519 332 519 332 493 379.5 c 128,-1,30
 467 427 467 427 422 455 c 128,-1,31
 377 483 377 483 322 483 c 0,32,33
 266 483 266 483 221 455 c 128,-1,34
 176 427 176 427 150.5 380 c 128,-1,35
 125 333 125 333 125 276 c 256,36,21
 125 219 125 219 150.5 171.5 c 128,-1,22
EndSplineSet
Validated: 1048577
EndChar

StartChar: g.ss03
Encoding: 65704 -1 470
Width: 663
GlyphClass: 2
Flags: W
AnchorPoint: "Anchor-6" 332 531 basechar 0
AnchorPoint: "Anchor-4" 332 -240 basechar 0
LayerCount: 2
Fore
SplineSet
145 -161 m 1,0,-1
 343 -161 l 2,1,2
 425 -161 425 -161 473 -119.5 c 128,-1,3
 521 -78 521 -78 521 -7 c 2,4,-1
 521 120 l 1,5,6
 490 67 490 67 437 37.5 c 128,-1,7
 384 8 384 8 320 8 c 0,8,9
 247 8 247 8 187.5 43.5 c 128,-1,10
 128 79 128 79 94.5 140.5 c 128,-1,11
 61 202 61 202 61 276 c 0,12,13
 61 349 61 349 94.5 410.5 c 128,-1,14
 128 472 128 472 187.5 507.5 c 128,-1,15
 247 543 247 543 320 543 c 0,16,17
 384 543 384 543 436.5 514 c 128,-1,18
 489 485 489 485 521 435 c 1,19,-1
 521 531 l 1,20,-1
 581 531 l 1,21,-1
 581 -7 l 2,22,23
 581 -71 581 -71 551.5 -119 c 128,-1,24
 522 -167 522 -167 468 -193.5 c 128,-1,25
 414 -220 414 -220 343 -220 c 2,26,-1
 145 -220 l 1,27,-1
 145 -161 l 1,0,-1
150.5 171.5 m 128,-1,29
 176 124 176 124 221 96 c 128,-1,30
 266 68 266 68 322 68 c 0,31,32
 377 68 377 68 422 96 c 128,-1,33
 467 124 467 124 493 171.5 c 128,-1,34
 519 219 519 219 519 276 c 0,35,36
 519 332 519 332 493 379.5 c 128,-1,37
 467 427 467 427 422 455 c 128,-1,38
 377 483 377 483 322 483 c 0,39,40
 266 483 266 483 221 455 c 128,-1,41
 176 427 176 427 150.5 380 c 128,-1,42
 125 333 125 333 125 276 c 256,43,28
 125 219 125 219 150.5 171.5 c 128,-1,29
EndSplineSet
Validated: 1048577
EndChar

StartChar: h
Encoding: 104 104 489
Width: 572
GlyphClass: 2
Flags: W
AnchorPoint: "Anchor-6" 113 745 basechar 0
AnchorPoint: "Anchor-4" 286 0 basechar 0
LayerCount: 2
Fore
SplineSet
83 757 m 1,0,-1
 143 757 l 1,1,-1
 143 460 l 1,2,3
 167 499 167 499 208.5 521 c 128,-1,4
 250 543 250 543 301 543 c 0,5,6
 355 543 355 543 400.5 518 c 128,-1,7
 446 493 446 493 473 448 c 128,-1,8
 500 403 500 403 500 347 c 2,9,-1
 500 0 l 1,10,-1
 440 0 l 1,11,-1
 440 330 l 2,12,13
 440 401 440 401 398.5 442.5 c 128,-1,14
 357 484 357 484 292 484 c 0,15,16
 225 484 225 484 184 438.5 c 128,-1,17
 143 393 143 393 143 320 c 2,18,-1
 143 0 l 1,19,-1
 83 0 l 1,20,-1
 83 757 l 1,0,-1
EndSplineSet
Validated: 1048577
Substitution2: "'ss03' Style Set 3 in Latin lookup 22 subtable" h.ss03
Substitution2: "'ss01' Style Set 1 in Latin lookup 20 subtable" h.ss01
Substitution2: "'salt' Stylistic Alternatives in Latin lookup 19 subtable" h.ss01
AlternateSubs2: "'aalt' Access All Alternates in Latin lookup 1 subtable" h.ss01 h.ss03
EndChar

StartChar: h.ss01
Encoding: 65717 -1 490
Width: 572
GlyphClass: 2
Flags: W
AnchorPoint: "Anchor-6" 113 745 basechar 0
AnchorPoint: "Anchor-4" 286 0 basechar 0
LayerCount: 2
Fore
SplineSet
440 474 m 1,0,-1
 143 474 l 1,1,-1
 143 0 l 1,2,-1
 83 0 l 1,3,-1
 83 757 l 1,4,-1
 143 757 l 1,5,-1
 143 531 l 1,6,-1
 500 531 l 1,7,-1
 500 0 l 1,8,-1
 440 0 l 1,9,-1
 440 474 l 1,0,-1
EndSplineSet
Validated: 1048577
EndChar

StartChar: h.ss03
Encoding: 65718 -1 491
Width: 572
GlyphClass: 2
Flags: W
AnchorPoint: "Anchor-6" 113 745 basechar 0
AnchorPoint: "Anchor-4" 286 0 basechar 0
LayerCount: 2
Fore
SplineSet
83 757 m 1,0,-1
 143 757 l 1,1,-1
 143 531 l 1,2,-1
 300 531 l 2,3,4
 392 531 392 531 446 477.5 c 128,-1,5
 500 424 500 424 500 332 c 2,6,-1
 500 0 l 1,7,-1
 440 0 l 1,8,-1
 440 332 l 2,9,10
 440 397 440 397 402 435.5 c 128,-1,11
 364 474 364 474 300 474 c 2,12,-1
 143 474 l 1,13,-1
 143 0 l 1,14,-1
 83 0 l 1,15,-1
 83 757 l 1,0,-1
EndSplineSet
Validated: 1048577
EndChar

StartChar: hbar
Encoding: 295 295 492
Width: 572
GlyphClass: 2
Flags: W
AnchorPoint: "Anchor-6" 113 745 basechar 0
AnchorPoint: "Anchor-4" 286 0 basechar 0
LayerCount: 2
Fore
SplineSet
83 612 m 1,0,-1
 -5 612 l 1,1,-1
 -5 667 l 1,2,-1
 83 667 l 1,3,-1
 83 757 l 1,4,-1
 143 757 l 1,5,-1
 143 667 l 1,6,-1
 230 667 l 1,7,-1
 230 612 l 1,8,-1
 143 612 l 1,9,-1
 143 460 l 1,10,11
 167 499 167 499 208.5 521 c 128,-1,12
 250 543 250 543 301 543 c 0,13,14
 355 543 355 543 400.5 518 c 128,-1,15
 446 493 446 493 473 448 c 128,-1,16
 500 403 500 403 500 347 c 2,17,-1
 500 0 l 1,18,-1
 440 0 l 1,19,-1
 440 330 l 2,20,21
 440 401 440 401 398.5 442.5 c 128,-1,22
 357 484 357 484 292 484 c 0,23,24
 225 484 225 484 184 438.5 c 128,-1,25
 143 393 143 393 143 320 c 2,26,-1
 143 0 l 1,27,-1
 83 0 l 1,28,-1
 83 612 l 1,0,-1
EndSplineSet
Validated: 1048577
Substitution2: "'ss03' Style Set 3 in Latin lookup 22 subtable" hbar.ss03
Substitution2: "'ss01' Style Set 1 in Latin lookup 20 subtable" hbar.ss01
Substitution2: "'salt' Stylistic Alternatives in Latin lookup 19 subtable" hbar.ss01
AlternateSubs2: "'aalt' Access All Alternates in Latin lookup 1 subtable" hbar.ss01 hbar.ss03
EndChar

StartChar: hbar.ss01
Encoding: 65719 -1 493
Width: 572
GlyphClass: 2
Flags: W
AnchorPoint: "Anchor-6" 113 745 basechar 0
AnchorPoint: "Anchor-4" 286 0 basechar 0
LayerCount: 2
Fore
SplineSet
440 474 m 1,0,-1
 143 474 l 1,1,-1
 143 0 l 1,2,-1
 83 0 l 1,3,-1
 83 612 l 1,4,-1
 -5 612 l 1,5,-1
 -5 667 l 1,6,-1
 83 667 l 1,7,-1
 83 757 l 1,8,-1
 143 757 l 1,9,-1
 143 667 l 1,10,-1
 230 667 l 1,11,-1
 230 612 l 1,12,-1
 143 612 l 1,13,-1
 143 531 l 1,14,-1
 500 531 l 1,15,-1
 500 0 l 1,16,-1
 440 0 l 1,17,-1
 440 474 l 1,0,-1
EndSplineSet
Validated: 1048577
EndChar

StartChar: hbar.ss03
Encoding: 65720 -1 494
Width: 572
GlyphClass: 2
Flags: W
AnchorPoint: "Anchor-6" 113 745 basechar 0
AnchorPoint: "Anchor-4" 286 0 basechar 0
LayerCount: 2
Fore
SplineSet
83 612 m 1,0,-1
 -5 612 l 1,1,-1
 -5 667 l 1,2,-1
 83 667 l 1,3,-1
 83 757 l 1,4,-1
 143 757 l 1,5,-1
 143 667 l 1,6,-1
 230 667 l 1,7,-1
 230 612 l 1,8,-1
 143 612 l 1,9,-1
 143 531 l 1,10,-1
 300 531 l 2,11,12
 392 531 392 531 446 477.5 c 128,-1,13
 500 424 500 424 500 332 c 2,14,-1
 500 0 l 1,15,-1
 440 0 l 1,16,-1
 440 332 l 2,17,18
 440 397 440 397 402 435.5 c 128,-1,19
 364 474 364 474 300 474 c 2,20,-1
 143 474 l 1,21,-1
 143 0 l 1,22,-1
 83 0 l 1,23,-1
 83 612 l 1,0,-1
EndSplineSet
Validated: 1048577
EndChar

StartChar: i
Encoding: 105 105 504
Width: 225
GlyphClass: 2
Flags: W
AnchorPoint: "Anchor-4" 113 0 basechar 0
LayerCount: 2
Fore
SplineSet
83 531 m 1,0,-1
 143 531 l 1,1,-1
 143 0 l 1,2,-1
 83 0 l 1,3,-1
 83 531 l 1,0,-1
84.5 700 m 128,-1,5
 96 712 96 712 113 712 c 256,6,7
 130 712 130 712 141.5 700.5 c 128,-1,8
 153 689 153 689 153 671 c 256,9,10
 153 653 153 653 142 641 c 128,-1,11
 131 629 131 629 113 629 c 0,12,13
 96 629 96 629 84.5 641 c 128,-1,14
 73 653 73 653 73 671 c 0,15,4
 73 688 73 688 84.5 700 c 128,-1,5
EndSplineSet
Validated: 1048577
Substitution2: "Single Substitution lookup 25 subtable" dotlessi
Substitution2: "'ss01' Style Set 1 in Latin lookup 20 subtable" i.ss01
Substitution2: "'salt' Stylistic Alternatives in Latin lookup 19 subtable" i.ss01
Substitution2: "'locl' Localized Forms in Latin lookup 5 subtable" i.loclTRK
AlternateSubs2: "'aalt' Access All Alternates in Latin lookup 1 subtable" i.loclTRK i.ss01
EndChar

StartChar: i.ss01
Encoding: 65727 -1 505
Width: 254
GlyphClass: 2
Flags: W
AnchorPoint: "Anchor-4" 142 0 basechar 0
LayerCount: 2
Fore
SplineSet
112 471 m 1,0,-1
 42 471 l 1,1,-1
 42 531 l 1,2,-1
 172 531 l 1,3,-1
 172 0 l 1,4,-1
 112 0 l 1,5,-1
 112 471 l 1,0,-1
112 745 m 1,6,-1
 172 745 l 1,7,-1
 172 635 l 1,8,-1
 112 635 l 1,9,-1
 112 745 l 1,6,-1
EndSplineSet
Validated: 1048577
EndChar

StartChar: dotlessi
Encoding: 305 305 506
Width: 192
GlyphClass: 2
Flags: W
AnchorPoint: "Anchor-6" 96 531 basechar 0
AnchorPoint: "Anchor-5" 97 35 basechar 0
AnchorPoint: "Anchor-4" 96 0 basechar 0
LayerCount: 2
Fore
SplineSet
66 531 m 1,0,-1
 126 531 l 1,1,-1
 126 0 l 1,2,-1
 66 0 l 1,3,-1
 66 531 l 1,0,-1
EndSplineSet
Validated: 1048577
Substitution2: "'ss01' Style Set 1 in Latin lookup 20 subtable" dotlessi.ss01
Substitution2: "'salt' Stylistic Alternatives in Latin lookup 19 subtable" dotlessi.ss01
Substitution2: "'aalt' Access All Alternates in Latin lookup 0 subtable" dotlessi.ss01
EndChar

StartChar: dotlessi.ss01
Encoding: 65728 -1 507
Width: 229
GlyphClass: 2
Flags: W
AnchorPoint: "Anchor-6" 134 531 basechar 0
AnchorPoint: "Anchor-5" 134 35 basechar 0
AnchorPoint: "Anchor-4" 134 0 basechar 0
LayerCount: 2
Fore
SplineSet
103 471 m 1,0,-1
 33 471 l 1,1,-1
 33 531 l 1,2,-1
 163 531 l 1,3,-1
 163 0 l 1,4,-1
 103 0 l 1,5,-1
 103 471 l 1,0,-1
EndSplineSet
Validated: 1048577
EndChar

StartChar: iogonek
Encoding: 303 303 532
Width: 192
GlyphClass: 2
Flags: W
AnchorPoint: "Anchor-6" 96 531 basechar 0
AnchorPoint: "Anchor-5" 97 35 basechar 0
AnchorPoint: "Anchor-4" 96 0 basechar 0
LayerCount: 2
Fore
SplineSet
60.5 679 m 128,-1,1
 46 693 46 693 46 714 c 256,2,3
 46 735 46 735 60.5 749 c 128,-1,4
 75 763 75 763 95 763 c 256,5,6
 115 763 115 763 129.5 749 c 128,-1,7
 144 735 144 735 144 714 c 256,8,9
 144 693 144 693 129.5 679 c 128,-1,10
 115 665 115 665 95 665 c 256,11,0
 75 665 75 665 60.5 679 c 128,-1,1
3 -20 m 128,-1,13
 25 9 25 9 66 28 c 1,14,-1
 66 531 l 1,15,-1
 126 531 l 1,16,-1
 126 0 l 1,17,-1
 73 0 l 1,18,19
 28 -33 28 -33 28 -72 c 0,20,21
 28 -94 28 -94 42 -106.5 c 128,-1,22
 56 -119 56 -119 79 -119 c 0,23,24
 109 -119 109 -119 146 -93 c 1,25,-1
 168 -127 l 1,26,27
 127 -162 127 -162 75 -162 c 0,28,29
 34 -162 34 -162 7.5 -140 c 128,-1,30
 -19 -118 -19 -118 -19 -82 c 0,31,12
 -19 -49 -19 -49 3 -20 c 128,-1,13
EndSplineSet
Validated: 1048577
Substitution2: "'ss01' Style Set 1 in Latin lookup 20 subtable" iogonek.ss01
Substitution2: "'salt' Stylistic Alternatives in Latin lookup 19 subtable" iogonek.ss01
Substitution2: "'aalt' Access All Alternates in Latin lookup 0 subtable" iogonek.ss01
EndChar

StartChar: iogonek.ss01
Encoding: 65742 -1 533
Width: 229
GlyphClass: 2
Flags: W
AnchorPoint: "Anchor-6" 134 531 basechar 0
AnchorPoint: "Anchor-5" 134 35 basechar 0
AnchorPoint: "Anchor-4" 134 0 basechar 0
LayerCount: 2
Fore
SplineSet
98.5 679 m 128,-1,1
 84 693 84 693 84 714 c 256,2,3
 84 735 84 735 98.5 749 c 128,-1,4
 113 763 113 763 133 763 c 256,5,6
 153 763 153 763 167.5 749 c 128,-1,7
 182 735 182 735 182 714 c 256,8,9
 182 693 182 693 167.5 679 c 128,-1,10
 153 665 153 665 133 665 c 256,11,0
 113 665 113 665 98.5 679 c 128,-1,1
40 -20 m 128,-1,13
 62 9 62 9 103 28 c 1,14,-1
 103 471 l 1,15,-1
 33 471 l 1,16,-1
 33 531 l 1,17,-1
 163 531 l 1,18,-1
 163 0 l 1,19,-1
 110 0 l 1,20,21
 65 -33 65 -33 65 -72 c 0,22,23
 65 -94 65 -94 79 -106.5 c 128,-1,24
 93 -119 93 -119 116 -119 c 0,25,26
 146 -119 146 -119 183 -93 c 1,27,-1
 205 -127 l 1,28,29
 164 -162 164 -162 112 -162 c 0,30,31
 71 -162 71 -162 44.5 -140 c 128,-1,32
 18 -118 18 -118 18 -82 c 0,33,12
 18 -49 18 -49 40 -20 c 128,-1,13
EndSplineSet
Validated: 1048577
EndChar

StartChar: j
Encoding: 106 106 536
Width: 225
GlyphClass: 1
Flags: W
LayerCount: 2
Fore
SplineSet
-60 -216 m 1,1,-1
 -60 -161 l 1,2,3
 -42 -164 -42 -164 -21 -164 c 0,4,5
 27 -164 27 -164 55 -136 c 128,-1,6
 83 -108 83 -108 83 -56 c 2,7,-1
 83 531 l 1,8,-1
 143 531 l 1,9,-1
 143 -56 l 2,10,11
 143 -134 143 -134 97.5 -177 c 128,-1,12
 52 -220 52 -220 -21 -220 c 0,13,0
 -47 -220 -47 -220 -60 -216 c 1,1,-1
84.5 700 m 128,-1,15
 96 712 96 712 113 712 c 256,16,17
 130 712 130 712 141.5 700.5 c 128,-1,18
 153 689 153 689 153 671 c 256,19,20
 153 653 153 653 142 641 c 128,-1,21
 131 629 131 629 113 629 c 0,22,23
 96 629 96 629 84.5 641 c 128,-1,24
 73 653 73 653 73 671 c 0,25,14
 73 688 73 688 84.5 700 c 128,-1,15
EndSplineSet
Validated: 1
Substitution2: "Single Substitution lookup 25 subtable" uni0237
Substitution2: "'ss02' Style Set 2 in Latin lookup 21 subtable" j.ss02
Substitution2: "'ss01' Style Set 1 in Latin lookup 20 subtable" j.ss01
Substitution2: "'salt' Stylistic Alternatives in Latin lookup 19 subtable" j.ss01
AlternateSubs2: "'aalt' Access All Alternates in Latin lookup 1 subtable" j.ss01 j.ss02
EndChar

StartChar: j.ss01
Encoding: 65744 -1 537
Width: 205
GlyphClass: 1
Flags: W
LayerCount: 2
Fore
SplineSet
-60 -165 m 1,0,-1
 63 -165 l 1,1,-1
 63 531 l 1,2,-1
 123 531 l 1,3,-1
 123 -220 l 1,4,-1
 -60 -220 l 1,5,-1
 -60 -165 l 1,0,-1
63 745 m 1,6,-1
 123 745 l 1,7,-1
 123 635 l 1,8,-1
 63 635 l 1,9,-1
 63 745 l 1,6,-1
EndSplineSet
Validated: 1
EndChar

StartChar: j.ss02
Encoding: 65745 -1 538
Width: 256
GlyphClass: 1
Flags: W
LayerCount: 2
Fore
SplineSet
-31 -216 m 1,1,-1
 -31 -161 l 1,2,3
 -12 -164 -12 -164 10 -164 c 0,4,5
 57 -164 57 -164 85 -136 c 128,-1,6
 113 -108 113 -108 113 -56 c 2,7,-1
 113 471 l 1,8,-1
 43 471 l 1,9,-1
 43 531 l 1,10,-1
 173 531 l 1,11,-1
 173 -56 l 2,12,13
 173 -134 173 -134 127.5 -177 c 128,-1,14
 82 -220 82 -220 10 -220 c 0,15,0
 -18 -220 -18 -220 -31 -216 c 1,1,-1
113 745 m 1,16,-1
 173 745 l 1,17,-1
 173 635 l 1,18,-1
 113 635 l 1,19,-1
 113 745 l 1,16,-1
EndSplineSet
Validated: 1
EndChar

StartChar: uni0237
Encoding: 567 567 539
Width: 225
GlyphClass: 2
Flags: W
AnchorPoint: "Anchor-6" 113 531 basechar 0
AnchorPoint: "Anchor-4" 113 -240 basechar 0
LayerCount: 2
Fore
SplineSet
-60 -216 m 1,1,-1
 -60 -161 l 1,2,3
 -42 -164 -42 -164 -21 -164 c 0,4,5
 27 -164 27 -164 55 -136 c 128,-1,6
 83 -108 83 -108 83 -56 c 2,7,-1
 83 531 l 1,8,-1
 143 531 l 1,9,-1
 143 -56 l 2,10,11
 143 -134 143 -134 97.5 -177 c 128,-1,12
 52 -220 52 -220 -21 -220 c 0,13,0
 -47 -220 -47 -220 -60 -216 c 1,1,-1
EndSplineSet
Validated: 1048577
Substitution2: "'ss02' Style Set 2 in Latin lookup 21 subtable" uni0237.ss02
Substitution2: "'ss01' Style Set 1 in Latin lookup 20 subtable" uni0237.ss01
Substitution2: "'salt' Stylistic Alternatives in Latin lookup 19 subtable" uni0237.ss01
AlternateSubs2: "'aalt' Access All Alternates in Latin lookup 1 subtable" uni0237.ss01 uni0237.ss02
EndChar

StartChar: uni0237.ss01
Encoding: 65746 -1 540
Width: 205
GlyphClass: 2
Flags: W
AnchorPoint: "Anchor-6" 93 531 basechar 0
AnchorPoint: "Anchor-4" 103 -240 basechar 0
LayerCount: 2
Fore
SplineSet
-60 -165 m 1,0,-1
 63 -165 l 1,1,-1
 63 531 l 1,2,-1
 123 531 l 1,3,-1
 123 -220 l 1,4,-1
 -60 -220 l 1,5,-1
 -60 -165 l 1,0,-1
EndSplineSet
Validated: 1048577
EndChar

StartChar: uni0237.ss02
Encoding: 65747 -1 541
Width: 265
GlyphClass: 2
Flags: W
AnchorPoint: "Anchor-6" 153 531 basechar 0
AnchorPoint: "Anchor-4" 153 -240 basechar 0
LayerCount: 2
Fore
SplineSet
-20 -216 m 1,1,-1
 -20 -161 l 1,2,3
 -2 -164 -2 -164 19 -164 c 0,4,5
 67 -164 67 -164 95 -136 c 128,-1,6
 123 -108 123 -108 123 -56 c 2,7,-1
 123 471 l 1,8,-1
 53 471 l 1,9,-1
 53 531 l 1,10,-1
 183 531 l 1,11,-1
 183 -56 l 2,12,13
 183 -134 183 -134 137.5 -177 c 128,-1,14
 92 -220 92 -220 20 -220 c 0,15,0
 -7 -220 -7 -220 -20 -216 c 1,1,-1
EndSplineSet
Validated: 1048577
EndChar

StartChar: k
Encoding: 107 107 545
Width: 544
GlyphClass: 2
Flags: W
AnchorPoint: "Anchor-6" 272 784 basechar 0
AnchorPoint: "Anchor-4" 272 0 basechar 0
LayerCount: 2
Fore
SplineSet
83 757 m 1,0,-1
 143 757 l 1,1,-1
 143 250 l 1,2,-1
 426 531 l 1,3,-1
 508 531 l 1,4,-1
 294 317 l 1,5,-1
 528 0 l 1,6,-1
 453 0 l 1,7,-1
 249 274 l 1,8,-1
 143 165 l 1,9,-1
 143 0 l 1,10,-1
 83 0 l 1,11,-1
 83 757 l 1,0,-1
EndSplineSet
Validated: 1048577
Substitution2: "'ss01' Style Set 1 in Latin lookup 20 subtable" k.ss01
Substitution2: "'salt' Stylistic Alternatives in Latin lookup 19 subtable" k.ss01
Substitution2: "'aalt' Access All Alternates in Latin lookup 0 subtable" k.ss01
EndChar

StartChar: k.ss01
Encoding: 65750 -1 546
Width: 544
GlyphClass: 1
Flags: W
LayerCount: 2
Fore
SplineSet
269 257 m 1,0,-1
 143 257 l 1,1,-1
 143 0 l 1,2,-1
 83 0 l 1,3,-1
 83 757 l 1,4,-1
 143 757 l 1,5,-1
 143 314 l 1,6,-1
 268 314 l 1,7,-1
 417 531 l 1,8,-1
 492 531 l 1,9,-1
 324 287 l 1,10,-1
 528 0 l 1,11,-1
 455 0 l 1,12,-1
 269 257 l 1,0,-1
EndSplineSet
Validated: 1
EndChar

StartChar: kgreenlandic
Encoding: 312 312 549
Width: 544
GlyphClass: 1
Flags: W
LayerCount: 2
Fore
SplineSet
269 257 m 1,0,-1
 143 257 l 1,1,-1
 143 0 l 1,2,-1
 83 0 l 1,3,-1
 83 531 l 1,4,-1
 143 531 l 1,5,-1
 143 314 l 1,6,-1
 268 314 l 1,7,-1
 417 531 l 1,8,-1
 492 531 l 1,9,-1
 324 287 l 1,10,-1
 528 0 l 1,11,-1
 455 0 l 1,12,-1
 269 257 l 1,0,-1
EndSplineSet
Validated: 1
EndChar

StartChar: l
Encoding: 108 108 550
Width: 225
GlyphClass: 2
Flags: W
AnchorPoint: "Anchor-7" 225 595 basechar 0
AnchorPoint: "Anchor-6" 113 745 basechar 0
AnchorPoint: "Anchor-4" 113 0 basechar 0
LayerCount: 2
Fore
SplineSet
83 757 m 1,0,-1
 143 757 l 1,1,-1
 143 0 l 1,2,-1
 83 0 l 1,3,-1
 83 757 l 1,0,-1
EndSplineSet
Validated: 1048577
Substitution2: "'ss03' Style Set 3 in Latin lookup 22 subtable" l.ss03
Substitution2: "'ss01' Style Set 1 in Latin lookup 20 subtable" l.ss01
Substitution2: "'salt' Stylistic Alternatives in Latin lookup 19 subtable" l.ss01
AlternateSubs2: "'aalt' Access All Alternates in Latin lookup 1 subtable" l.ss01 l.ss03
EndChar

StartChar: l.ss01
Encoding: 65752 -1 551
Width: 259
GlyphClass: 2
Flags: W
AnchorPoint: "Anchor-7" 225 595 basechar 0
AnchorPoint: "Anchor-6" 113 745 basechar 0
AnchorPoint: "Anchor-4" 113 0 basechar 0
LayerCount: 2
Fore
SplineSet
83 757 m 1,0,-1
 143 757 l 1,1,-1
 143 55 l 1,2,-1
 218 55 l 1,3,-1
 218 0 l 1,4,-1
 83 0 l 1,5,-1
 83 757 l 1,0,-1
EndSplineSet
Validated: 1048577
EndChar

StartChar: l.ss03
Encoding: 65753 -1 552
Width: 259
GlyphClass: 2
Flags: W
AnchorPoint: "Anchor-7" 225 595 basechar 0
AnchorPoint: "Anchor-6" 113 745 basechar 0
AnchorPoint: "Anchor-4" 113 0 basechar 0
LayerCount: 2
Fore
SplineSet
114 22.5 m 128,-1,1
 83 51 83 51 83 104 c 2,2,-1
 83 757 l 1,3,-1
 143 757 l 1,4,-1
 143 107 l 2,5,6
 143 47 143 47 209 47 c 2,7,-1
 218 47 l 1,8,-1
 218 -6 l 1,9,-1
 204 -6 l 2,10,0
 145 -6 145 -6 114 22.5 c 128,-1,1
EndSplineSet
Validated: 1048577
EndChar

StartChar: ldot
Encoding: 320 320 562
Width: 366
GlyphClass: 2
Flags: W
AnchorPoint: "Anchor-7" 225 595 basechar 0
AnchorPoint: "Anchor-6" 113 745 basechar 0
AnchorPoint: "Anchor-4" 113 0 basechar 0
LayerCount: 2
Fore
SplineSet
83 757 m 1,0,-1
 143 757 l 1,1,-1
 143 0 l 1,2,-1
 83 0 l 1,3,-1
 83 757 l 1,0,-1
241.5 407 m 128,-1,5
 256 421 256 421 276 421 c 256,6,7
 296 421 296 421 310 407 c 128,-1,8
 324 393 324 393 324 373 c 0,9,10
 324 352 324 352 310 338 c 128,-1,11
 296 324 296 324 276 324 c 256,12,13
 256 324 256 324 241.5 338 c 128,-1,14
 227 352 227 352 227 373 c 0,15,4
 227 393 227 393 241.5 407 c 128,-1,5
EndSplineSet
Validated: 1048577
Substitution2: "'ss03' Style Set 3 in Latin lookup 22 subtable" ldot.ss03
Substitution2: "'ss01' Style Set 1 in Latin lookup 20 subtable" ldot.ss01
Substitution2: "'salt' Stylistic Alternatives in Latin lookup 19 subtable" ldot.ss01
AlternateSubs2: "'aalt' Access All Alternates in Latin lookup 1 subtable" ldot.ss01 ldot.ss03
EndChar

StartChar: ldot.ss01
Encoding: 65760 -1 563
Width: 366
GlyphClass: 2
Flags: W
AnchorPoint: "Anchor-7" 225 595 basechar 0
AnchorPoint: "Anchor-6" 113 745 basechar 0
AnchorPoint: "Anchor-4" 113 0 basechar 0
LayerCount: 2
Fore
SplineSet
83 757 m 1,0,-1
 143 757 l 1,1,-1
 143 55 l 1,2,-1
 218 55 l 1,3,-1
 218 0 l 1,4,-1
 83 0 l 1,5,-1
 83 757 l 1,0,-1
241.5 407 m 128,-1,7
 256 421 256 421 276 421 c 256,8,9
 296 421 296 421 310 407 c 128,-1,10
 324 393 324 393 324 373 c 0,11,12
 324 352 324 352 310 338 c 128,-1,13
 296 324 296 324 276 324 c 256,14,15
 256 324 256 324 241.5 338 c 128,-1,16
 227 352 227 352 227 373 c 0,17,6
 227 393 227 393 241.5 407 c 128,-1,7
EndSplineSet
Validated: 1048577
EndChar

StartChar: ldot.ss03
Encoding: 65761 -1 564
Width: 366
GlyphClass: 2
Flags: W
AnchorPoint: "Anchor-7" 225 595 basechar 0
AnchorPoint: "Anchor-6" 113 745 basechar 0
AnchorPoint: "Anchor-4" 113 0 basechar 0
LayerCount: 2
Fore
SplineSet
114 22.5 m 128,-1,1
 83 51 83 51 83 104 c 2,2,-1
 83 757 l 1,3,-1
 143 757 l 1,4,-1
 143 107 l 2,5,6
 143 47 143 47 209 47 c 2,7,-1
 218 47 l 1,8,-1
 218 -6 l 1,9,-1
 204 -6 l 2,10,0
 145 -6 145 -6 114 22.5 c 128,-1,1
241.5 407 m 128,-1,12
 256 421 256 421 276 421 c 256,13,14
 296 421 296 421 310 407 c 128,-1,15
 324 393 324 393 324 373 c 0,16,17
 324 352 324 352 310 338 c 128,-1,18
 296 324 296 324 276 324 c 256,19,20
 256 324 256 324 241.5 338 c 128,-1,21
 227 352 227 352 227 373 c 0,22,11
 227 393 227 393 241.5 407 c 128,-1,12
EndSplineSet
Validated: 1048577
EndChar

StartChar: lslash
Encoding: 322 322 572
Width: 225
GlyphClass: 2
Flags: W
AnchorPoint: "Anchor-7" 225 595 basechar 0
AnchorPoint: "Anchor-6" 113 745 basechar 0
AnchorPoint: "Anchor-4" 113 0 basechar 0
LayerCount: 2
Fore
SplineSet
83 349 m 1,0,-1
 -5 312 l 1,1,-1
 -5 371 l 1,2,-1
 83 408 l 1,3,-1
 83 757 l 1,4,-1
 143 757 l 1,5,-1
 143 434 l 1,6,-1
 230 471 l 1,7,-1
 230 412 l 1,8,-1
 143 375 l 1,9,-1
 143 0 l 1,10,-1
 83 0 l 1,11,-1
 83 349 l 1,0,-1
EndSplineSet
Validated: 1048577
Substitution2: "'ss03' Style Set 3 in Latin lookup 22 subtable" lslash.ss03
Substitution2: "'ss01' Style Set 1 in Latin lookup 20 subtable" lslash.ss01
Substitution2: "'salt' Stylistic Alternatives in Latin lookup 19 subtable" lslash.ss01
AlternateSubs2: "'aalt' Access All Alternates in Latin lookup 1 subtable" lslash.ss01 lslash.ss03
EndChar

StartChar: lslash.ss01
Encoding: 65766 -1 573
Width: 259
GlyphClass: 2
Flags: W
AnchorPoint: "Anchor-7" 225 595 basechar 0
AnchorPoint: "Anchor-6" 113 745 basechar 0
AnchorPoint: "Anchor-4" 113 0 basechar 0
LayerCount: 2
Fore
SplineSet
83 349 m 1,0,-1
 -5 312 l 1,1,-1
 -5 371 l 1,2,-1
 83 408 l 1,3,-1
 83 757 l 1,4,-1
 143 757 l 1,5,-1
 143 434 l 1,6,-1
 230 471 l 1,7,-1
 230 412 l 1,8,-1
 143 375 l 1,9,-1
 143 55 l 1,10,-1
 218 55 l 1,11,-1
 218 0 l 1,12,-1
 83 0 l 1,13,-1
 83 349 l 1,0,-1
EndSplineSet
Validated: 1048577
EndChar

StartChar: lslash.ss03
Encoding: 65767 -1 574
Width: 259
GlyphClass: 2
Flags: W
AnchorPoint: "Anchor-7" 225 595 basechar 0
AnchorPoint: "Anchor-6" 113 745 basechar 0
AnchorPoint: "Anchor-4" 113 0 basechar 0
LayerCount: 2
Fore
SplineSet
114 22.5 m 128,-1,1
 83 51 83 51 83 104 c 2,2,-1
 83 349 l 1,3,-1
 -5 312 l 1,4,-1
 -5 371 l 1,5,-1
 83 408 l 1,6,-1
 83 757 l 1,7,-1
 143 757 l 1,8,-1
 143 434 l 1,9,-1
 230 471 l 1,10,-1
 230 412 l 1,11,-1
 143 375 l 1,12,-1
 143 107 l 2,13,14
 143 47 143 47 209 47 c 2,15,-1
 218 47 l 1,16,-1
 218 -6 l 1,17,-1
 204 -6 l 2,18,0
 145 -6 145 -6 114 22.5 c 128,-1,1
EndSplineSet
Validated: 1048577
EndChar

StartChar: m
Encoding: 109 109 575
Width: 909
GlyphClass: 2
Flags: W
AnchorPoint: "Anchor-6" 455 531 basechar 0
AnchorPoint: "Anchor-4" 455 0 basechar 0
LayerCount: 2
Fore
SplineSet
83 531 m 1,0,-1
 143 531 l 1,1,-1
 143 461 l 1,2,3
 166 499 166 499 206.5 521 c 128,-1,4
 247 543 247 543 296 543 c 0,5,6
 351 543 351 543 398 514 c 128,-1,7
 445 485 445 485 470 437 c 1,8,9
 492 486 492 486 538.5 514.5 c 128,-1,10
 585 543 585 543 641 543 c 0,11,12
 693 543 693 543 738.5 518 c 128,-1,13
 784 493 784 493 811 448 c 128,-1,14
 838 403 838 403 838 347 c 2,15,-1
 838 0 l 1,16,-1
 778 0 l 1,17,-1
 778 330 l 2,18,19
 778 400 778 400 737 442 c 128,-1,20
 696 484 696 484 635 484 c 0,21,22
 571 484 571 484 530.5 438 c 128,-1,23
 490 392 490 392 490 320 c 2,24,-1
 490 0 l 1,25,-1
 430 0 l 1,26,-1
 430 330 l 2,27,28
 430 400 430 400 389.5 442 c 128,-1,29
 349 484 349 484 287 484 c 0,30,31
 223 484 223 484 183 438 c 128,-1,32
 143 392 143 392 143 320 c 2,33,-1
 143 0 l 1,34,-1
 83 0 l 1,35,-1
 83 531 l 1,0,-1
EndSplineSet
Validated: 1048577
Substitution2: "'ss03' Style Set 3 in Latin lookup 22 subtable" m.ss03
Substitution2: "'ss01' Style Set 1 in Latin lookup 20 subtable" m.ss01
Substitution2: "'salt' Stylistic Alternatives in Latin lookup 19 subtable" m.ss01
AlternateSubs2: "'aalt' Access All Alternates in Latin lookup 1 subtable" m.ss01 m.ss03
EndChar

StartChar: m.ss01
Encoding: 65768 -1 576
Width: 909
GlyphClass: 1
Flags: W
LayerCount: 2
Fore
SplineSet
83 531 m 1,0,-1
 838 531 l 1,1,-1
 838 0 l 1,2,-1
 778 0 l 1,3,-1
 778 474 l 1,4,-1
 490 474 l 1,5,-1
 490 0 l 1,6,-1
 430 0 l 1,7,-1
 430 474 l 1,8,-1
 143 474 l 1,9,-1
 143 0 l 1,10,-1
 83 0 l 1,11,-1
 83 531 l 1,0,-1
EndSplineSet
Validated: 1
EndChar

StartChar: m.ss03
Encoding: 65769 -1 577
Width: 909
GlyphClass: 2
Flags: W
AnchorPoint: "Anchor-6" 455 531 basechar 0
AnchorPoint: "Anchor-4" 455 0 basechar 0
LayerCount: 2
Fore
SplineSet
83 531 m 1,0,-1
 637 531 l 2,1,2
 729 531 729 531 783.5 477 c 128,-1,3
 838 423 838 423 838 332 c 2,4,-1
 838 0 l 1,5,-1
 778 0 l 1,6,-1
 778 332 l 2,7,8
 778 397 778 397 740 435.5 c 128,-1,9
 702 474 702 474 637 474 c 2,10,-1
 490 474 l 1,11,-1
 490 0 l 1,12,-1
 430 0 l 1,13,-1
 430 474 l 1,14,-1
 143 474 l 1,15,-1
 143 0 l 1,16,-1
 83 0 l 1,17,-1
 83 531 l 1,0,-1
EndSplineSet
Validated: 1048577
EndChar

StartChar: n
Encoding: 110 110 581
Width: 572
GlyphClass: 2
Flags: W
AnchorPoint: "Anchor-6" 286 531 basechar 0
AnchorPoint: "Anchor-4" 286 0 basechar 0
LayerCount: 2
Fore
SplineSet
83 531 m 1,0,-1
 143 531 l 1,1,-1
 143 460 l 1,2,3
 167 499 167 499 208.5 521 c 128,-1,4
 250 543 250 543 301 543 c 0,5,6
 355 543 355 543 400.5 518 c 128,-1,7
 446 493 446 493 473 448 c 128,-1,8
 500 403 500 403 500 347 c 2,9,-1
 500 0 l 1,10,-1
 440 0 l 1,11,-1
 440 330 l 2,12,13
 440 401 440 401 398.5 442.5 c 128,-1,14
 357 484 357 484 292 484 c 0,15,16
 224 484 224 484 183.5 438.5 c 128,-1,17
 143 393 143 393 143 320 c 2,18,-1
 143 0 l 1,19,-1
 83 0 l 1,20,-1
 83 531 l 1,0,-1
EndSplineSet
Validated: 1048577
Substitution2: "'ss03' Style Set 3 in Latin lookup 22 subtable" n.ss03
Substitution2: "'ss01' Style Set 1 in Latin lookup 20 subtable" n.ss01
Substitution2: "'salt' Stylistic Alternatives in Latin lookup 19 subtable" n.ss01
AlternateSubs2: "'aalt' Access All Alternates in Latin lookup 1 subtable" n.ss01 n.ss03
EndChar

StartChar: n.ss01
Encoding: 65772 -1 582
Width: 583
GlyphClass: 2
Flags: W
AnchorPoint: "Anchor-6" 292 531 basechar 0
AnchorPoint: "Anchor-4" 292 0 basechar 0
LayerCount: 2
Fore
SplineSet
83 531 m 1,0,-1
 500 531 l 1,1,-1
 500 0 l 1,2,-1
 440 0 l 1,3,-1
 440 474 l 1,4,-1
 143 474 l 1,5,-1
 143 0 l 1,6,-1
 83 0 l 1,7,-1
 83 531 l 1,0,-1
EndSplineSet
Validated: 1048577
EndChar

StartChar: n.ss03
Encoding: 65773 -1 583
Width: 572
GlyphClass: 2
Flags: W
AnchorPoint: "Anchor-6" 286 531 basechar 0
AnchorPoint: "Anchor-4" 286 0 basechar 0
LayerCount: 2
Fore
SplineSet
83 531 m 1,0,-1
 300 531 l 2,1,2
 392 531 392 531 446 477.5 c 128,-1,3
 500 424 500 424 500 332 c 2,4,-1
 500 0 l 1,5,-1
 440 0 l 1,6,-1
 440 332 l 2,7,8
 440 397 440 397 402 435.5 c 128,-1,9
 364 474 364 474 300 474 c 2,10,-1
 143 474 l 1,11,-1
 143 0 l 1,12,-1
 83 0 l 1,13,-1
 83 531 l 1,0,-1
EndSplineSet
Validated: 1048577
EndChar

StartChar: eng
Encoding: 331 331 608
Width: 600
GlyphClass: 1
Flags: W
LayerCount: 2
Fore
SplineSet
286 -216 m 1,1,-1
 286 -161 l 1,2,3
 306 -164 306 -164 325 -164 c 0,4,5
 373 -164 373 -164 401 -136 c 128,-1,6
 429 -108 429 -108 429 -56 c 2,7,-1
 429 330 l 2,8,9
 429 401 429 401 387.5 442.5 c 128,-1,10
 346 484 346 484 281 484 c 0,11,12
 213 484 213 484 172 438.5 c 128,-1,13
 131 393 131 393 131 320 c 2,14,-1
 131 0 l 1,15,-1
 71 0 l 1,16,-1
 71 531 l 1,17,-1
 131 531 l 1,18,-1
 131 459 l 1,19,20
 154 498 154 498 195.5 520.5 c 128,-1,21
 237 543 237 543 289 543 c 0,22,23
 344 543 344 543 389.5 518 c 128,-1,24
 435 493 435 493 462 448 c 128,-1,25
 489 403 489 403 489 347 c 2,26,-1
 489 -56 l 2,27,28
 489 -134 489 -134 443.5 -177 c 128,-1,29
 398 -220 398 -220 326 -220 c 0,30,0
 299 -220 299 -220 286 -216 c 1,1,-1
EndSplineSet
Validated: 1
Substitution2: "'ss03' Style Set 3 in Latin lookup 22 subtable" eng.ss03
Substitution2: "'ss01' Style Set 1 in Latin lookup 20 subtable" eng.ss01
Substitution2: "'salt' Stylistic Alternatives in Latin lookup 19 subtable" eng.ss01
AlternateSubs2: "'aalt' Access All Alternates in Latin lookup 1 subtable" eng.ss01 eng.ss03
EndChar

StartChar: eng.ss01
Encoding: 65790 -1 609
Width: 572
GlyphClass: 1
Flags: W
LayerCount: 2
Fore
SplineSet
298 -216 m 1,1,-1
 298 -161 l 1,2,3
 316 -164 316 -164 337 -164 c 0,4,5
 384 -164 384 -164 412 -136 c 128,-1,6
 440 -108 440 -108 440 -56 c 2,7,-1
 440 474 l 1,8,-1
 143 474 l 1,9,-1
 143 0 l 1,10,-1
 83 0 l 1,11,-1
 83 531 l 1,12,-1
 500 531 l 1,13,-1
 500 -56 l 2,14,15
 500 -134 500 -134 454.5 -177 c 128,-1,16
 409 -220 409 -220 337 -220 c 0,17,0
 311 -220 311 -220 298 -216 c 1,1,-1
EndSplineSet
Validated: 1
EndChar

StartChar: eng.ss03
Encoding: 65791 -1 610
Width: 572
GlyphClass: 1
Flags: W
LayerCount: 2
Fore
SplineSet
298 -216 m 1,1,-1
 298 -161 l 1,2,3
 316 -164 316 -164 337 -164 c 0,4,5
 384 -164 384 -164 412 -136 c 128,-1,6
 440 -108 440 -108 440 -56 c 2,7,-1
 440 332 l 2,8,9
 440 397 440 397 402 435.5 c 128,-1,10
 364 474 364 474 300 474 c 2,11,-1
 143 474 l 1,12,-1
 143 0 l 1,13,-1
 83 0 l 1,14,-1
 83 531 l 1,15,-1
 300 531 l 2,16,17
 392 531 392 531 446 477.5 c 128,-1,18
 500 424 500 424 500 332 c 2,19,-1
 500 -56 l 2,20,21
 500 -134 500 -134 454.5 -177 c 128,-1,22
 409 -220 409 -220 337 -220 c 0,23,0
 311 -220 311 -220 298 -216 c 1,1,-1
EndSplineSet
Validated: 1
EndChar

StartChar: o
Encoding: 111 111 611
Width: 659
GlyphClass: 2
Flags: W
AnchorPoint: "Anchor-7" 639 531 basechar 0
AnchorPoint: "Anchor-6" 330 531 basechar 0
AnchorPoint: "Anchor-5" 380 35 basechar 0
AnchorPoint: "Anchor-4" 330 0 basechar 0
LayerCount: 2
Fore
SplineSet
193.5 24.5 m 128,-1,1
 132 61 132 61 96.5 124.5 c 128,-1,2
 61 188 61 188 61 266 c 256,3,4
 61 344 61 344 96 407.5 c 128,-1,5
 131 471 131 471 192.5 507 c 128,-1,6
 254 543 254 543 330 543 c 256,7,8
 406 543 406 543 467 507 c 128,-1,9
 528 471 528 471 563 407.5 c 128,-1,10
 598 344 598 344 598 266 c 0,11,12
 598 187 598 187 562.5 123.5 c 128,-1,13
 527 60 527 60 465.5 24 c 128,-1,14
 404 -12 404 -12 330 -12 c 0,15,0
 255 -12 255 -12 193.5 24.5 c 128,-1,1
152 155 m 128,-1,17
 179 105 179 105 226 76 c 128,-1,18
 273 47 273 47 330 47 c 0,19,20
 386 47 386 47 433 76 c 128,-1,21
 480 105 480 105 507 155 c 128,-1,22
 534 205 534 205 534 266 c 256,23,24
 534 327 534 327 507 377 c 128,-1,25
 480 427 480 427 433.5 455.5 c 128,-1,26
 387 484 387 484 330 484 c 256,27,28
 273 484 273 484 226 455.5 c 128,-1,29
 179 427 179 427 152 377 c 128,-1,30
 125 327 125 327 125 266 c 256,31,16
 125 205 125 205 152 155 c 128,-1,17
EndSplineSet
Validated: 1
Substitution2: "Single Substitution lookup 28 subtable" ordmasculine
Substitution2: "'aalt' Access All Alternates in Latin lookup 0 subtable" ordmasculine
EndChar

StartChar: ohorn
Encoding: 417 417 627
Width: 659
GlyphClass: 2
Flags: W
AnchorPoint: "Anchor-7" 639 531 basechar 0
AnchorPoint: "Anchor-6" 330 531 basechar 0
AnchorPoint: "Anchor-5" 380 35 basechar 0
AnchorPoint: "Anchor-4" 330 0 basechar 0
LayerCount: 2
Fore
SplineSet
193.5 24.5 m 128,-1,1
 132 61 132 61 96.5 124.5 c 128,-1,2
 61 188 61 188 61 266 c 256,3,4
 61 344 61 344 96 407.5 c 128,-1,5
 131 471 131 471 192.5 507 c 128,-1,6
 254 543 254 543 330 543 c 2,7,-1
 443 543 l 2,8,9
 495 543 495 543 495 597 c 0,10,11
 495 616 495 616 489.5 634.5 c 128,-1,12
 484 653 484 653 474 678 c 1,13,-1
 533 678 l 1,14,15
 555 627 555 627 555 591 c 0,16,17
 555 552 555 552 536 528 c 128,-1,18
 517 504 517 504 484 496 c 1,19,20
 537 459 537 459 567.5 398.5 c 128,-1,21
 598 338 598 338 598 266 c 0,22,23
 598 187 598 187 562.5 123.5 c 128,-1,24
 527 60 527 60 465.5 24 c 128,-1,25
 404 -12 404 -12 330 -12 c 0,26,0
 255 -12 255 -12 193.5 24.5 c 128,-1,1
152 155 m 128,-1,28
 179 105 179 105 226 76 c 128,-1,29
 273 47 273 47 330 47 c 0,30,31
 386 47 386 47 433 76 c 128,-1,32
 480 105 480 105 507 155 c 128,-1,33
 534 205 534 205 534 266 c 256,34,35
 534 327 534 327 507 377 c 128,-1,36
 480 427 480 427 433.5 455.5 c 128,-1,37
 387 484 387 484 330 484 c 256,38,39
 273 484 273 484 226 455.5 c 128,-1,40
 179 427 179 427 152 377 c 128,-1,41
 125 327 125 327 125 266 c 256,42,27
 125 205 125 205 152 155 c 128,-1,28
EndSplineSet
Validated: 1
EndChar

StartChar: uni01EB
Encoding: 491 491 638
Width: 659
GlyphClass: 2
Flags: W
AnchorPoint: "Anchor-7" 639 531 basechar 0
AnchorPoint: "Anchor-6" 330 531 basechar 0
AnchorPoint: "Anchor-5" 380 35 basechar 0
AnchorPoint: "Anchor-4" 330 0 basechar 0
LayerCount: 2
Fore
SplineSet
433 76 m 128,-1,1
 480 105 480 105 507 155 c 128,-1,2
 534 205 534 205 534 266 c 256,3,4
 534 327 534 327 507 377 c 128,-1,5
 480 427 480 427 433.5 455.5 c 128,-1,6
 387 484 387 484 330 484 c 256,7,8
 273 484 273 484 226 455.5 c 128,-1,9
 179 427 179 427 152 377 c 128,-1,10
 125 327 125 327 125 266 c 256,11,12
 125 205 125 205 152 155 c 128,-1,13
 179 105 179 105 226 76 c 128,-1,14
 273 47 273 47 330 47 c 0,15,0
 386 47 386 47 433 76 c 128,-1,1
96 407.5 m 128,-1,17
 131 471 131 471 192.5 507 c 128,-1,18
 254 543 254 543 330 543 c 256,19,20
 406 543 406 543 467 507 c 128,-1,21
 528 471 528 471 563 407.5 c 128,-1,22
 598 344 598 344 598 266 c 0,23,24
 598 189 598 189 564 126.5 c 128,-1,25
 530 64 530 64 471.5 27.5 c 128,-1,26
 413 -9 413 -9 341 -12 c 1,27,28
 311 -39 311 -39 311 -72 c 0,29,30
 311 -94 311 -94 325 -106.5 c 128,-1,31
 339 -119 339 -119 362 -119 c 0,32,33
 392 -119 392 -119 429 -93 c 1,34,-1
 451 -127 l 1,35,36
 410 -162 410 -162 358 -162 c 0,37,38
 317 -162 317 -162 290.5 -140 c 128,-1,39
 264 -118 264 -118 264 -82 c 0,40,41
 264 -43 264 -43 295 -10 c 1,42,43
 228 -2 228 -2 174.5 36 c 128,-1,44
 121 74 121 74 91 134 c 128,-1,45
 61 194 61 194 61 266 c 0,46,16
 61 344 61 344 96 407.5 c 128,-1,17
EndSplineSet
Validated: 1
EndChar

StartChar: oslash
Encoding: 248 248 639
Width: 659
GlyphClass: 2
Flags: W
AnchorPoint: "Anchor-7" 639 531 basechar 0
AnchorPoint: "Anchor-6" 330 531 basechar 0
AnchorPoint: "Anchor-5" 380 35 basechar 0
AnchorPoint: "Anchor-4" 330 0 basechar 0
LayerCount: 2
Fore
SplineSet
174 37 m 1,1,-1
 144 0 l 1,2,-1
 72 0 l 1,3,-1
 133 73 l 1,4,5
 99 110 99 110 80 160 c 128,-1,6
 61 210 61 210 61 266 c 0,7,8
 61 344 61 344 96 407.5 c 128,-1,9
 131 471 131 471 192.5 507 c 128,-1,10
 254 543 254 543 330 543 c 0,11,12
 418 543 418 543 485 495 c 1,13,-1
 515 531 l 1,14,-1
 587 531 l 1,15,-1
 527 459 l 1,16,17
 561 421 561 421 579.5 372 c 128,-1,18
 598 323 598 323 598 266 c 0,19,20
 598 187 598 187 562.5 123.5 c 128,-1,21
 527 60 527 60 465.5 24 c 128,-1,22
 404 -12 404 -12 330 -12 c 0,23,0
 244 -12 244 -12 174 37 c 1,1,-1
174 122 m 1,25,-1
 445 448 l 1,26,27
 395 484 395 484 330 484 c 0,28,29
 273 484 273 484 226 455.5 c 128,-1,30
 179 427 179 427 152 377 c 128,-1,31
 125 327 125 327 125 266 c 0,32,24
 125 182 125 182 174 122 c 1,25,-1
330 47 m 0,34,35
 386 47 386 47 433 76 c 128,-1,36
 480 105 480 105 507 155 c 128,-1,37
 534 205 534 205 534 266 c 0,38,39
 534 307 534 307 521.5 344 c 128,-1,40
 509 381 509 381 486 409 c 1,41,-1
 214 84 l 1,42,33
 267 47 267 47 330 47 c 0,34,35
EndSplineSet
Validated: 1
EndChar

StartChar: oe
Encoding: 339 339 645
Width: 1099
GlyphClass: 1
Flags: W
LayerCount: 2
Fore
SplineSet
193.5 24.5 m 128,-1,1
 132 61 132 61 96.5 124.5 c 128,-1,2
 61 188 61 188 61 266 c 256,3,4
 61 344 61 344 96 407.5 c 128,-1,5
 131 471 131 471 192.5 507 c 128,-1,6
 254 543 254 543 330 543 c 0,7,8
 409 543 409 543 472 503.5 c 128,-1,9
 535 464 535 464 568 397 c 1,10,11
 600 465 600 465 660 504 c 128,-1,12
 720 543 720 543 795 543 c 0,13,14
 866 543 866 543 921.5 508.5 c 128,-1,15
 977 474 977 474 1008 416.5 c 128,-1,16
 1039 359 1039 359 1039 291 c 0,17,18
 1039 268 1039 268 1035 247 c 1,19,-1
 601 247 l 1,20,21
 603 188 603 188 631 142 c 128,-1,22
 659 96 659 96 704.5 70 c 128,-1,23
 750 44 750 44 804 44 c 0,24,25
 860 44 860 44 903.5 71 c 128,-1,26
 947 98 947 98 975 145 c 1,27,-1
 1026 118 l 1,28,29
 998 60 998 60 938.5 24 c 128,-1,30
 879 -12 879 -12 804 -12 c 0,31,32
 726 -12 726 -12 663.5 28 c 128,-1,33
 601 68 601 68 568 136 c 1,34,35
 535 68 535 68 471.5 28 c 128,-1,36
 408 -12 408 -12 330 -12 c 0,37,0
 255 -12 255 -12 193.5 24.5 c 128,-1,1
152 155 m 128,-1,39
 179 105 179 105 226 76 c 128,-1,40
 273 47 273 47 330 47 c 0,41,42
 386 47 386 47 433 76 c 128,-1,43
 480 105 480 105 507 155 c 128,-1,44
 534 205 534 205 534 266 c 256,45,46
 534 327 534 327 507 377 c 128,-1,47
 480 427 480 427 433.5 455.5 c 128,-1,48
 387 484 387 484 330 484 c 256,49,50
 273 484 273 484 226 455.5 c 128,-1,51
 179 427 179 427 152 377 c 128,-1,52
 125 327 125 327 125 266 c 256,53,38
 125 205 125 205 152 155 c 128,-1,39
975 302 m 1,54,55
 975 354 975 354 951 396.5 c 128,-1,56
 927 439 927 439 885.5 463 c 128,-1,57
 844 487 844 487 795 487 c 256,58,59
 746 487 746 487 704 463.5 c 128,-1,60
 662 440 662 440 634.5 397.5 c 128,-1,61
 607 355 607 355 602 302 c 1,62,-1
 975 302 l 1,54,55
EndSplineSet
Validated: 1
EndChar

StartChar: p
Encoding: 112 112 646
Width: 671
GlyphClass: 2
Flags: W
AnchorPoint: "Anchor-6" 336 531 basechar 0
AnchorPoint: "Anchor-4" 336 0 basechar 0
LayerCount: 2
Fore
SplineSet
83 531 m 1,0,-1
 143 531 l 1,1,-1
 143 433 l 1,2,3
 175 484 175 484 229 513.5 c 128,-1,4
 283 543 283 543 349 543 c 0,5,6
 422 543 422 543 482 507 c 128,-1,7
 542 471 542 471 576 407.5 c 128,-1,8
 610 344 610 344 610 266 c 256,9,10
 610 188 610 188 576 124.5 c 128,-1,11
 542 61 542 61 482 24.5 c 128,-1,12
 422 -12 422 -12 349 -12 c 0,13,14
 283 -12 283 -12 228.5 18 c 128,-1,15
 174 48 174 48 143 101 c 1,16,-1
 143 -200 l 1,17,-1
 83 -200 l 1,18,-1
 83 531 l 1,0,-1
170.5 154.5 m 128,-1,20
 197 105 197 105 243.5 76.5 c 128,-1,21
 290 48 290 48 347 48 c 256,22,23
 404 48 404 48 449.5 76.5 c 128,-1,24
 495 105 495 105 520.5 154.5 c 128,-1,25
 546 204 546 204 546 266 c 0,26,27
 546 327 546 327 520 376.5 c 128,-1,28
 494 426 494 426 448.5 454.5 c 128,-1,29
 403 483 403 483 347 483 c 0,30,31
 290 483 290 483 243.5 454.5 c 128,-1,32
 197 426 197 426 170.5 376.5 c 128,-1,33
 144 327 144 327 144 266 c 0,34,19
 144 204 144 204 170.5 154.5 c 128,-1,20
EndSplineSet
Validated: 1048577
Substitution2: "'ss02' Style Set 2 in Latin lookup 21 subtable" p.ss02
Substitution2: "'aalt' Access All Alternates in Latin lookup 0 subtable" p.ss02
EndChar

StartChar: p.ss02
Encoding: 65792 -1 647
Width: 705
GlyphClass: 1
Flags: W
LayerCount: 2
Fore
SplineSet
117 476 m 1,0,-1
 42 476 l 1,1,-1
 42 531 l 1,2,-1
 177 531 l 1,3,-1
 177 433 l 1,4,5
 209 484 209 484 263 513.5 c 128,-1,6
 317 543 317 543 383 543 c 0,7,8
 456 543 456 543 516 507 c 128,-1,9
 576 471 576 471 610 407.5 c 128,-1,10
 644 344 644 344 644 266 c 256,11,12
 644 188 644 188 610 124.5 c 128,-1,13
 576 61 576 61 516 24.5 c 128,-1,14
 456 -12 456 -12 383 -12 c 0,15,16
 317 -12 317 -12 262.5 18 c 128,-1,17
 208 48 208 48 177 101 c 1,18,-1
 177 -200 l 1,19,-1
 117 -200 l 1,20,-1
 117 476 l 1,0,-1
204.5 154.5 m 128,-1,22
 231 105 231 105 277.5 76.5 c 128,-1,23
 324 48 324 48 381 48 c 256,24,25
 438 48 438 48 483.5 76.5 c 128,-1,26
 529 105 529 105 554.5 154.5 c 128,-1,27
 580 204 580 204 580 266 c 0,28,29
 580 327 580 327 554 376.5 c 128,-1,30
 528 426 528 426 482.5 454.5 c 128,-1,31
 437 483 437 483 381 483 c 0,32,33
 324 483 324 483 277.5 454.5 c 128,-1,34
 231 426 231 426 204.5 376.5 c 128,-1,35
 178 327 178 327 178 266 c 0,36,21
 178 204 178 204 204.5 154.5 c 128,-1,22
EndSplineSet
Validated: 1
EndChar

StartChar: thorn
Encoding: 254 254 648
Width: 671
GlyphClass: 1
Flags: W
LayerCount: 2
Fore
SplineSet
83 745 m 1,0,-1
 143 745 l 1,1,-1
 143 433 l 1,2,3
 175 484 175 484 229 513.5 c 128,-1,4
 283 543 283 543 349 543 c 0,5,6
 422 543 422 543 482 507 c 128,-1,7
 542 471 542 471 576 407.5 c 128,-1,8
 610 344 610 344 610 266 c 256,9,10
 610 188 610 188 576 124.5 c 128,-1,11
 542 61 542 61 482 24.5 c 128,-1,12
 422 -12 422 -12 349 -12 c 0,13,14
 283 -12 283 -12 228.5 18 c 128,-1,15
 174 48 174 48 143 101 c 1,16,-1
 143 -200 l 1,17,-1
 83 -200 l 1,18,-1
 83 745 l 1,0,-1
170.5 154.5 m 128,-1,20
 197 105 197 105 243.5 76.5 c 128,-1,21
 290 48 290 48 347 48 c 256,22,23
 404 48 404 48 449.5 76.5 c 128,-1,24
 495 105 495 105 520.5 154.5 c 128,-1,25
 546 204 546 204 546 266 c 0,26,27
 546 327 546 327 520 376.5 c 128,-1,28
 494 426 494 426 448.5 454.5 c 128,-1,29
 403 483 403 483 347 483 c 0,30,31
 290 483 290 483 243.5 454.5 c 128,-1,32
 197 426 197 426 170.5 376.5 c 128,-1,33
 144 327 144 327 144 266 c 0,34,19
 144 204 144 204 170.5 154.5 c 128,-1,20
EndSplineSet
Validated: 1
EndChar

StartChar: q
Encoding: 113 113 649
Width: 671
GlyphClass: 2
Flags: W
AnchorPoint: "Anchor-6" 336 531 basechar 0
AnchorPoint: "Anchor-4" 336 0 basechar 0
LayerCount: 2
Fore
SplineSet
528 101 m 1,0,1
 497 48 497 48 442.5 18 c 128,-1,2
 388 -12 388 -12 322 -12 c 0,3,4
 249 -12 249 -12 189 24.5 c 128,-1,5
 129 61 129 61 95 124.5 c 128,-1,6
 61 188 61 188 61 266 c 256,7,8
 61 344 61 344 95 407.5 c 128,-1,9
 129 471 129 471 189 507 c 128,-1,10
 249 543 249 543 322 543 c 0,11,12
 388 543 388 543 442 513.5 c 128,-1,13
 496 484 496 484 528 433 c 1,14,-1
 528 531 l 1,15,-1
 588 531 l 1,16,-1
 588 -200 l 1,17,-1
 528 -200 l 1,18,-1
 528 101 l 1,0,1
150.5 154.5 m 128,-1,20
 176 105 176 105 221.5 76.5 c 128,-1,21
 267 48 267 48 324 48 c 256,22,23
 381 48 381 48 427.5 76.5 c 128,-1,24
 474 105 474 105 500.5 154.5 c 128,-1,25
 527 204 527 204 527 266 c 0,26,27
 527 327 527 327 500.5 376.5 c 128,-1,28
 474 426 474 426 427.5 454.5 c 128,-1,29
 381 483 381 483 324 483 c 0,30,31
 268 483 268 483 222.5 454.5 c 128,-1,32
 177 426 177 426 151 376.5 c 128,-1,33
 125 327 125 327 125 266 c 0,34,19
 125 204 125 204 150.5 154.5 c 128,-1,20
EndSplineSet
Validated: 1048577
Substitution2: "'ss02' Style Set 2 in Latin lookup 21 subtable" q.ss02
Substitution2: "'aalt' Access All Alternates in Latin lookup 0 subtable" q.ss02
EndChar

StartChar: q.ss02
Encoding: 65793 -1 650
Width: 705
GlyphClass: 1
Flags: W
LayerCount: 2
Fore
SplineSet
528 101 m 1,0,1
 497 48 497 48 442.5 18 c 128,-1,2
 388 -12 388 -12 322 -12 c 0,3,4
 249 -12 249 -12 189 24.5 c 128,-1,5
 129 61 129 61 95 124.5 c 128,-1,6
 61 188 61 188 61 266 c 256,7,8
 61 344 61 344 95 407.5 c 128,-1,9
 129 471 129 471 189 507 c 128,-1,10
 249 543 249 543 322 543 c 0,11,12
 388 543 388 543 442 513.5 c 128,-1,13
 496 484 496 484 528 433 c 1,14,-1
 528 531 l 1,15,-1
 663 531 l 1,16,-1
 663 476 l 1,17,-1
 588 476 l 1,18,-1
 588 -200 l 1,19,-1
 528 -200 l 1,20,-1
 528 101 l 1,0,1
150.5 154.5 m 128,-1,22
 176 105 176 105 221.5 76.5 c 128,-1,23
 267 48 267 48 324 48 c 256,24,25
 381 48 381 48 427.5 76.5 c 128,-1,26
 474 105 474 105 500.5 154.5 c 128,-1,27
 527 204 527 204 527 266 c 0,28,29
 527 327 527 327 500.5 376.5 c 128,-1,30
 474 426 474 426 427.5 454.5 c 128,-1,31
 381 483 381 483 324 483 c 0,32,33
 268 483 268 483 222.5 454.5 c 128,-1,34
 177 426 177 426 151 376.5 c 128,-1,35
 125 327 125 327 125 266 c 0,36,21
 125 204 125 204 150.5 154.5 c 128,-1,22
EndSplineSet
Validated: 1
EndChar

StartChar: r
Encoding: 114 114 651
Width: 339
GlyphClass: 2
Flags: W
AnchorPoint: "Anchor-6" 203 531 basechar 0
AnchorPoint: "Anchor-4" 113 0 basechar 0
LayerCount: 2
Fore
SplineSet
83 531 m 1,0,-1
 143 531 l 1,1,-1
 143 464 l 1,2,3
 163 499 163 499 201.5 518.5 c 128,-1,4
 240 538 240 538 289 538 c 2,5,-1
 323 538 l 1,6,-1
 323 478 l 1,7,-1
 282 478 l 2,8,9
 218 478 218 478 180.5 436.5 c 128,-1,10
 143 395 143 395 143 325 c 2,11,-1
 143 0 l 1,12,-1
 83 0 l 1,13,-1
 83 531 l 1,0,-1
EndSplineSet
Validated: 1048577
Substitution2: "'ss02' Style Set 2 in Latin lookup 21 subtable" r.ss02
Substitution2: "'ss01' Style Set 1 in Latin lookup 20 subtable" r.ss01
Substitution2: "'salt' Stylistic Alternatives in Latin lookup 19 subtable" r.ss01
AlternateSubs2: "'aalt' Access All Alternates in Latin lookup 1 subtable" r.ss01 r.ss02
EndChar

StartChar: r.ss01
Encoding: 65794 -1 652
Width: 349
GlyphClass: 2
Flags: W
AnchorPoint: "Anchor-6" 203 531 basechar 0
AnchorPoint: "Anchor-4" 113 0 basechar 0
LayerCount: 2
Fore
SplineSet
83 531 m 1,0,-1
 333 531 l 1,1,-1
 333 471 l 1,2,-1
 143 471 l 1,3,-1
 143 0 l 1,4,-1
 83 0 l 1,5,-1
 83 531 l 1,0,-1
EndSplineSet
Validated: 1048577
EndChar

StartChar: r.ss02
Encoding: 65795 -1 653
Width: 368
GlyphClass: 2
Flags: W
AnchorPoint: "Anchor-6" 197 531 basechar 0
AnchorPoint: "Anchor-4" 147 0 basechar 0
LayerCount: 2
Fore
SplineSet
42 60 m 1,0,-1
 112 60 l 1,1,-1
 112 471 l 1,2,-1
 42 471 l 1,3,-1
 42 531 l 1,4,-1
 172 531 l 1,5,-1
 172 464 l 1,6,7
 192 499 192 499 230.5 518 c 128,-1,8
 269 537 269 537 318 537 c 2,9,-1
 352 537 l 1,10,-1
 352 477 l 1,11,-1
 311 477 l 2,12,13
 247 477 247 477 209.5 436 c 128,-1,14
 172 395 172 395 172 325 c 2,15,-1
 172 60 l 1,16,-1
 252 60 l 1,17,-1
 252 0 l 1,18,-1
 42 0 l 1,19,-1
 42 60 l 1,0,-1
EndSplineSet
Validated: 1048577
EndChar

StartChar: s
Encoding: 115 115 675
Width: 508
GlyphClass: 2
Flags: W
AnchorPoint: "Anchor-6" 254 531 basechar 0
AnchorPoint: "Anchor-4" 254 0 basechar 0
LayerCount: 2
Fore
SplineSet
136 23.5 m 128,-1,1
 80 59 80 59 52 122 c 1,2,-1
 104 148 l 1,3,4
 130 99 130 99 172 71.5 c 128,-1,5
 214 44 214 44 263 44 c 0,6,7
 316 44 316 44 351.5 70.5 c 128,-1,8
 387 97 387 97 387 138 c 0,9,10
 387 175 387 175 360 199 c 128,-1,11
 333 223 333 223 293 231 c 2,12,-1
 211 246 l 1,13,14
 142 263 142 263 108 302 c 128,-1,15
 74 341 74 341 74 394 c 0,16,17
 74 438 74 438 97 472 c 128,-1,18
 120 506 120 506 159.5 524.5 c 128,-1,19
 199 543 199 543 247 543 c 0,20,21
 312 543 312 543 365 509.5 c 128,-1,22
 418 476 418 476 440 421 c 1,23,-1
 387 394 l 1,24,25
 365 438 365 438 327.5 463 c 128,-1,26
 290 488 290 488 245 488 c 0,27,28
 197 488 197 488 166.5 462.5 c 128,-1,29
 136 437 136 437 136 398 c 0,30,31
 136 362 136 362 160.5 339 c 128,-1,32
 185 316 185 316 221 309 c 2,33,-1
 310 293 l 1,34,35
 376 276 376 276 412.5 234.5 c 128,-1,36
 449 193 449 193 449 139 c 0,37,38
 449 96 449 96 425 61.5 c 128,-1,39
 401 27 401 27 359 7.5 c 128,-1,40
 317 -12 317 -12 264 -12 c 0,41,0
 192 -12 192 -12 136 23.5 c 128,-1,1
EndSplineSet
Validated: 1048577
EndChar

StartChar: scedilla
Encoding: 351 351 680
Width: 508
GlyphClass: 2
Flags: W
AnchorPoint: "Anchor-4" 254 0 basechar 0
LayerCount: 2
Fore
SplineSet
234.5 -210.5 m 128,-1,1
 214 -206 214 -206 200 -199 c 1,2,-1
 213 -163 l 1,3,4
 243 -175 243 -175 272 -175 c 0,5,6
 296 -175 296 -175 309 -164 c 128,-1,7
 322 -153 322 -153 322 -134 c 0,8,9
 322 -118 322 -118 312 -108.5 c 128,-1,10
 302 -99 302 -99 284 -99 c 0,11,12
 264 -99 264 -99 242 -111 c 1,13,-1
 222 -103 l 1,14,-1
 232 -10 l 1,15,16
 170 -2 170 -2 123 32.5 c 128,-1,17
 76 67 76 67 52 122 c 1,18,-1
 104 148 l 1,19,20
 130 99 130 99 172 71.5 c 128,-1,21
 214 44 214 44 263 44 c 0,22,23
 316 44 316 44 351.5 70.5 c 128,-1,24
 387 97 387 97 387 138 c 0,25,26
 387 175 387 175 360 199 c 128,-1,27
 333 223 333 223 293 231 c 2,28,-1
 211 246 l 1,29,30
 142 263 142 263 108 302 c 128,-1,31
 74 341 74 341 74 394 c 0,32,33
 74 438 74 438 97 472 c 128,-1,34
 120 506 120 506 159.5 524.5 c 128,-1,35
 199 543 199 543 247 543 c 0,36,37
 312 543 312 543 365 509.5 c 128,-1,38
 418 476 418 476 440 421 c 1,39,-1
 387 394 l 1,40,41
 365 438 365 438 327.5 463 c 128,-1,42
 290 488 290 488 245 488 c 0,43,44
 197 488 197 488 166.5 462.5 c 128,-1,45
 136 437 136 437 136 398 c 0,46,47
 136 362 136 362 160.5 339 c 128,-1,48
 185 316 185 316 221 309 c 2,49,-1
 310 293 l 1,50,51
 376 276 376 276 412.5 234.5 c 128,-1,52
 449 193 449 193 449 139 c 0,53,54
 449 76 449 76 399.5 34 c 128,-1,55
 350 -8 350 -8 274 -12 c 1,56,-1
 269 -65 l 1,57,58
 285 -61 285 -61 295 -61 c 0,59,60
 328 -61 328 -61 349 -81 c 128,-1,61
 370 -101 370 -101 370 -132 c 0,62,63
 370 -168 370 -168 343.5 -191.5 c 128,-1,64
 317 -215 317 -215 274 -215 c 0,65,0
 255 -215 255 -215 234.5 -210.5 c 128,-1,1
EndSplineSet
Validated: 1048577
Substitution2: "'locl' Localized Forms in Latin lookup 6 subtable" uni0219
Substitution2: "'aalt' Access All Alternates in Latin lookup 0 subtable" uni0219
EndChar

StartChar: germandbls
Encoding: 223 223 686
Width: 604
GlyphClass: 1
Flags: W
LayerCount: 2
Fore
SplineSet
122 657 m 128,-1,1
 150 705 150 705 198.5 731 c 128,-1,2
 247 757 247 757 307 757 c 0,3,4
 366 757 366 757 413 733.5 c 128,-1,5
 460 710 460 710 486.5 666.5 c 128,-1,6
 513 623 513 623 513 566 c 0,7,8
 513 507 513 507 486.5 464.5 c 128,-1,9
 460 422 460 422 411 398 c 1,10,11
 544 344 544 344 544 212 c 0,12,13
 544 149 544 149 514.5 101 c 128,-1,14
 485 53 485 53 433 26.5 c 128,-1,15
 381 0 381 0 313 0 c 2,16,-1
 249 0 l 1,17,-1
 249 58 l 1,18,-1
 313 58 l 2,19,20
 387 58 387 58 432.5 100.5 c 128,-1,21
 478 143 478 143 478 212 c 256,22,23
 478 281 478 281 432 323.5 c 128,-1,24
 386 366 386 366 310 366 c 2,25,-1
 249 366 l 1,26,-1
 249 424 l 1,27,-1
 303 424 l 2,28,29
 366 424 366 424 407 462.5 c 128,-1,30
 448 501 448 501 448 563 c 0,31,32
 448 623 448 623 408.5 661.5 c 128,-1,33
 369 700 369 700 306 700 c 0,34,35
 240 700 240 700 197 657.5 c 128,-1,36
 154 615 154 615 154 546 c 2,37,-1
 154 -145 l 1,38,-1
 94 -145 l 1,39,-1
 94 546 l 2,40,0
 94 609 94 609 122 657 c 128,-1,1
EndSplineSet
Validated: 1
EndChar

StartChar: t
Encoding: 116 116 687
Width: 384
GlyphClass: 2
Flags: W
AnchorPoint: "Anchor-7" 256 595 basechar 0
AnchorPoint: "Anchor-6" 168 655 basechar 0
AnchorPoint: "Anchor-4" 257 0 basechar 0
LayerCount: 2
Fore
SplineSet
173.5 31.5 m 128,-1,1
 138 69 138 69 138 141 c 2,2,-1
 138 474 l 1,3,-1
 38 474 l 1,4,-1
 38 531 l 1,5,-1
 76 531 l 2,6,7
 105 531 105 531 121.5 548.5 c 128,-1,8
 138 566 138 566 138 598 c 2,9,-1
 138 655 l 1,10,-1
 198 655 l 1,11,-1
 198 531 l 1,12,-1
 314 531 l 1,13,-1
 314 474 l 1,14,-1
 198 474 l 1,15,-1
 198 141 l 2,16,17
 198 51 198 51 285 51 c 0,18,19
 308 51 308 51 323 54 c 1,20,-1
 323 -1 l 1,21,22
 304 -6 304 -6 276 -6 c 0,23,0
 209 -6 209 -6 173.5 31.5 c 128,-1,1
EndSplineSet
Validated: 1048577
Substitution2: "'ss01' Style Set 1 in Latin lookup 20 subtable" t.ss01
Substitution2: "'salt' Stylistic Alternatives in Latin lookup 19 subtable" t.ss01
Substitution2: "'aalt' Access All Alternates in Latin lookup 0 subtable" t.ss01
EndChar

StartChar: t.ss01
Encoding: 65810 -1 688
Width: 384
GlyphClass: 2
Flags: W
AnchorPoint: "Anchor-7" 256 595 basechar 0
AnchorPoint: "Anchor-6" 168 655 basechar 0
AnchorPoint: "Anchor-4" 231 0 basechar 0
LayerCount: 2
Fore
SplineSet
138 474 m 1,0,-1
 38 474 l 1,1,-1
 38 531 l 1,2,-1
 138 531 l 1,3,-1
 138 655 l 1,4,-1
 198 655 l 1,5,-1
 198 531 l 1,6,-1
 314 531 l 1,7,-1
 314 474 l 1,8,-1
 198 474 l 1,9,-1
 198 58 l 1,10,-1
 323 58 l 1,11,-1
 323 0 l 1,12,-1
 138 0 l 1,13,-1
 138 474 l 1,0,-1
EndSplineSet
Validated: 1048577
EndChar

StartChar: tbar
Encoding: 359 359 689
Width: 384
GlyphClass: 2
Flags: W
AnchorPoint: "Anchor-7" 256 595 basechar 0
AnchorPoint: "Anchor-6" 168 655 basechar 0
AnchorPoint: "Anchor-4" 257 0 basechar 0
LayerCount: 2
Fore
SplineSet
173.5 31.5 m 128,-1,1
 138 69 138 69 138 141 c 2,2,-1
 138 237 l 1,3,-1
 40 237 l 1,4,-1
 40 294 l 1,5,-1
 138 294 l 1,6,-1
 138 474 l 1,7,-1
 38 474 l 1,8,-1
 38 531 l 1,9,-1
 76 531 l 2,10,11
 105 531 105 531 121.5 548.5 c 128,-1,12
 138 566 138 566 138 598 c 2,13,-1
 138 655 l 1,14,-1
 198 655 l 1,15,-1
 198 531 l 1,16,-1
 314 531 l 1,17,-1
 314 474 l 1,18,-1
 198 474 l 1,19,-1
 198 294 l 1,20,-1
 316 294 l 1,21,-1
 316 237 l 1,22,-1
 198 237 l 1,23,-1
 198 141 l 2,24,25
 198 51 198 51 285 51 c 0,26,27
 308 51 308 51 323 54 c 1,28,-1
 323 -1 l 1,29,30
 304 -6 304 -6 276 -6 c 0,31,0
 209 -6 209 -6 173.5 31.5 c 128,-1,1
EndSplineSet
Validated: 1048577
Substitution2: "'ss01' Style Set 1 in Latin lookup 20 subtable" tbar.ss01
Substitution2: "'salt' Stylistic Alternatives in Latin lookup 19 subtable" tbar.ss01
Substitution2: "'aalt' Access All Alternates in Latin lookup 0 subtable" tbar.ss01
EndChar

StartChar: tbar.ss01
Encoding: 65811 -1 690
Width: 384
GlyphClass: 2
Flags: W
AnchorPoint: "Anchor-7" 256 595 basechar 0
AnchorPoint: "Anchor-6" 168 655 basechar 0
AnchorPoint: "Anchor-4" 231 0 basechar 0
LayerCount: 2
Fore
SplineSet
138 237 m 1,0,-1
 40 237 l 1,1,-1
 40 294 l 1,2,-1
 138 294 l 1,3,-1
 138 474 l 1,4,-1
 38 474 l 1,5,-1
 38 531 l 1,6,-1
 138 531 l 1,7,-1
 138 655 l 1,8,-1
 198 655 l 1,9,-1
 198 531 l 1,10,-1
 314 531 l 1,11,-1
 314 474 l 1,12,-1
 198 474 l 1,13,-1
 198 294 l 1,14,-1
 316 294 l 1,15,-1
 316 237 l 1,16,-1
 198 237 l 1,17,-1
 198 58 l 1,18,-1
 323 58 l 1,19,-1
 323 0 l 1,20,-1
 138 0 l 1,21,-1
 138 237 l 1,0,-1
EndSplineSet
Validated: 1048577
EndChar

StartChar: uni0163
Encoding: 355 355 693
Width: 384
GlyphClass: 2
Flags: W
AnchorPoint: "Anchor-7" 256 595 basechar 0
AnchorPoint: "Anchor-4" 257 0 basechar 0
LayerCount: 2
Fore
SplineSet
237.5 -210.5 m 128,-1,1
 217 -206 217 -206 203 -199 c 1,2,-1
 216 -163 l 1,3,4
 246 -175 246 -175 275 -175 c 0,5,6
 299 -175 299 -175 312 -164 c 128,-1,7
 325 -153 325 -153 325 -134 c 0,8,9
 325 -118 325 -118 315 -108.5 c 128,-1,10
 305 -99 305 -99 287 -99 c 0,11,12
 267 -99 267 -99 245 -111 c 1,13,-1
 225 -103 l 1,14,-1
 236 -2 l 1,15,16
 188 9 188 9 163 45 c 128,-1,17
 138 81 138 81 138 141 c 2,18,-1
 138 474 l 1,19,-1
 38 474 l 1,20,-1
 38 531 l 1,21,-1
 76 531 l 2,22,23
 105 531 105 531 121.5 548.5 c 128,-1,24
 138 566 138 566 138 598 c 2,25,-1
 138 655 l 1,26,-1
 198 655 l 1,27,-1
 198 531 l 1,28,-1
 314 531 l 1,29,-1
 314 474 l 1,30,-1
 198 474 l 1,31,-1
 198 141 l 2,32,33
 198 51 198 51 285 51 c 0,34,35
 308 51 308 51 323 54 c 1,36,-1
 323 -1 l 1,37,38
 306 -6 306 -6 277 -6 c 1,39,-1
 272 -65 l 1,40,41
 288 -61 288 -61 298 -61 c 0,42,43
 331 -61 331 -61 352 -81 c 128,-1,44
 373 -101 373 -101 373 -132 c 0,45,46
 373 -168 373 -168 346.5 -191.5 c 128,-1,47
 320 -215 320 -215 277 -215 c 0,48,0
 258 -215 258 -215 237.5 -210.5 c 128,-1,1
EndSplineSet
Validated: 1048577
Substitution2: "'ss01' Style Set 1 in Latin lookup 20 subtable" uni0163.ss01
Substitution2: "'salt' Stylistic Alternatives in Latin lookup 19 subtable" uni0163.ss01
Substitution2: "'locl' Localized Forms in Latin lookup 6 subtable" uni021B
AlternateSubs2: "'aalt' Access All Alternates in Latin lookup 1 subtable" uni021B uni0163.ss01
EndChar

StartChar: u
Encoding: 117 117 703
Width: 572
GlyphClass: 2
Flags: W
AnchorPoint: "Anchor-7" 552 531 basechar 0
AnchorPoint: "Anchor-6" 286 531 basechar 0
AnchorPoint: "Anchor-5" 471 35 basechar 0
AnchorPoint: "Anchor-4" 286 0 basechar 0
LayerCount: 2
Fore
SplineSet
171.5 13 m 128,-1,1
 126 38 126 38 99 84.5 c 128,-1,2
 72 131 72 131 72 192 c 2,3,-1
 72 531 l 1,4,-1
 132 531 l 1,5,-1
 132 197 l 2,6,7
 132 128 132 128 173.5 87.5 c 128,-1,8
 215 47 215 47 280 47 c 0,9,10
 348 47 348 47 388.5 92.5 c 128,-1,11
 429 138 429 138 429 212 c 2,12,-1
 429 531 l 1,13,-1
 489 531 l 1,14,-1
 489 0 l 1,15,-1
 429 0 l 1,16,-1
 429 71 l 1,17,18
 405 32 405 32 363.5 10 c 128,-1,19
 322 -12 322 -12 271 -12 c 0,20,0
 217 -12 217 -12 171.5 13 c 128,-1,1
EndSplineSet
Validated: 1
Substitution2: "'ss03' Style Set 3 in Latin lookup 22 subtable" u.ss03
Substitution2: "'ss01' Style Set 1 in Latin lookup 20 subtable" u.ss01
Substitution2: "'salt' Stylistic Alternatives in Latin lookup 19 subtable" u.ss01
AlternateSubs2: "'aalt' Access All Alternates in Latin lookup 1 subtable" u.ss01 u.ss03
EndChar

StartChar: u.ss01
Encoding: 65818 -1 704
Width: 572
GlyphClass: 2
Flags: W
AnchorPoint: "Anchor-7" 552 531 basechar 0
AnchorPoint: "Anchor-6" 286 531 basechar 0
AnchorPoint: "Anchor-5" 281 35 basechar 0
AnchorPoint: "Anchor-4" 286 0 basechar 0
LayerCount: 2
Fore
SplineSet
72 531 m 1,0,-1
 132 531 l 1,1,-1
 132 58 l 1,2,-1
 429 58 l 1,3,-1
 429 531 l 1,4,-1
 489 531 l 1,5,-1
 489 0 l 1,6,-1
 72 0 l 1,7,-1
 72 531 l 1,0,-1
EndSplineSet
Validated: 1
EndChar

StartChar: u.ss03
Encoding: 65819 -1 705
Width: 572
GlyphClass: 2
Flags: W
AnchorPoint: "Anchor-7" 552 531 basechar 0
AnchorPoint: "Anchor-6" 286 531 basechar 0
AnchorPoint: "Anchor-5" 330 35 basechar 0
AnchorPoint: "Anchor-4" 286 0 basechar 0
LayerCount: 2
Fore
SplineSet
174.5 13 m 128,-1,1
 127 38 127 38 99.5 84.5 c 128,-1,2
 72 131 72 131 72 193 c 2,3,-1
 72 531 l 1,4,-1
 132 531 l 1,5,-1
 132 196 l 2,6,7
 132 127 132 127 174 87 c 128,-1,8
 216 47 216 47 280 47 c 256,9,10
 344 47 344 47 386.5 87 c 128,-1,11
 429 127 429 127 429 196 c 2,12,-1
 429 531 l 1,13,-1
 489 531 l 1,14,-1
 489 193 l 2,15,16
 489 131 489 131 461.5 84.5 c 128,-1,17
 434 38 434 38 386.5 13 c 128,-1,18
 339 -12 339 -12 280 -12 c 0,19,0
 222 -12 222 -12 174.5 13 c 128,-1,1
EndSplineSet
Validated: 1
EndChar

StartChar: uhorn
Encoding: 432 432 730
Width: 585
GlyphClass: 2
Flags: W
AnchorPoint: "Anchor-7" 552 531 basechar 0
AnchorPoint: "Anchor-6" 286 531 basechar 0
AnchorPoint: "Anchor-5" 471 35 basechar 0
AnchorPoint: "Anchor-4" 286 0 basechar 0
LayerCount: 2
Fore
SplineSet
171.5 13 m 128,-1,1
 126 38 126 38 99 84.5 c 128,-1,2
 72 131 72 131 72 192 c 2,3,-1
 72 531 l 1,4,-1
 132 531 l 1,5,-1
 132 197 l 2,6,7
 132 128 132 128 173.5 87.5 c 128,-1,8
 215 47 215 47 280 47 c 0,9,10
 348 47 348 47 388.5 92.5 c 128,-1,11
 429 138 429 138 429 212 c 2,12,-1
 429 531 l 1,13,-1
 462 531 l 2,14,15
 514 531 514 531 514 585 c 0,16,17
 514 604 514 604 508.5 622.5 c 128,-1,18
 503 641 503 641 493 666 c 1,19,-1
 553 666 l 1,20,21
 564 638 564 638 569.5 619 c 128,-1,22
 575 600 575 600 575 579 c 0,23,24
 575 536 575 536 552 511 c 128,-1,25
 529 486 529 486 489 481 c 1,26,-1
 489 0 l 1,27,-1
 429 0 l 1,28,-1
 429 71 l 1,29,30
 405 32 405 32 363.5 10 c 128,-1,31
 322 -12 322 -12 271 -12 c 0,32,0
 217 -12 217 -12 171.5 13 c 128,-1,1
EndSplineSet
Validated: 1
Substitution2: "'ss03' Style Set 3 in Latin lookup 22 subtable" uhorn.ss03
Substitution2: "'ss01' Style Set 1 in Latin lookup 20 subtable" uhorn.ss01
Substitution2: "'salt' Stylistic Alternatives in Latin lookup 19 subtable" uhorn.ss01
AlternateSubs2: "'aalt' Access All Alternates in Latin lookup 1 subtable" uhorn.ss01 uhorn.ss03
EndChar

StartChar: uhorn.ss01
Encoding: 65836 -1 731
Width: 585
GlyphClass: 2
Flags: W
AnchorPoint: "Anchor-6" 286 531 basechar 0
AnchorPoint: "Anchor-4" 286 0 basechar 0
LayerCount: 2
Fore
SplineSet
72 531 m 1,0,-1
 132 531 l 1,1,-1
 132 58 l 1,2,-1
 429 58 l 1,3,-1
 429 531 l 1,4,-1
 462 531 l 2,5,6
 514 531 514 531 514 585 c 0,7,8
 514 604 514 604 508.5 622.5 c 128,-1,9
 503 641 503 641 493 666 c 1,10,-1
 553 666 l 1,11,12
 564 638 564 638 569.5 619 c 128,-1,13
 575 600 575 600 575 579 c 0,14,15
 575 536 575 536 552 511 c 128,-1,16
 529 486 529 486 489 481 c 1,17,-1
 489 0 l 1,18,-1
 72 0 l 1,19,-1
 72 531 l 1,0,-1
EndSplineSet
Validated: 1048577
EndChar

StartChar: uhorn.ss03
Encoding: 65837 -1 732
Width: 585
GlyphClass: 2
Flags: W
AnchorPoint: "Anchor-7" 552 531 basechar 0
AnchorPoint: "Anchor-6" 286 531 basechar 0
AnchorPoint: "Anchor-5" 330 35 basechar 0
AnchorPoint: "Anchor-4" 286 0 basechar 0
LayerCount: 2
Fore
SplineSet
174.5 13 m 128,-1,1
 127 38 127 38 99.5 84.5 c 128,-1,2
 72 131 72 131 72 193 c 2,3,-1
 72 531 l 1,4,-1
 132 531 l 1,5,-1
 132 196 l 2,6,7
 132 127 132 127 174 87 c 128,-1,8
 216 47 216 47 280 47 c 256,9,10
 344 47 344 47 386.5 87 c 128,-1,11
 429 127 429 127 429 196 c 2,12,-1
 429 531 l 1,13,-1
 462 531 l 2,14,15
 514 531 514 531 514 585 c 0,16,17
 514 604 514 604 508.5 622.5 c 128,-1,18
 503 641 503 641 493 666 c 1,19,-1
 553 666 l 1,20,21
 564 638 564 638 569.5 619 c 128,-1,22
 575 600 575 600 575 579 c 0,23,24
 575 536 575 536 552 511 c 128,-1,25
 529 486 529 486 489 481 c 1,26,-1
 489 193 l 2,27,28
 489 131 489 131 461.5 84.5 c 128,-1,29
 434 38 434 38 386.5 13 c 128,-1,30
 339 -12 339 -12 280 -12 c 0,31,0
 222 -12 222 -12 174.5 13 c 128,-1,1
EndSplineSet
Validated: 1
EndChar

StartChar: uogonek
Encoding: 371 371 760
Width: 572
GlyphClass: 2
Flags: W
AnchorPoint: "Anchor-7" 552 531 basechar 0
AnchorPoint: "Anchor-6" 286 531 basechar 0
AnchorPoint: "Anchor-5" 471 35 basechar 0
AnchorPoint: "Anchor-4" 286 0 basechar 0
LayerCount: 2
Fore
SplineSet
171.5 13 m 128,-1,1
 126 38 126 38 99 84.5 c 128,-1,2
 72 131 72 131 72 192 c 2,3,-1
 72 531 l 1,4,-1
 132 531 l 1,5,-1
 132 197 l 2,6,7
 132 128 132 128 173.5 87.5 c 128,-1,8
 215 47 215 47 280 47 c 0,9,10
 348 47 348 47 388.5 92.5 c 128,-1,11
 429 138 429 138 429 212 c 2,12,-1
 429 531 l 1,13,-1
 489 531 l 1,14,-1
 489 0 l 1,15,-1
 448 0 l 1,16,17
 403 -33 403 -33 403 -72 c 0,18,19
 403 -94 403 -94 417 -106.5 c 128,-1,20
 431 -119 431 -119 454 -119 c 0,21,22
 484 -119 484 -119 521 -93 c 1,23,-1
 543 -127 l 1,24,25
 502 -162 502 -162 450 -162 c 0,26,27
 409 -162 409 -162 382.5 -140 c 128,-1,28
 356 -118 356 -118 356 -82 c 0,29,30
 356 -52 356 -52 374.5 -24.5 c 128,-1,31
 393 3 393 3 429 22 c 1,32,-1
 429 71 l 1,33,34
 405 32 405 32 363.5 10 c 128,-1,35
 322 -12 322 -12 271 -12 c 0,36,0
 217 -12 217 -12 171.5 13 c 128,-1,1
EndSplineSet
Validated: 1
Substitution2: "'ss03' Style Set 3 in Latin lookup 22 subtable" uogonek.ss03
Substitution2: "'ss01' Style Set 1 in Latin lookup 20 subtable" uogonek.ss01
Substitution2: "'salt' Stylistic Alternatives in Latin lookup 19 subtable" uogonek.ss01
AlternateSubs2: "'aalt' Access All Alternates in Latin lookup 1 subtable" uogonek.ss01 uogonek.ss03
EndChar

StartChar: uogonek.ss01
Encoding: 65856 -1 761
Width: 572
GlyphClass: 2
Flags: W
AnchorPoint: "Anchor-7" 552 531 basechar 0
AnchorPoint: "Anchor-6" 286 531 basechar 0
AnchorPoint: "Anchor-5" 281 35 basechar 0
AnchorPoint: "Anchor-4" 286 0 basechar 0
LayerCount: 2
Fore
SplineSet
72 531 m 1,0,-1
 132 531 l 1,1,-1
 132 58 l 1,2,-1
 429 58 l 1,3,-1
 429 531 l 1,4,-1
 489 531 l 1,5,-1
 489 0 l 1,6,-1
 257 0 l 1,7,8
 212 -33 212 -33 212 -72 c 0,9,10
 212 -94 212 -94 226 -106.5 c 128,-1,11
 240 -119 240 -119 263 -119 c 0,12,13
 293 -119 293 -119 330 -93 c 1,14,-1
 352 -127 l 1,15,16
 311 -162 311 -162 259 -162 c 0,17,18
 218 -162 218 -162 191.5 -140 c 128,-1,19
 165 -118 165 -118 165 -82 c 0,20,21
 165 -36 165 -36 206 0 c 1,22,-1
 72 0 l 1,23,-1
 72 531 l 1,0,-1
EndSplineSet
Validated: 1
EndChar

StartChar: uogonek.ss03
Encoding: 65857 -1 762
Width: 572
GlyphClass: 2
Flags: W
AnchorPoint: "Anchor-7" 552 531 basechar 0
AnchorPoint: "Anchor-6" 286 531 basechar 0
AnchorPoint: "Anchor-5" 330 35 basechar 0
AnchorPoint: "Anchor-4" 286 0 basechar 0
LayerCount: 2
Fore
SplineSet
241.5 -140 m 128,-1,1
 215 -118 215 -118 215 -82 c 0,2,3
 215 -43 215 -43 246 -10 c 1,4,5
 169 1 169 1 120.5 55 c 128,-1,6
 72 109 72 109 72 193 c 2,7,-1
 72 531 l 1,8,-1
 132 531 l 1,9,-1
 132 196 l 2,10,11
 132 127 132 127 174 87 c 128,-1,12
 216 47 216 47 280 47 c 256,13,14
 344 47 344 47 386.5 87 c 128,-1,15
 429 127 429 127 429 196 c 2,16,-1
 429 531 l 1,17,-1
 489 531 l 1,18,-1
 489 193 l 2,19,20
 489 133 489 133 463 87.5 c 128,-1,21
 437 42 437 42 392.5 16.5 c 128,-1,22
 348 -9 348 -9 292 -12 c 1,23,24
 262 -39 262 -39 262 -72 c 0,25,26
 262 -94 262 -94 276 -106.5 c 128,-1,27
 290 -119 290 -119 313 -119 c 0,28,29
 343 -119 343 -119 380 -93 c 1,30,-1
 402 -127 l 1,31,32
 361 -162 361 -162 309 -162 c 0,33,0
 268 -162 268 -162 241.5 -140 c 128,-1,1
EndSplineSet
Validated: 1
EndChar

StartChar: v
Encoding: 118 118 772
Width: 518
GlyphClass: 2
Flags: W
AnchorPoint: "Anchor-6" 260 531 basechar 0
AnchorPoint: "Anchor-4" 260 0 basechar 0
LayerCount: 2
Fore
SplineSet
17 531 m 1,0,-1
 84 531 l 1,1,-1
 259 83 l 1,2,-1
 433 531 l 1,3,-1
 502 531 l 1,4,-1
 289 0 l 1,5,-1
 227 0 l 1,6,-1
 17 531 l 1,0,-1
EndSplineSet
Validated: 1048577
EndChar

StartChar: w
Encoding: 119 119 773
Width: 783
GlyphClass: 2
Flags: W
AnchorPoint: "Anchor-6" 392 531 basechar 0
AnchorPoint: "Anchor-4" 392 0 basechar 0
LayerCount: 2
Fore
SplineSet
17 531 m 1,0,-1
 84 531 l 1,1,-1
 229 91 l 1,2,-1
 361 531 l 1,3,-1
 422 531 l 1,4,-1
 554 91 l 1,5,-1
 700 531 l 1,6,-1
 767 531 l 1,7,-1
 584 0 l 1,8,-1
 523 0 l 1,9,-1
 392 439 l 1,10,-1
 260 0 l 1,11,-1
 199 0 l 1,12,-1
 17 531 l 1,0,-1
EndSplineSet
Validated: 1048577
EndChar

StartChar: x
Encoding: 120 120 778
Width: 481
GlyphClass: 2
Flags: W
AnchorPoint: "Anchor-6" 241 531 basechar 0
AnchorPoint: "Anchor-4" 241 0 basechar 0
LayerCount: 2
Fore
SplineSet
204 266 m 1,0,-1
 18 531 l 1,1,-1
 93 531 l 1,2,-1
 241 318 l 1,3,-1
 389 531 l 1,4,-1
 464 531 l 1,5,-1
 278 266 l 1,6,-1
 464 0 l 1,7,-1
 389 0 l 1,8,-1
 241 214 l 1,9,-1
 92 0 l 1,10,-1
 17 0 l 1,11,-1
 204 266 l 1,0,-1
EndSplineSet
Validated: 1048577
Substitution2: "Single Substitution lookup 29 subtable" multiply
AlternateSubs2: "'aalt' Access All Alternates in Latin lookup 1 subtable" multiply
EndChar

StartChar: y
Encoding: 121 121 779
Width: 530
GlyphClass: 2
Flags: W
AnchorPoint: "Anchor-6" 267 531 basechar 0
AnchorPoint: "Anchor-4" 483 100 basechar 0
LayerCount: 2
Fore
SplineSet
231 1 m 1,0,-1
 17 532 l 1,1,-1
 83 532 l 1,2,-1
 264 79 l 1,3,-1
 446 532 l 1,4,-1
 513 532 l 1,5,-1
 213 -200 l 1,6,-1
 147 -200 l 1,7,-1
 231 1 l 1,0,-1
EndSplineSet
Validated: 1048577
Substitution2: "'ss03' Style Set 3 in Latin lookup 22 subtable" y.ss03
Substitution2: "'ss02' Style Set 2 in Latin lookup 21 subtable" y.ss02
Substitution2: "'ss01' Style Set 1 in Latin lookup 20 subtable" y.ss01
Substitution2: "'salt' Stylistic Alternatives in Latin lookup 19 subtable" y.ss01
AlternateSubs2: "'aalt' Access All Alternates in Latin lookup 1 subtable" y.ss01 y.ss02 y.ss03
EndChar

StartChar: y.ss01
Encoding: 65864 -1 780
Width: 530
GlyphClass: 2
Flags: W
AnchorPoint: "Anchor-6" 267 531 basechar 0
AnchorPoint: "Anchor-4" 483 100 basechar 0
LayerCount: 2
Fore
SplineSet
35 -145 m 1,0,-1
 170 -145 l 1,1,-1
 231 0 l 1,2,-1
 17 532 l 1,3,-1
 83 532 l 1,4,-1
 264 79 l 1,5,-1
 446 532 l 1,6,-1
 513 532 l 1,7,-1
 214 -200 l 1,8,-1
 35 -200 l 1,9,-1
 35 -145 l 1,0,-1
EndSplineSet
Validated: 1048577
EndChar

StartChar: y.ss02
Encoding: 65865 -1 781
Width: 530
GlyphClass: 2
Flags: W
AnchorPoint: "Anchor-6" 267 531 basechar 0
AnchorPoint: "Anchor-4" 483 100 basechar 0
LayerCount: 2
Fore
SplineSet
231 1 m 1,0,-1
 17 532 l 1,1,-1
 83 532 l 1,2,-1
 264 79 l 1,3,-1
 446 532 l 1,4,-1
 513 532 l 1,5,-1
 213 -200 l 1,6,-1
 147 -200 l 1,7,-1
 231 1 l 1,0,-1
EndSplineSet
Validated: 1048577
EndChar

StartChar: y.ss03
Encoding: 65866 -1 782
Width: 578
GlyphClass: 2
Flags: W
AnchorPoint: "Anchor-6" 289 531 basechar 0
AnchorPoint: "Anchor-4" 588 100 basechar 0
LayerCount: 2
Fore
SplineSet
154 -185 m 128,-1,1
 99 -150 99 -150 72 -92 c 1,2,-1
 125 -62 l 1,3,4
 146 -108 146 -108 186.5 -135 c 128,-1,5
 227 -162 227 -162 284 -162 c 0,6,7
 348 -162 348 -162 391.5 -126.5 c 128,-1,8
 435 -91 435 -91 435 -16 c 2,9,-1
 435 91 l 1,10,11
 411 52 411 52 369.5 30 c 128,-1,12
 328 8 328 8 277 8 c 0,13,14
 223 8 223 8 177.5 33 c 128,-1,15
 132 58 132 58 105 104.5 c 128,-1,16
 78 151 78 151 78 212 c 2,17,-1
 78 531 l 1,18,-1
 138 531 l 1,19,-1
 138 217 l 2,20,21
 138 148 138 148 179.5 107.5 c 128,-1,22
 221 67 221 67 286 67 c 0,23,24
 354 67 354 67 394.5 112.5 c 128,-1,25
 435 158 435 158 435 232 c 2,26,-1
 435 531 l 1,27,-1
 495 531 l 1,28,-1
 495 -16 l 2,29,30
 495 -80 495 -80 467.5 -126 c 128,-1,31
 440 -172 440 -172 392 -196 c 128,-1,32
 344 -220 344 -220 284 -220 c 0,33,0
 209 -220 209 -220 154 -185 c 128,-1,1
EndSplineSet
Validated: 1048577
EndChar

StartChar: z
Encoding: 122 122 819
Width: 442
GlyphClass: 2
Flags: W
AnchorPoint: "Anchor-6" 219 531 basechar 0
AnchorPoint: "Anchor-4" 219 0 basechar 0
LayerCount: 2
Fore
SplineSet
28 48 m 1,0,-1
 337 474 l 1,1,-1
 46 474 l 1,2,-1
 46 531 l 1,3,-1
 418 531 l 1,4,-1
 418 484 l 1,5,-1
 110 58 l 1,6,-1
 420 58 l 1,7,-1
 420 0 l 1,8,-1
 28 0 l 1,9,-1
 28 48 l 1,0,-1
EndSplineSet
Validated: 1048577
EndChar

StartChar: f_f
Encoding: 65894 -1 824
Width: 770
GlyphClass: 3
Flags: W
LayerCount: 2
Fore
SplineSet
138 474 m 1,0,-1
 30 474 l 1,1,-1
 30 531 l 1,2,-1
 138 531 l 1,3,-1
 138 582 l 2,4,5
 138 664 138 664 186 710.5 c 128,-1,6
 234 757 234 757 308 757 c 0,7,8
 332 757 332 757 350 752 c 1,9,-1
 350 698 l 1,10,11
 335 701 335 701 314 701 c 0,12,13
 260 701 260 701 229 671 c 128,-1,14
 198 641 198 641 198 582 c 2,15,-1
 198 531 l 1,16,-1
 518 531 l 1,17,-1
 518 582 l 2,18,19
 518 664 518 664 566 710.5 c 128,-1,20
 614 757 614 757 688 757 c 0,21,22
 712 757 712 757 730 752 c 1,23,-1
 730 698 l 1,24,25
 715 701 715 701 694 701 c 0,26,27
 640 701 640 701 609 671 c 128,-1,28
 578 641 578 641 578 582 c 2,29,-1
 578 531 l 1,30,-1
 710 531 l 1,31,-1
 710 474 l 1,32,-1
 578 474 l 1,33,-1
 578 0 l 1,34,-1
 518 0 l 1,35,-1
 518 474 l 1,36,-1
 198 474 l 1,37,-1
 198 0 l 1,38,-1
 138 0 l 1,39,-1
 138 474 l 1,0,-1
EndSplineSet
Validated: 1
EndChar

StartChar: f_f_i
Encoding: 65895 -1 825
Width: 962
GlyphClass: 3
Flags: W
LayerCount: 2
Fore
SplineSet
138 474 m 1,0,-1
 30 474 l 1,1,-1
 30 531 l 1,2,-1
 138 531 l 1,3,-1
 138 582 l 2,4,5
 138 664 138 664 186 710.5 c 128,-1,6
 234 757 234 757 308 757 c 0,7,8
 332 757 332 757 350 752 c 1,9,-1
 350 698 l 1,10,11
 335 701 335 701 314 701 c 0,12,13
 260 701 260 701 229 671 c 128,-1,14
 198 641 198 641 198 582 c 2,15,-1
 198 531 l 1,16,-1
 528 531 l 1,17,-1
 528 582 l 2,18,19
 528 664 528 664 576 710.5 c 128,-1,20
 624 757 624 757 698 757 c 0,21,22
 722 757 722 757 740 752 c 1,23,-1
 740 698 l 1,24,25
 725 701 725 701 704 701 c 0,26,27
 650 701 650 701 619 671 c 128,-1,28
 588 641 588 641 588 582 c 2,29,-1
 588 531 l 1,30,-1
 896 531 l 1,31,-1
 896 0 l 1,32,-1
 836 0 l 1,33,-1
 836 474 l 1,34,-1
 588 474 l 1,35,-1
 588 0 l 1,36,-1
 528 0 l 1,37,-1
 528 474 l 1,38,-1
 198 474 l 1,39,-1
 198 0 l 1,40,-1
 138 0 l 1,41,-1
 138 474 l 1,0,-1
EndSplineSet
Validated: 1
EndChar

StartChar: f_f_l
Encoding: 65896 -1 826
Width: 1005
GlyphClass: 3
Flags: W
LayerCount: 2
Fore
SplineSet
138 474 m 1,0,-1
 30 474 l 1,1,-1
 30 531 l 1,2,-1
 138 531 l 1,3,-1
 138 582 l 2,4,5
 138 664 138 664 186 710.5 c 128,-1,6
 234 757 234 757 308 757 c 0,7,8
 332 757 332 757 350 752 c 1,9,-1
 350 698 l 1,10,11
 335 701 335 701 314 701 c 0,12,13
 260 701 260 701 229 671 c 128,-1,14
 198 641 198 641 198 582 c 2,15,-1
 198 531 l 1,16,-1
 528 531 l 1,17,-1
 528 582 l 2,18,19
 528 664 528 664 576 710.5 c 128,-1,20
 624 757 624 757 698 757 c 0,21,22
 722 757 722 757 740 752 c 1,23,-1
 740 698 l 1,24,25
 725 701 725 701 704 701 c 0,26,27
 650 701 650 701 619 671 c 128,-1,28
 588 641 588 641 588 582 c 2,29,-1
 588 531 l 1,30,-1
 863 531 l 1,31,-1
 863 757 l 1,32,-1
 923 757 l 1,33,-1
 923 0 l 1,34,-1
 863 0 l 1,35,-1
 863 474 l 1,36,-1
 588 474 l 1,37,-1
 588 0 l 1,38,-1
 528 0 l 1,39,-1
 528 474 l 1,40,-1
 198 474 l 1,41,-1
 198 0 l 1,42,-1
 138 0 l 1,43,-1
 138 474 l 1,0,-1
EndSplineSet
Validated: 1
EndChar

StartChar: fi
Encoding: 64257 64257 827
Width: 572
GlyphClass: 3
Flags: W
LayerCount: 2
Fore
SplineSet
138 474 m 1,0,-1
 30 474 l 1,1,-1
 30 531 l 1,2,-1
 138 531 l 1,3,-1
 138 582 l 2,4,5
 138 664 138 664 186 710.5 c 128,-1,6
 234 757 234 757 308 757 c 0,7,8
 332 757 332 757 350 752 c 1,9,-1
 350 698 l 1,10,11
 335 701 335 701 314 701 c 0,12,13
 260 701 260 701 229 671 c 128,-1,14
 198 641 198 641 198 582 c 2,15,-1
 198 531 l 1,16,-1
 506 531 l 1,17,-1
 506 0 l 1,18,-1
 446 0 l 1,19,-1
 446 474 l 1,20,-1
 198 474 l 1,21,-1
 198 0 l 1,22,-1
 138 0 l 1,23,-1
 138 474 l 1,0,-1
EndSplineSet
Validated: 1
EndChar

StartChar: fl
Encoding: 64258 64258 828
Width: 615
GlyphClass: 3
Flags: W
LayerCount: 2
Fore
SplineSet
138 474 m 1,0,-1
 30 474 l 1,1,-1
 30 531 l 1,2,-1
 138 531 l 1,3,-1
 138 582 l 2,4,5
 138 664 138 664 186 710.5 c 128,-1,6
 234 757 234 757 308 757 c 0,7,8
 332 757 332 757 350 752 c 1,9,-1
 350 698 l 1,10,11
 335 701 335 701 314 701 c 0,12,13
 260 701 260 701 229 671 c 128,-1,14
 198 641 198 641 198 582 c 2,15,-1
 198 531 l 1,16,-1
 473 531 l 1,17,-1
 473 757 l 1,18,-1
 533 757 l 1,19,-1
 533 0 l 1,20,-1
 473 0 l 1,21,-1
 473 474 l 1,22,-1
 198 474 l 1,23,-1
 198 0 l 1,24,-1
 138 0 l 1,25,-1
 138 474 l 1,0,-1
EndSplineSet
Validated: 1
EndChar

StartChar: ordfeminine
Encoding: 170 170 829
Width: 456
GlyphClass: 2
Flags: W
AnchorPoint: "Anchor-6" 225 479 basechar 0
AnchorPoint: "Anchor-5" 359 26 basechar 0
AnchorPoint: "Anchor-4" 225 0 basechar 0
LayerCount: 2
Fore
SplineSet
96.5 393.5 m 128,-1,1
 61 423 61 423 61 470 c 0,2,3
 61 515 61 515 91.5 546.5 c 128,-1,4
 122 578 122 578 184 588 c 2,5,-1
 315 610 l 1,6,-1
 315 628 l 2,7,8
 315 661 315 661 290.5 681.5 c 128,-1,9
 266 702 266 702 228 702 c 0,10,11
 195 702 195 702 169 685.5 c 128,-1,12
 143 669 143 669 130 641 c 1,13,-1
 79 668 l 1,14,15
 96 706 96 706 138 730.5 c 128,-1,16
 180 755 180 755 229 755 c 0,17,18
 293 755 293 755 333 719.5 c 128,-1,19
 373 684 373 684 373 628 c 2,20,-1
 373 372 l 1,21,-1
 317 372 l 1,22,-1
 317 428 l 1,23,24
 297 399 297 399 262.5 381.5 c 128,-1,25
 228 364 228 364 186 364 c 0,26,0
 132 364 132 364 96.5 393.5 c 128,-1,1
142 429.5 m 128,-1,28
 162 413 162 413 192 413 c 0,29,30
 246 413 246 413 280.5 447.5 c 128,-1,31
 315 482 315 482 315 533 c 2,32,-1
 315 560 l 1,33,-1
 197 541 l 2,34,35
 122 527 122 527 122 472 c 0,36,27
 122 446 122 446 142 429.5 c 128,-1,28
EndSplineSet
Validated: 1048577
EndChar

StartChar: ordmasculine
Encoding: 186 186 830
Width: 506
GlyphClass: 2
Flags: W
AnchorPoint: "Anchor-7" 469 375 basechar 0
AnchorPoint: "Anchor-6" 254 681 basechar 0
AnchorPoint: "Anchor-5" 281 26 basechar 0
AnchorPoint: "Anchor-4" 254 0 basechar 0
LayerCount: 2
Fore
SplineSet
156.5 389.5 m 128,-1,1
 112 415 112 415 86.5 460 c 128,-1,2
 61 505 61 505 61 560 c 256,3,4
 61 615 61 615 86.5 659.5 c 128,-1,5
 112 704 112 704 156 729.5 c 128,-1,6
 200 755 200 755 254 755 c 0,7,8
 307 755 307 755 351 729.5 c 128,-1,9
 395 704 395 704 420.5 659.5 c 128,-1,10
 446 615 446 615 446 560 c 0,11,12
 446 504 446 504 420.5 459.5 c 128,-1,13
 395 415 395 415 351 389.5 c 128,-1,14
 307 364 307 364 254 364 c 256,15,0
 201 364 201 364 156.5 389.5 c 128,-1,1
160 460.5 m 128,-1,17
 198 420 198 420 254 420 c 0,18,19
 290 420 290 420 319.5 438.5 c 128,-1,20
 349 457 349 457 366.5 489 c 128,-1,21
 384 521 384 521 384 560 c 256,22,23
 384 599 384 599 367 631 c 128,-1,24
 350 663 350 663 320 681.5 c 128,-1,25
 290 700 290 700 254 700 c 0,26,27
 198 700 198 700 160 659.5 c 128,-1,28
 122 619 122 619 122 560 c 256,29,16
 122 501 122 501 160 460.5 c 128,-1,17
EndSplineSet
Validated: 1
EndChar

StartChar: uni0394
Encoding: 916 916 831
Width: 604
GlyphClass: 1
Flags: W
LayerCount: 2
Fore
SplineSet
17 60 m 1,0,-1
 269 745 l 1,1,-1
 336 745 l 1,2,-1
 588 60 l 1,3,-1
 588 0 l 1,4,-1
 17 0 l 1,5,-1
 17 60 l 1,0,-1
519 60 m 1,6,-1
 302 662 l 1,7,-1
 86 60 l 1,8,-1
 519 60 l 1,6,-1
EndSplineSet
Validated: 1
Position2: "'cpsp' Capital Spacing in Latin lookup 0 subtable" dx=5 dy=0 dh=10 dv=0
EndChar

StartChar: uni03A9
Encoding: 937 937 832
Width: 881
GlyphClass: 1
Flags: W
LayerCount: 2
Fore
SplineSet
72 60 m 1,0,-1
 232 60 l 1,1,2
 158 110 158 110 115 191.5 c 128,-1,3
 72 273 72 273 72 373 c 0,4,5
 72 483 72 483 121.5 570.5 c 128,-1,6
 171 658 171 658 255.5 707.5 c 128,-1,7
 340 757 340 757 441 757 c 256,8,9
 542 757 542 757 626.5 707.5 c 128,-1,10
 711 658 711 658 760.5 570.5 c 128,-1,11
 810 483 810 483 810 373 c 0,12,13
 810 273 810 273 767 191.5 c 128,-1,14
 724 110 724 110 649 60 c 1,15,-1
 810 60 l 1,16,-1
 810 0 l 1,17,-1
 539 0 l 1,18,-1
 539 60 l 1,19,20
 633 94 633 94 689 179 c 128,-1,21
 745 264 745 264 745 373 c 0,22,23
 745 460 745 460 706 534 c 128,-1,24
 667 608 667 608 598 652 c 128,-1,25
 529 696 529 696 441 696 c 256,26,27
 353 696 353 696 283.5 652 c 128,-1,28
 214 608 214 608 175.5 534 c 128,-1,29
 137 460 137 460 137 373 c 0,30,31
 137 264 137 264 193 179 c 128,-1,32
 249 94 249 94 343 60 c 1,33,-1
 343 0 l 1,34,-1
 72 0 l 1,35,-1
 72 60 l 1,0,-1
EndSplineSet
Validated: 1
Position2: "'cpsp' Capital Spacing in Latin lookup 0 subtable" dx=5 dy=0 dh=10 dv=0
EndChar

StartChar: pi
Encoding: 960 960 833
Width: 636
GlyphClass: 1
Flags: W
LayerCount: 2
Fore
SplineSet
138 474 m 1,0,-1
 38 474 l 1,1,-1
 38 531 l 1,2,-1
 598 531 l 1,3,-1
 598 474 l 1,4,-1
 498 474 l 1,5,-1
 498 0 l 1,6,-1
 438 0 l 1,7,-1
 438 474 l 1,8,-1
 198 474 l 1,9,-1
 198 0 l 1,10,-1
 138 0 l 1,11,-1
 138 474 l 1,0,-1
EndSplineSet
Validated: 1
EndChar

StartChar: zero
Encoding: 48 48 834
Width: 723
GlyphClass: 1
Flags: W
LayerCount: 2
Fore
SplineSet
211 36.5 m 128,-1,1
 145 85 145 85 108.5 172.5 c 128,-1,2
 72 260 72 260 72 373 c 0,3,4
 72 487 72 487 108.5 574 c 128,-1,5
 145 661 145 661 210.5 709 c 128,-1,6
 276 757 276 757 362 757 c 256,7,8
 448 757 448 757 513.5 709 c 128,-1,9
 579 661 579 661 615 574 c 128,-1,10
 651 487 651 487 651 373 c 256,11,12
 651 259 651 259 615 171.5 c 128,-1,13
 579 84 579 84 514 36 c 128,-1,14
 449 -12 449 -12 363 -12 c 256,15,0
 277 -12 277 -12 211 36.5 c 128,-1,1
164.5 204.5 m 128,-1,17
 192 131 192 131 243.5 90.5 c 128,-1,18
 295 50 295 50 363 50 c 256,19,20
 431 50 431 50 481.5 90.5 c 128,-1,21
 532 131 532 131 559.5 204 c 128,-1,22
 587 277 587 277 587 373 c 256,23,24
 587 469 587 469 559.5 542 c 128,-1,25
 532 615 532 615 481 655.5 c 128,-1,26
 430 696 430 696 362 696 c 256,27,28
 294 696 294 696 243 655.5 c 128,-1,29
 192 615 192 615 164.5 542 c 128,-1,30
 137 469 137 469 137 373 c 0,31,16
 137 278 137 278 164.5 204.5 c 128,-1,17
EndSplineSet
Validated: 1
Substitution2: "'frac' Diagonal Fractions in Latin lookup 14 subtable" zero.numr
Substitution2: "'dnom' Denominators in Latin lookup 12 subtable" zero.dnom
Substitution2: "'numr' Numerators in Latin lookup 11 subtable" zero.numr
Substitution2: "'sups' Superscript in Latin lookup 10 subtable" uni2070
Substitution2: "'sinf' Scientific Inferiors in Latin lookup 9 subtable" uni2080
Substitution2: "'subs' Subscript in Latin lookup 8 subtable" uni2080
AlternateSubs2: "'aalt' Access All Alternates in Latin lookup 1 subtable" uni2080 uni2070 zero.numr zero.dnom
EndChar

StartChar: one
Encoding: 49 49 835
Width: 355
GlyphClass: 1
Flags: W
LayerCount: 2
Fore
SplineSet
180 688 m 1,0,-1
 40 688 l 1,1,-1
 40 745 l 1,2,-1
 245 745 l 1,3,-1
 245 0 l 1,4,-1
 180 0 l 1,5,-1
 180 688 l 1,0,-1
EndSplineSet
Validated: 1
Substitution2: "'frac' Diagonal Fractions in Latin lookup 14 subtable" one.numr
Substitution2: "'dnom' Denominators in Latin lookup 12 subtable" one.dnom
Substitution2: "'numr' Numerators in Latin lookup 11 subtable" one.numr
Substitution2: "'sups' Superscript in Latin lookup 10 subtable" uni00B9
Substitution2: "'sinf' Scientific Inferiors in Latin lookup 9 subtable" uni2081
Substitution2: "'subs' Subscript in Latin lookup 8 subtable" uni2081
AlternateSubs2: "'aalt' Access All Alternates in Latin lookup 1 subtable" uni2081 uni00B9 one.numr one.dnom
EndChar

StartChar: two
Encoding: 50 50 836
Width: 589
GlyphClass: 1
Flags: W
LayerCount: 2
Fore
SplineSet
57 40 m 1,0,-1
 266 270 l 1,1,2
 264 267 264 267 304 311 c 0,3,4
 364 376 364 376 391.5 410 c 128,-1,5
 419 444 419 444 434.5 478.5 c 128,-1,6
 450 513 450 513 450 553 c 0,7,8
 450 622 450 622 408.5 661 c 128,-1,9
 367 700 367 700 294 700 c 0,10,11
 223 700 223 700 175 659.5 c 128,-1,12
 127 619 127 619 110 545 c 1,13,-1
 51 558 l 1,14,15
 71 651 71 651 136.5 704 c 128,-1,16
 202 757 202 757 294 757 c 0,17,18
 357 757 357 757 407.5 731.5 c 128,-1,19
 458 706 458 706 486.5 659.5 c 128,-1,20
 515 613 515 613 515 553 c 0,21,22
 515 510 515 510 496.5 468.5 c 128,-1,23
 478 427 478 427 444 384 c 128,-1,24
 410 341 410 341 348 273 c 2,25,-1
 152 58 l 1,26,-1
 531 58 l 1,27,-1
 531 0 l 1,28,-1
 57 0 l 1,29,-1
 57 40 l 1,0,-1
EndSplineSet
Validated: 33
Substitution2: "'frac' Diagonal Fractions in Latin lookup 14 subtable" two.numr
Substitution2: "'dnom' Denominators in Latin lookup 12 subtable" two.dnom
Substitution2: "'numr' Numerators in Latin lookup 11 subtable" two.numr
Substitution2: "'sups' Superscript in Latin lookup 10 subtable" uni00B2
Substitution2: "'sinf' Scientific Inferiors in Latin lookup 9 subtable" uni2082
Substitution2: "'subs' Subscript in Latin lookup 8 subtable" uni2082
AlternateSubs2: "'aalt' Access All Alternates in Latin lookup 1 subtable" uni2082 uni00B2 two.numr two.dnom
EndChar

StartChar: three
Encoding: 51 51 837
Width: 604
GlyphClass: 1
Flags: W
LayerCount: 2
Fore
SplineSet
137.5 36.5 m 128,-1,1
 71 85 71 85 47 171 c 1,2,-1
 102 192 l 1,3,4
 122 124 122 124 172 85 c 128,-1,5
 222 46 222 46 293 46 c 0,6,7
 376 46 376 46 427 94.5 c 128,-1,8
 478 143 478 143 478 224 c 0,9,10
 478 307 478 307 426.5 352 c 128,-1,11
 375 397 375 397 294 397 c 0,12,13
 272 397 272 397 244 393 c 1,14,-1
 233 420 l 1,15,-1
 438 688 l 1,16,-1
 78 688 l 1,17,-1
 78 745 l 1,18,-1
 515 745 l 1,19,-1
 515 695 l 1,20,-1
 325 448 l 1,21,22
 385 444 385 444 434.5 415.5 c 128,-1,23
 484 387 484 387 513 337.5 c 128,-1,24
 542 288 542 288 542 224 c 0,25,26
 542 159 542 159 510.5 105 c 128,-1,27
 479 51 479 51 422.5 19.5 c 128,-1,28
 366 -12 366 -12 294 -12 c 0,29,0
 204 -12 204 -12 137.5 36.5 c 128,-1,1
EndSplineSet
Validated: 1
Substitution2: "'frac' Diagonal Fractions in Latin lookup 14 subtable" three.numr
Substitution2: "'dnom' Denominators in Latin lookup 12 subtable" three.dnom
Substitution2: "'numr' Numerators in Latin lookup 11 subtable" three.numr
Substitution2: "'sups' Superscript in Latin lookup 10 subtable" uni00B3
Substitution2: "'sinf' Scientific Inferiors in Latin lookup 9 subtable" uni2083
Substitution2: "'subs' Subscript in Latin lookup 8 subtable" uni2083
AlternateSubs2: "'aalt' Access All Alternates in Latin lookup 1 subtable" uni2083 uni00B3 three.numr three.dnom
EndChar

StartChar: four
Encoding: 52 52 838
Width: 618
GlyphClass: 1
Flags: W
LayerCount: 2
Fore
SplineSet
429 176 m 1,0,-1
 45 176 l 1,1,-1
 45 229 l 1,2,-1
 431 745 l 1,3,-1
 489 745 l 1,4,-1
 489 231 l 1,5,-1
 575 231 l 1,6,-1
 575 176 l 1,7,-1
 489 176 l 1,8,-1
 489 0 l 1,9,-1
 429 0 l 1,10,-1
 429 176 l 1,0,-1
429 231 m 1,11,-1
 429 648 l 1,12,-1
 115 231 l 1,13,-1
 429 231 l 1,11,-1
EndSplineSet
Validated: 1
Substitution2: "'frac' Diagonal Fractions in Latin lookup 14 subtable" four.numr
Substitution2: "'dnom' Denominators in Latin lookup 12 subtable" four.dnom
Substitution2: "'numr' Numerators in Latin lookup 11 subtable" four.numr
Substitution2: "'sups' Superscript in Latin lookup 10 subtable" uni2074
Substitution2: "'sinf' Scientific Inferiors in Latin lookup 9 subtable" uni2084
Substitution2: "'subs' Subscript in Latin lookup 8 subtable" uni2084
AlternateSubs2: "'aalt' Access All Alternates in Latin lookup 1 subtable" uni2084 uni2074 four.numr four.dnom
EndChar

StartChar: five
Encoding: 53 53 839
Width: 612
GlyphClass: 1
Flags: W
LayerCount: 2
Fore
SplineSet
144.5 37.5 m 128,-1,1
 77 87 77 87 54 171 c 1,2,-1
 108 192 l 1,3,4
 127 124 127 124 180 85 c 128,-1,5
 233 46 233 46 303 46 c 0,6,7
 356 46 356 46 397 70 c 128,-1,8
 438 94 438 94 461 136.5 c 128,-1,9
 484 179 484 179 484 232 c 0,10,11
 484 284 484 284 460 326 c 128,-1,12
 436 368 436 368 395 391.5 c 128,-1,13
 354 415 354 415 304 415 c 0,14,15
 253 415 253 415 208.5 391.5 c 128,-1,16
 164 368 164 368 143 333 c 1,17,-1
 90 344 l 1,18,-1
 145 746 l 1,19,-1
 519 746 l 1,20,-1
 519 689 l 1,21,-1
 193 689 l 1,22,-1
 156 424 l 1,23,24
 185 449 185 449 224.5 462 c 128,-1,25
 264 475 264 475 307 475 c 0,26,27
 375 475 375 475 430.5 443 c 128,-1,28
 486 411 486 411 517.5 355 c 128,-1,29
 549 299 549 299 549 232 c 0,30,31
 549 163 549 163 517.5 107 c 128,-1,32
 486 51 486 51 429.5 19.5 c 128,-1,33
 373 -12 373 -12 303 -12 c 0,34,0
 212 -12 212 -12 144.5 37.5 c 128,-1,1
EndSplineSet
Validated: 1
Substitution2: "'frac' Diagonal Fractions in Latin lookup 14 subtable" five.numr
Substitution2: "'dnom' Denominators in Latin lookup 12 subtable" five.dnom
Substitution2: "'numr' Numerators in Latin lookup 11 subtable" five.numr
Substitution2: "'sups' Superscript in Latin lookup 10 subtable" uni2075
Substitution2: "'sinf' Scientific Inferiors in Latin lookup 9 subtable" uni2085
Substitution2: "'subs' Subscript in Latin lookup 8 subtable" uni2085
AlternateSubs2: "'aalt' Access All Alternates in Latin lookup 1 subtable" uni2085 uni2075 five.numr five.dnom
EndChar

StartChar: six
Encoding: 54 54 840
Width: 592
GlyphClass: 1
Flags: W
LayerCount: 2
Fore
SplineSet
175 19.5 m 128,-1,1
 121 51 121 51 90.5 107 c 128,-1,2
 60 163 60 163 60 234 c 0,3,4
 60 297 60 297 83.5 355 c 128,-1,5
 107 413 107 413 155 476 c 2,6,-1
 358 745 l 1,7,-1
 436 745 l 1,8,-1
 202 435 l 1,9,10
 243 460 243 460 305 460 c 0,11,12
 369 460 369 460 421.5 430 c 128,-1,13
 474 400 474 400 504.5 346.5 c 128,-1,14
 535 293 535 293 535 225 c 0,15,16
 535 158 535 158 504 103.5 c 128,-1,17
 473 49 473 49 418.5 18.5 c 128,-1,18
 364 -12 364 -12 297 -12 c 0,19,0
 229 -12 229 -12 175 19.5 c 128,-1,1
148.5 132 m 128,-1,21
 171 92 171 92 210.5 69 c 128,-1,22
 250 46 250 46 298 46 c 0,23,24
 347 46 347 46 386 69 c 128,-1,25
 425 92 425 92 447.5 132.5 c 128,-1,26
 470 173 470 173 470 223 c 0,27,28
 470 274 470 274 447.5 315 c 128,-1,29
 425 356 425 356 386 379 c 128,-1,30
 347 402 347 402 298 402 c 256,31,32
 249 402 249 402 210 379 c 128,-1,33
 171 356 171 356 148.5 315 c 128,-1,34
 126 274 126 274 126 223 c 256,35,20
 126 172 126 172 148.5 132 c 128,-1,21
EndSplineSet
Validated: 1
Substitution2: "'frac' Diagonal Fractions in Latin lookup 14 subtable" six.numr
Substitution2: "'dnom' Denominators in Latin lookup 12 subtable" six.dnom
Substitution2: "'numr' Numerators in Latin lookup 11 subtable" six.numr
Substitution2: "'sups' Superscript in Latin lookup 10 subtable" uni2076
Substitution2: "'sinf' Scientific Inferiors in Latin lookup 9 subtable" uni2086
Substitution2: "'subs' Subscript in Latin lookup 8 subtable" uni2086
AlternateSubs2: "'aalt' Access All Alternates in Latin lookup 1 subtable" uni2086 uni2076 six.numr six.dnom
EndChar

StartChar: seven
Encoding: 55 55 841
Width: 533
GlyphClass: 1
Flags: W
LayerCount: 2
Fore
SplineSet
419 689 m 1,0,-1
 42 689 l 1,1,-1
 42 746 l 1,2,-1
 490 746 l 1,3,-1
 490 691 l 1,4,-1
 146 0 l 1,5,-1
 77 0 l 1,6,-1
 419 689 l 1,0,-1
EndSplineSet
Validated: 1
Substitution2: "'frac' Diagonal Fractions in Latin lookup 14 subtable" seven.numr
Substitution2: "'dnom' Denominators in Latin lookup 12 subtable" seven.dnom
Substitution2: "'numr' Numerators in Latin lookup 11 subtable" seven.numr
Substitution2: "'sups' Superscript in Latin lookup 10 subtable" uni2077
Substitution2: "'sinf' Scientific Inferiors in Latin lookup 9 subtable" uni2087
Substitution2: "'subs' Subscript in Latin lookup 8 subtable" uni2087
AlternateSubs2: "'aalt' Access All Alternates in Latin lookup 1 subtable" uni2087 uni2077 seven.numr seven.dnom
EndChar

StartChar: eight
Encoding: 56 56 842
Width: 617
GlyphClass: 1
Flags: W
LayerCount: 2
Fore
SplineSet
183.5 17.5 m 128,-1,1
 128 47 128 47 96 98.5 c 128,-1,2
 64 150 64 150 64 215 c 0,3,4
 64 282 64 282 99.5 335.5 c 128,-1,5
 135 389 135 389 195 415 c 1,6,7
 152 440 152 440 128.5 480.5 c 128,-1,8
 105 521 105 521 105 568 c 0,9,10
 105 621 105 621 131.5 664.5 c 128,-1,11
 158 708 158 708 205 732.5 c 128,-1,12
 252 757 252 757 309 757 c 256,13,14
 366 757 366 757 412.5 732.5 c 128,-1,15
 459 708 459 708 485 665 c 128,-1,16
 511 622 511 622 511 568 c 0,17,18
 511 519 511 519 488 480 c 128,-1,19
 465 441 465 441 422 415 c 1,20,21
 483 389 483 389 518.5 335.5 c 128,-1,22
 554 282 554 282 554 215 c 0,23,24
 554 150 554 150 522 98.5 c 128,-1,25
 490 47 490 47 434 17.5 c 128,-1,26
 378 -12 378 -12 309 -12 c 0,27,0
 239 -12 239 -12 183.5 17.5 c 128,-1,1
178.5 92 m 128,-1,29
 228 46 228 46 309 46 c 0,30,31
 389 46 389 46 439 92 c 128,-1,32
 489 138 489 138 489 214 c 0,33,34
 489 289 489 289 439 335.5 c 128,-1,35
 389 382 389 382 309 382 c 0,36,37
 228 382 228 382 178.5 335.5 c 128,-1,38
 129 289 129 289 129 214 c 0,39,28
 129 138 129 138 178.5 92 c 128,-1,29
209.5 476.5 m 128,-1,41
 249 440 249 440 309 440 c 0,42,43
 368 440 368 440 407 476.5 c 128,-1,44
 446 513 446 513 446 570 c 256,45,46
 446 627 446 627 407 663.5 c 128,-1,47
 368 700 368 700 309 700 c 0,48,49
 249 700 249 700 209.5 663.5 c 128,-1,50
 170 627 170 627 170 570 c 256,51,40
 170 513 170 513 209.5 476.5 c 128,-1,41
EndSplineSet
Validated: 1
Substitution2: "'frac' Diagonal Fractions in Latin lookup 14 subtable" eight.numr
Substitution2: "'dnom' Denominators in Latin lookup 12 subtable" eight.dnom
Substitution2: "'numr' Numerators in Latin lookup 11 subtable" eight.numr
Substitution2: "'sups' Superscript in Latin lookup 10 subtable" uni2078
Substitution2: "'sinf' Scientific Inferiors in Latin lookup 9 subtable" uni2088
Substitution2: "'subs' Subscript in Latin lookup 8 subtable" uni2088
AlternateSubs2: "'aalt' Access All Alternates in Latin lookup 1 subtable" uni2088 uni2078 eight.numr eight.dnom
EndChar

StartChar: nine
Encoding: 57 57 843
Width: 592
GlyphClass: 1
Flags: W
LayerCount: 2
Fore
SplineSet
391 311 m 1,0,1
 347 285 347 285 287 285 c 0,2,3
 223 285 223 285 170.5 315 c 128,-1,4
 118 345 118 345 87.5 399 c 128,-1,5
 57 453 57 453 57 521 c 0,6,7
 57 588 57 588 88.5 642 c 128,-1,8
 120 696 120 696 174.5 726.5 c 128,-1,9
 229 757 229 757 295 757 c 0,10,11
 363 757 363 757 417 725.5 c 128,-1,12
 471 694 471 694 501.5 638.5 c 128,-1,13
 532 583 532 583 532 512 c 0,14,15
 532 448 532 448 508.5 390.5 c 128,-1,16
 485 333 485 333 437 269 c 2,17,-1
 234 0 l 1,18,-1
 157 0 l 1,19,-1
 391 311 l 1,0,1
145 430.5 m 128,-1,21
 167 390 167 390 206.5 367 c 128,-1,22
 246 344 246 344 295 344 c 256,23,24
 344 344 344 344 383 367 c 128,-1,25
 422 390 422 390 444.5 430.5 c 128,-1,26
 467 471 467 471 467 522 c 256,27,28
 467 573 467 573 444.5 613.5 c 128,-1,29
 422 654 422 654 382.5 677 c 128,-1,30
 343 700 343 700 295 700 c 0,31,32
 246 700 246 700 207 677 c 128,-1,33
 168 654 168 654 145.5 613.5 c 128,-1,34
 123 573 123 573 123 522 c 256,35,20
 123 471 123 471 145 430.5 c 128,-1,21
EndSplineSet
Validated: 1
Substitution2: "'frac' Diagonal Fractions in Latin lookup 14 subtable" nine.numr
Substitution2: "'dnom' Denominators in Latin lookup 12 subtable" nine.dnom
Substitution2: "'numr' Numerators in Latin lookup 11 subtable" nine.numr
Substitution2: "'sups' Superscript in Latin lookup 10 subtable" uni2079
Substitution2: "'sinf' Scientific Inferiors in Latin lookup 9 subtable" uni2089
Substitution2: "'subs' Subscript in Latin lookup 8 subtable" uni2089
AlternateSubs2: "'aalt' Access All Alternates in Latin lookup 1 subtable" uni2089 uni2079 nine.numr nine.dnom
EndChar

StartChar: zero.dnom
Encoding: 65897 -1 844
Width: 435
GlyphClass: 1
Flags: W
LayerCount: 2
Fore
SplineSet
131.5 20.5 m 128,-1,1
 94 48 94 48 73 97 c 128,-1,2
 52 146 52 146 52 209 c 256,3,4
 52 272 52 272 73 321 c 128,-1,5
 94 370 94 370 131.5 397 c 128,-1,6
 169 424 169 424 217 424 c 0,7,8
 266 424 266 424 303.5 397 c 128,-1,9
 341 370 341 370 362 321 c 128,-1,10
 383 272 383 272 383 209 c 256,11,12
 383 146 383 146 362 97 c 128,-1,13
 341 48 341 48 303.5 20.5 c 128,-1,14
 266 -7 266 -7 218 -7 c 0,15,0
 169 -7 169 -7 131.5 20.5 c 128,-1,1
140 91.5 m 128,-1,17
 169 47 169 47 218 47 c 256,18,19
 267 47 267 47 295.5 91.5 c 128,-1,20
 324 136 324 136 324 209 c 256,21,22
 324 282 324 282 295.5 326 c 128,-1,23
 267 370 267 370 217 370 c 0,24,25
 168 370 168 370 139.5 326.5 c 128,-1,26
 111 283 111 283 111 209 c 0,27,16
 111 136 111 136 140 91.5 c 128,-1,17
EndSplineSet
Validated: 1
EndChar

StartChar: one.dnom
Encoding: 65898 -1 845
Width: 275
GlyphClass: 1
Flags: W
LayerCount: 2
Fore
SplineSet
104 367 m 1,0,-1
 25 367 l 1,1,-1
 25 418 l 1,2,-1
 163 418 l 1,3,-1
 163 0 l 1,4,-1
 104 0 l 1,5,-1
 104 367 l 1,0,-1
EndSplineSet
Validated: 1
EndChar

StartChar: two.dnom
Encoding: 65899 -1 846
Width: 362
GlyphClass: 1
Flags: W
LayerCount: 2
Fore
SplineSet
42 42 m 1,0,-1
 157 165 l 2,1,2
 213 224 213 224 231 249.5 c 128,-1,3
 249 275 249 275 249 304 c 0,4,5
 249 335 249 335 229.5 353 c 128,-1,6
 210 371 210 371 178 371 c 0,7,8
 145 371 145 371 122.5 352.5 c 128,-1,9
 100 334 100 334 91 299 c 1,10,-1
 39 315 l 1,11,12
 49 365 49 365 87.5 394.5 c 128,-1,13
 126 424 126 424 178 424 c 0,14,15
 235 424 235 424 271.5 391.5 c 128,-1,16
 308 359 308 359 308 308 c 0,17,18
 308 271 308 271 287.5 239.5 c 128,-1,19
 267 208 267 208 224 162 c 2,20,-1
 121 51 l 1,21,-1
 316 51 l 1,22,-1
 316 0 l 1,23,-1
 42 0 l 1,24,-1
 42 42 l 1,0,-1
EndSplineSet
Validated: 1
EndChar

StartChar: three.dnom
Encoding: 65900 -1 847
Width: 367
GlyphClass: 1
Flags: W
LayerCount: 2
Fore
SplineSet
89.5 21 m 128,-1,1
 50 49 50 49 37 95 c 1,2,-1
 87 114 l 1,3,4
 98 82 98 82 123 64 c 128,-1,5
 148 46 148 46 180 46 c 0,6,7
 219 46 219 46 242.5 68.5 c 128,-1,8
 266 91 266 91 266 130 c 0,9,10
 266 168 266 168 242 189.5 c 128,-1,11
 218 211 218 211 180 211 c 0,12,13
 158 211 158 211 143 205 c 1,14,-1
 131 232 l 1,15,-1
 242 367 l 1,16,-1
 58 367 l 1,17,-1
 58 418 l 1,18,-1
 308 418 l 1,19,-1
 308 371 l 1,20,-1
 214 255 l 1,21,22
 263 248 263 248 294 214 c 128,-1,23
 325 180 325 180 325 130 c 0,24,25
 325 92 325 92 306 61 c 128,-1,26
 287 30 287 30 254 11.5 c 128,-1,27
 221 -7 221 -7 180 -7 c 0,28,0
 129 -7 129 -7 89.5 21 c 128,-1,1
EndSplineSet
Validated: 1
EndChar

StartChar: four.dnom
Encoding: 65901 -1 848
Width: 396
GlyphClass: 1
Flags: W
LayerCount: 2
Fore
SplineSet
241 95 m 1,0,-1
 38 95 l 1,1,-1
 38 144 l 1,2,-1
 239 418 l 1,3,-1
 297 418 l 1,4,-1
 297 144 l 1,5,-1
 353 144 l 1,6,-1
 353 95 l 1,7,-1
 297 95 l 1,8,-1
 297 0 l 1,9,-1
 241 0 l 1,10,-1
 241 95 l 1,0,-1
241 144 m 1,11,-1
 241 342 l 1,12,-1
 97 144 l 1,13,-1
 241 144 l 1,11,-1
EndSplineSet
Validated: 1
EndChar

StartChar: five.dnom
Encoding: 65902 -1 849
Width: 378
GlyphClass: 1
Flags: W
LayerCount: 2
Fore
SplineSet
93 20.5 m 128,-1,1
 54 48 54 48 41 94 c 1,2,-1
 91 112 l 1,3,4
 101 81 101 81 126.5 63.5 c 128,-1,5
 152 46 152 46 183 46 c 0,6,7
 220 46 220 46 243.5 70.5 c 128,-1,8
 267 95 267 95 267 133 c 0,9,10
 267 170 267 170 243 194.5 c 128,-1,11
 219 219 219 219 183 219 c 0,12,13
 159 219 159 219 137.5 207.5 c 128,-1,14
 116 196 116 196 107 178 c 1,15,-1
 59 189 l 1,16,-1
 91 418 l 1,17,-1
 310 418 l 1,18,-1
 310 367 l 1,19,-1
 134 367 l 1,20,-1
 117 249 l 1,21,22
 147 270 147 270 191 270 c 0,23,24
 250 270 250 270 288 230.5 c 128,-1,25
 326 191 326 191 326 133 c 0,26,27
 326 73 326 73 285.5 33 c 128,-1,28
 245 -7 245 -7 183 -7 c 0,29,0
 132 -7 132 -7 93 20.5 c 128,-1,1
EndSplineSet
Validated: 1
EndChar

StartChar: six.dnom
Encoding: 65903 -1 850
Width: 353
GlyphClass: 1
Flags: W
LayerCount: 2
Fore
SplineSet
76.5 32.5 m 128,-1,1
 37 72 37 72 37 131 c 0,2,3
 37 166 37 166 49.5 197.5 c 128,-1,4
 62 229 62 229 90 266 c 2,5,-1
 205 418 l 1,6,-1
 275 418 l 1,7,-1
 152 256 l 1,8,9
 165 262 165 262 186 262 c 0,10,11
 242 262 242 262 279 224.5 c 128,-1,12
 316 187 316 187 316 130 c 0,13,14
 316 71 316 71 276 32 c 128,-1,15
 236 -7 236 -7 177 -7 c 0,16,0
 116 -7 116 -7 76.5 32.5 c 128,-1,1
119 69.5 m 128,-1,18
 142 46 142 46 177 46 c 0,19,20
 211 46 211 46 234 69.5 c 128,-1,21
 257 93 257 93 257 129 c 256,22,23
 257 165 257 165 234 188.5 c 128,-1,24
 211 212 211 212 177 212 c 0,25,26
 142 212 142 212 119 188.5 c 128,-1,27
 96 165 96 165 96 129 c 256,28,17
 96 93 96 93 119 69.5 c 128,-1,18
EndSplineSet
Validated: 1
EndChar

StartChar: seven.dnom
Encoding: 65904 -1 851
Width: 320
GlyphClass: 1
Flags: W
LayerCount: 2
Fore
SplineSet
237 367 m 1,0,-1
 34 367 l 1,1,-1
 34 418 l 1,2,-1
 299 418 l 1,3,-1
 299 368 l 1,4,-1
 120 0 l 1,5,-1
 56 0 l 1,6,-1
 237 367 l 1,0,-1
EndSplineSet
Validated: 1
EndChar

StartChar: eight.dnom
Encoding: 65905 -1 852
Width: 388
GlyphClass: 1
Flags: W
LayerCount: 2
Fore
SplineSet
90 30 m 128,-1,1
 50 67 50 67 50 121 c 0,2,3
 50 157 50 157 67.5 184.5 c 128,-1,4
 85 212 85 212 117 227 c 1,5,6
 94 240 94 240 81.5 263.5 c 128,-1,7
 69 287 69 287 69 314 c 0,8,9
 69 361 69 361 104.5 392.5 c 128,-1,10
 140 424 140 424 193 424 c 256,11,12
 246 424 246 424 281.5 392.5 c 128,-1,13
 317 361 317 361 317 314 c 0,14,15
 317 286 317 286 304.5 263 c 128,-1,16
 292 240 292 240 269 227 c 1,17,18
 301 211 301 211 319 183.5 c 128,-1,19
 337 156 337 156 337 120 c 0,20,21
 337 66 337 66 296.5 29.5 c 128,-1,22
 256 -7 256 -7 193 -7 c 256,23,0
 130 -7 130 -7 90 30 c 128,-1,1
132 65.5 m 128,-1,25
 155 44 155 44 193 44 c 256,26,27
 231 44 231 44 254.5 65.5 c 128,-1,28
 278 87 278 87 278 121 c 0,29,30
 278 156 278 156 254.5 177.5 c 128,-1,31
 231 199 231 199 193 199 c 0,32,33
 156 199 156 199 132.5 177.5 c 128,-1,34
 109 156 109 156 109 121 c 0,35,24
 109 87 109 87 132 65.5 c 128,-1,25
146.5 267 m 128,-1,37
 165 249 165 249 193 249 c 256,38,39
 221 249 221 249 239.5 267 c 128,-1,40
 258 285 258 285 258 311 c 0,41,42
 258 338 258 338 239.5 355.5 c 128,-1,43
 221 373 221 373 193 373 c 256,44,45
 165 373 165 373 146.5 355.5 c 128,-1,46
 128 338 128 338 128 311 c 0,47,36
 128 285 128 285 146.5 267 c 128,-1,37
EndSplineSet
Validated: 1
EndChar

StartChar: nine.dnom
Encoding: 65906 -1 853
Width: 353
GlyphClass: 1
Flags: W
LayerCount: 2
Fore
SplineSet
201 161 m 1,0,1
 187 156 187 156 167 156 c 0,2,3
 112 156 112 156 74.5 193.5 c 128,-1,4
 37 231 37 231 37 288 c 0,5,6
 37 346 37 346 77 385 c 128,-1,7
 117 424 117 424 177 424 c 256,8,9
 237 424 237 424 276.5 385 c 128,-1,10
 316 346 316 346 316 286 c 0,11,12
 316 250 316 250 303.5 218.5 c 128,-1,13
 291 187 291 187 264 152 c 2,14,-1
 148 0 l 1,15,-1
 78 0 l 1,16,-1
 201 161 l 1,0,1
119.5 229 m 128,-1,18
 143 205 143 205 177 205 c 256,19,20
 211 205 211 205 234 229 c 128,-1,21
 257 253 257 253 257 289 c 0,22,23
 257 324 257 324 234 347.5 c 128,-1,24
 211 371 211 371 177 371 c 0,25,26
 142 371 142 371 119 347.5 c 128,-1,27
 96 324 96 324 96 289 c 0,28,17
 96 253 96 253 119.5 229 c 128,-1,18
EndSplineSet
Validated: 1
EndChar

StartChar: uni2080
Encoding: 8320 8320 854
Width: 515
GlyphClass: 1
Flags: W
LayerCount: 2
Fore
SplineSet
150.5 26 m 128,-1,1
 104 60 104 60 78 121 c 128,-1,2
 52 182 52 182 52 261 c 256,3,4
 52 340 52 340 78 401 c 128,-1,5
 104 462 104 462 150.5 496 c 128,-1,6
 197 530 197 530 257 530 c 0,7,8
 318 530 318 530 364.5 496 c 128,-1,9
 411 462 411 462 436.5 401 c 128,-1,10
 462 340 462 340 462 261 c 256,11,12
 462 182 462 182 436.5 121 c 128,-1,13
 411 60 411 60 364.5 26 c 128,-1,14
 318 -8 318 -8 258 -8 c 0,15,0
 197 -8 197 -8 150.5 26 c 128,-1,1
153 107.5 m 128,-1,17
 192 49 192 49 258 49 c 0,18,19
 323 49 323 49 362 107.5 c 128,-1,20
 401 166 401 166 401 261 c 0,21,22
 401 357 401 357 362 415 c 128,-1,23
 323 473 323 473 257 473 c 0,24,25
 192 473 192 473 153 415 c 128,-1,26
 114 357 114 357 114 261 c 0,27,16
 114 166 114 166 153 107.5 c 128,-1,17
EndSplineSet
Validated: 1
EndChar

StartChar: uni2081
Encoding: 8321 8321 855
Width: 297
GlyphClass: 1
Flags: W
LayerCount: 2
Fore
SplineSet
123 468 m 1,0,-1
 25 468 l 1,1,-1
 25 522 l 1,2,-1
 185 522 l 1,3,-1
 185 0 l 1,4,-1
 123 0 l 1,5,-1
 123 468 l 1,0,-1
EndSplineSet
Validated: 1
EndChar

